<?xml version="1.0" encoding="UTF-8" standalone="no"?>
<!-- Generator: Adobe Illustrator 19.2.0, SVG Export Plug-In . SVG Version: 6.00 Build 0)  -->

<svg
   version="1.1"
   x="0px"
   y="0px"
   width="210.32106"
   height="212.89517"
   viewBox="0 0 210.32106 212.89517"
   enable-background="new 0 0 380 344"
   xml:space="preserve"
   id="svg13"
   sodipodi:docname="white.svg"
   inkscape:version="1.3.2 (091e20e, 2023-11-25)"
   xmlns:inkscape="http://www.inkscape.org/namespaces/inkscape"
   xmlns:sodipodi="http://sodipodi.sourceforge.net/DTD/sodipodi-0.dtd"
   xmlns="http://www.w3.org/2000/svg"
   xmlns:svg="http://www.w3.org/2000/svg"><defs
   id="defs13">
	

		
		
	</defs><sodipodi:namedview
   id="namedview13"
   pagecolor="#ffffff"
   bordercolor="#000000"
   borderopacity="0.25"
   inkscape:showpageshadow="2"
   inkscape:pageopacity="0.0"
   inkscape:pagecheckerboard="0"
   inkscape:deskcolor="#d1d1d1"
   inkscape:zoom="0.68604651"
   inkscape:cx="104.94915"
   inkscape:cy="169.81356"
   inkscape:window-width="1728"
   inkscape:window-height="1056"
   inkscape:window-x="0"
   inkscape:window-y="33"
   inkscape:window-maximized="0"
   inkscape:current-layer="svg13" />
<g
   id="Background"
   transform="translate(-84.791782,-2.0471529)">
</g>
<g
   id="Vertical"
   transform="translate(-84.791782,-2.0471529)">
</g>
<g
   id="Horizontal"
   transform="translate(-84.791782,-2.0471529)">
</g>
<g
   id="Dynatrace_Color"
   transform="translate(-84.791782,-2.0471529)">
</g>
<g
   id="g12"
   style="fill:#ffffff;fill-opacity:1"
   transform="translate(-84.791782,-2.0471529)">
			<g
   id="g9"
   style="fill:#ffffff;fill-opacity:1">
				<path
   fill="#FFFFFF"
   d="m 84.8,84.6 c 0.1,10.8 0.5,27.8 1.8,46.9 2.1,32.4 6.3,61.2 6.3,61.2 l 53.9,-51.3 c 0,0 -2,-25.7 1.2,-64 0,0 -59.7,-7.2 -63.2,7.2 z"
   id="path9"
   style="fill:#ffffff;fill-opacity:1" />
			</g>
			<g
   id="g10"
   style="fill:#ffffff;fill-opacity:1">
				<path
   fill="#FFFFFF"
   d="m 209.1,214.6 c 14,-4 9.9,-62.6 9.9,-62.6 -38.5,1.3 -64,-1.9 -64,-1.9 l -54,51.2 c 0,0 28.6,5.6 60.8,9.3 18.2,2.1 42.9,3.8 46.3,4 0.4,0.1 0.8,0 1,0 z"
   id="path10"
   style="fill:#ffffff;fill-opacity:1" />
			</g>
			<path
   fill="#FFFFFF"
   d="m 84.8,81.3 c 0,1 0,2.1 0,3.3 0.6,-2.6 1.6,-4.5 3.8,-7.2 4.4,-5.6 11.6,-7.1 14.5,-7.5 14.6,-1.9 36.2,-4.3 57.9,-4.9 38.5,-1.2 63.9,2 63.9,2 l 53.9,-51.3 c 0,0 -28.3,-5.4 -60.6,-9.2 C 197.1,4 178.5,2.7 168.1,2.1 c -0.7,0 -8.2,-1 -15.2,5.7 -7.7,7.3 -46.3,43.9 -61.8,58.7 -6.8,6.6 -6.3,14.1 -6.3,14.8 z"
   id="path11"
   style="fill:#ffffff;fill-opacity:1" />
			<path
   fill="#FFFFFF"
   d="m 211.9,214.9 c -1,-0.1 -2.1,-0.1 -3.3,-0.2 2.7,-0.5 4.5,-1.4 7.4,-3.4 5.8,-4.2 7.7,-11.2 8.2,-14.1 2.6,-14.5 6,-35.9 7.8,-57.6 3.1,-38.4 1.1,-63.9 1.1,-63.9 L 287,24.4 c 0,0 4,28.5 6.2,60.9 1.4,21.2 1.8,39.8 1.9,50.2 0,0.7 0.6,8.2 -6.4,14.9 -7.7,7.3 -46.2,44.1 -61.7,58.9 -6.9,6.5 -14.4,5.6 -15.1,5.6 z"
   id="path12"
   style="fill:#ffffff;fill-opacity:1" />
		</g>
</svg>
