<svg width="106" height="37" viewBox="0 0 106 37" fill="none" xmlns="http://www.w3.org/2000/svg">
    <g clip-path="url(#clip0_6811_7430)">
        <path d="M48.8885 6.10938C46.1854 6.10938 43.6461 7.33805 42.4584 9.18107V6.60084H38.0352V34.2871H42.4584V23.1061C43.6461 24.9491 46.0625 26.1778 48.6018 26.1778C54.1308 26.1778 57.9807 22.0413 57.9807 16.1436C57.9807 10.1231 54.3356 6.10938 48.8885 6.10938ZM47.9465 22.2051C44.5881 22.2051 42.2946 19.7477 42.2946 16.1436C42.2946 12.5395 44.5881 10.0821 47.9465 10.0821C51.223 10.0821 53.5165 12.5805 53.5165 16.1436C53.5165 19.7068 51.223 22.2051 47.9465 22.2051Z" fill="white"></path>
        <path d="M69.8905 26.1778C76.1978 26.1778 79.9657 21.7546 79.9657 16.1436C79.9657 10.5326 76.1978 6.10938 69.8905 6.10938C63.5833 6.10938 59.8154 10.5326 59.8154 16.1436C59.8154 21.7546 63.5833 26.1778 69.8905 26.1778ZM69.8905 22.2051C66.2864 22.2051 64.2796 19.6249 64.2796 16.1436C64.2796 12.6624 66.2864 10.0821 69.8905 10.0821C73.4947 10.0821 75.5015 12.6624 75.5015 16.1436C75.5015 19.6249 73.4947 22.2051 69.8905 22.2051Z" fill="white"></path>
        <path d="M86.4232 25.687V17.2501C86.4232 12.811 89.6527 10.3286 93.2628 10.3286V6.60156C90.3819 6.60156 87.3608 7.45588 86.4232 10.2876V6.60156H81.959V25.687H86.4232Z" fill="white"></path>
        <path d="M103.748 21.9185C101.987 21.9185 100.963 21.5089 100.963 18.1915V10.3279H105.345V6.60096H100.963V0.826172H96.4992V6.60096L93.2637 6.60106V10.3281L96.4992 10.3279V19.2154C96.4992 25.6455 100.512 25.9322 102.683 25.9322C103.994 25.9322 105.304 25.8093 106 25.6864V21.7547C105.55 21.8366 104.444 21.9185 103.748 21.9185Z" fill="white"></path>
        <path d="M14.9479 27.4967C14.6941 27.5056 14.4873 27.2989 14.4873 27.0449V2.20798C14.4873 1.95397 14.6941 1.74721 14.9479 1.75614C21.848 1.99867 27.3672 7.66808 27.3672 14.6264C27.3672 21.5848 21.8479 27.2542 14.9479 27.4967Z" fill="url(#paint0_linear_6811_7430)"></path>
        <path fill-rule="evenodd" clip-rule="evenodd" d="M0.45993 16.0625C0.205917 16.0625 0 16.2684 0 16.5225V24.8012H11.4982V16.5225C11.4982 16.2684 11.2923 16.0625 11.0383 16.0625H0.45993ZM11.4982 24.8028H0V35.8411C0 36.0951 0.206594 36.302 0.460408 36.2919C6.58042 36.0502 11.4982 31.0115 11.4982 24.8028Z" fill="url(#paint1_linear_6811_7430)"></path>
        <path d="M11.6735 12.6732C11.6735 12.9272 11.4676 13.1331 11.2136 13.1331H0.460838C0.206826 13.1331 -5.71366e-05 12.9264 0.0101261 12.6726C0.252733 6.62606 5.2522 1.964 11.2132 1.73471C11.467 1.72494 11.6735 1.93178 11.6735 2.18579V12.6732Z" fill="url(#paint2_linear_6811_7430)"></path>
    </g>
    <defs>
        <linearGradient id="paint0_linear_6811_7430" x1="17.5251" y1="27.6464" x2="31.3448" y2="16.6426" gradientUnits="userSpaceOnUse">
            <stop stop-color="#2DB8E6"></stop>
            <stop offset="1" stop-color="#4FE8D4"></stop>
        </linearGradient>
        <linearGradient id="paint1_linear_6811_7430" x1="1.8397" y1="36.2923" x2="15.604" y2="29.3485" gradientUnits="userSpaceOnUse">
            <stop offset="0.0001" stop-color="#4243F6"></stop>
            <stop offset="1" stop-color="#2991F3"></stop>
        </linearGradient>
        <linearGradient id="paint2_linear_6811_7430" x1="10.008" y1="4.07996" x2="2.13399" y2="11.8478" gradientUnits="userSpaceOnUse">
            <stop offset="0.112043" stop-color="#FF7826"></stop>
            <stop offset="1" stop-color="#FF6489"></stop>
        </linearGradient>
        <clipPath id="clip0_6811_7430">
            <rect width="106" height="36" fill="white" transform="translate(0 0.826172)"></rect>
        </clipPath>
    </defs>
</svg>