<?xml version="1.0" encoding="utf-8"?>
<!-- Generator: Adobe Illustrator 25.0.1, SVG Export Plug-In . SVG Version: 6.00 Build 0)  -->
<svg version="1.0" id="Layer_1" xmlns="http://www.w3.org/2000/svg" xmlns:xlink="http://www.w3.org/1999/xlink" x="0px" y="0px"
	 viewBox="0 0 952 629.9" style="enable-background:new 0 0 952 629.9;" xml:space="preserve">
<style type="text/css">
	.st0{fill:#EC627A;}
	.st1{fill:#ffffff;}
	.st2{fill:none;}
</style>
<path class="st0" d="M476,101.8"/>
<polygon class="st0" points="316,128.4 131.8,490 217.4,490 401.6,128.4 "/>
<path class="st1" d="M485.6,445.5c-7.2,0.9-14.4-0.9-20.3-5c-4.1-5.9-5.9-13.1-5-20.3V313H491l20.3-39.9h-50.8v-65H401v65h-29.9
	l-20.3,39.8h50.1v128c-0.4,9.1,1.5,18.2,5.4,26.4c3.4,6.5,8.6,11.9,14.9,15.6c6.8,3.8,14.3,6.3,22,7.3c8.7,1.3,17.4,1.9,26.2,1.9
	c5.9,0,11.9,0,18-0.4c5.6-0.2,11.2-0.8,16.7-1.7v-46.2c-2.9,0.6-5.8,1-8.8,1.3C492.2,445.3,489,445.5,485.6,445.5z"/>
<polygon class="st1" points="759,273.2 719.1,419.9 718.3,419.9 681.4,273.2 623.5,273.2 587.5,420.4 586.6,420.4 546.8,273.2 
	508,349.2 552.7,490 614.3,490 651.2,344.4 652,344.4 690.6,490 751.9,490 820.2,273.2 "/>
<rect x="96" y="100.9" class="st2" width="760" height="428.1"/>
</svg>
