<svg id="svgQrWrapper" viewBox="0 0 300 300" xmlns="http://www.w3.org/2000/svg" xmlns:xlink="http://www.w3.org/1999/xlink" style="width: 100%; height: 100%; background-color: transparent;"><svg><g transform="translate(9, 9)scale(0.95)" fill="none"><svg width="300" height="300"><style>.background-color{ fill: #fff; }.corners-square-color-0-0{ fill: #ffffff; }.corners-dot-color-0-0{ fill: #ffffff; }.corners-square-color-1-0{ fill: #ffffff; }.corners-dot-color-1-0{ fill: #ffffff; }.corners-square-color-0-1{ fill: #ffffff; }.corners-dot-color-0-1{ fill: #ffffff; }</style><defs><clipPath id="clip-path-dot-color"><circle cx="10" cy="120" r="5" transform="rotate(0,10,120)"/><circle cx="10" cy="170" r="5" transform="rotate(0,10,170)"/><circle cx="10" cy="190" r="5" transform="rotate(0,10,190)"/><circle cx="10" cy="200" r="5" transform="rotate(0,10,200)"/><circle cx="20" cy="90" r="5" transform="rotate(0,20,90)"/><circle cx="20" cy="130" r="5" transform="rotate(0,20,130)"/><circle cx="20" cy="140" r="5" transform="rotate(0,20,140)"/><circle cx="20" cy="150" r="5" transform="rotate(0,20,150)"/><circle cx="20" cy="210" r="5" transform="rotate(0,20,210)"/><circle cx="30" cy="100" r="5" transform="rotate(0,30,100)"/><circle cx="30" cy="110" r="5" transform="rotate(0,30,110)"/><circle cx="30" cy="120" r="5" transform="rotate(0,30,120)"/><circle cx="30" cy="140" r="5" transform="rotate(0,30,140)"/><circle cx="30" cy="170" r="5" transform="rotate(0,30,170)"/><circle cx="30" cy="210" r="5" transform="rotate(0,30,210)"/><circle cx="40" cy="90" r="5" transform="rotate(0,40,90)"/><circle cx="40" cy="100" r="5" transform="rotate(0,40,100)"/><circle cx="40" cy="130" r="5" transform="rotate(0,40,130)"/><circle cx="40" cy="150" r="5" transform="rotate(0,40,150)"/><circle cx="40" cy="180" r="5" transform="rotate(0,40,180)"/><circle cx="40" cy="200" r="5" transform="rotate(0,40,200)"/><circle cx="40" cy="210" r="5" transform="rotate(0,40,210)"/><circle cx="50" cy="90" r="5" transform="rotate(0,50,90)"/><circle cx="50" cy="100" r="5" transform="rotate(0,50,100)"/><circle cx="50" cy="110" r="5" transform="rotate(0,50,110)"/><circle cx="50" cy="120" r="5" transform="rotate(0,50,120)"/><circle cx="50" cy="160" r="5" transform="rotate(0,50,160)"/><circle cx="50" cy="170" r="5" transform="rotate(0,50,170)"/><circle cx="50" cy="180" r="5" transform="rotate(0,50,180)"/><circle cx="50" cy="200" r="5" transform="rotate(0,50,200)"/><circle cx="50" cy="210" r="5" transform="rotate(0,50,210)"/><circle cx="60" cy="100" r="5" transform="rotate(0,60,100)"/><circle cx="60" cy="110" r="5" transform="rotate(0,60,110)"/><circle cx="60" cy="120" r="5" transform="rotate(0,60,120)"/><circle cx="60" cy="130" r="5" transform="rotate(0,60,130)"/><circle cx="60" cy="180" r="5" transform="rotate(0,60,180)"/><circle cx="60" cy="190" r="5" transform="rotate(0,60,190)"/><circle cx="60" cy="210" r="5" transform="rotate(0,60,210)"/><circle cx="70" cy="90" r="5" transform="rotate(0,70,90)"/><circle cx="70" cy="110" r="5" transform="rotate(0,70,110)"/><circle cx="70" cy="130" r="5" transform="rotate(0,70,130)"/><circle cx="70" cy="150" r="5" transform="rotate(0,70,150)"/><circle cx="70" cy="170" r="5" transform="rotate(0,70,170)"/><circle cx="70" cy="190" r="5" transform="rotate(0,70,190)"/><circle cx="70" cy="210" r="5" transform="rotate(0,70,210)"/><circle cx="80" cy="90" r="5" transform="rotate(0,80,90)"/><circle cx="80" cy="120" r="5" transform="rotate(0,80,120)"/><circle cx="80" cy="140" r="5" transform="rotate(0,80,140)"/><circle cx="80" cy="150" r="5" transform="rotate(0,80,150)"/><circle cx="80" cy="160" r="5" transform="rotate(0,80,160)"/><circle cx="80" cy="170" r="5" transform="rotate(0,80,170)"/><circle cx="80" cy="200" r="5" transform="rotate(0,80,200)"/><circle cx="90" cy="20" r="5" transform="rotate(0,90,20)"/><circle cx="90" cy="40" r="5" transform="rotate(0,90,40)"/><circle cx="90" cy="50" r="5" transform="rotate(0,90,50)"/><circle cx="90" cy="60" r="5" transform="rotate(0,90,60)"/><circle cx="90" cy="70" r="5" transform="rotate(0,90,70)"/><circle cx="90" cy="90" r="5" transform="rotate(0,90,90)"/><circle cx="90" cy="110" r="5" transform="rotate(0,90,110)"/><circle cx="90" cy="150" r="5" transform="rotate(0,90,150)"/><circle cx="90" cy="160" r="5" transform="rotate(0,90,160)"/><circle cx="90" cy="190" r="5" transform="rotate(0,90,190)"/><circle cx="90" cy="200" r="5" transform="rotate(0,90,200)"/><circle cx="90" cy="220" r="5" transform="rotate(0,90,220)"/><circle cx="90" cy="230" r="5" transform="rotate(0,90,230)"/><circle cx="90" cy="250" r="5" transform="rotate(0,90,250)"/><circle cx="90" cy="260" r="5" transform="rotate(0,90,260)"/><circle cx="90" cy="280" r="5" transform="rotate(0,90,280)"/><circle cx="100" cy="30" r="5" transform="rotate(0,100,30)"/><circle cx="100" cy="60" r="5" transform="rotate(0,100,60)"/><circle cx="100" cy="80" r="5" transform="rotate(0,100,80)"/><circle cx="100" cy="90" r="5" transform="rotate(0,100,90)"/><circle cx="100" cy="100" r="5" transform="rotate(0,100,100)"/><circle cx="100" cy="130" r="5" transform="rotate(0,100,130)"/><circle cx="100" cy="150" r="5" transform="rotate(0,100,150)"/><circle cx="100" cy="160" r="5" transform="rotate(0,100,160)"/><circle cx="100" cy="170" r="5" transform="rotate(0,100,170)"/><circle cx="100" cy="210" r="5" transform="rotate(0,100,210)"/><circle cx="100" cy="220" r="5" transform="rotate(0,100,220)"/><circle cx="100" cy="230" r="5" transform="rotate(0,100,230)"/><circle cx="100" cy="240" r="5" transform="rotate(0,100,240)"/><circle cx="100" cy="250" r="5" transform="rotate(0,100,250)"/><circle cx="100" cy="260" r="5" transform="rotate(0,100,260)"/><circle cx="100" cy="280" r="5" transform="rotate(0,100,280)"/><circle cx="110" cy="20" r="5" transform="rotate(0,110,20)"/><circle cx="110" cy="30" r="5" transform="rotate(0,110,30)"/><circle cx="110" cy="40" r="5" transform="rotate(0,110,40)"/><circle cx="110" cy="70" r="5" transform="rotate(0,110,70)"/><circle cx="110" cy="100" r="5" transform="rotate(0,110,100)"/><circle cx="110" cy="110" r="5" transform="rotate(0,110,110)"/><circle cx="110" cy="130" r="5" transform="rotate(0,110,130)"/><circle cx="110" cy="140" r="5" transform="rotate(0,110,140)"/><circle cx="110" cy="170" r="5" transform="rotate(0,110,170)"/><circle cx="110" cy="180" r="5" transform="rotate(0,110,180)"/><circle cx="110" cy="190" r="5" transform="rotate(0,110,190)"/><circle cx="110" cy="220" r="5" transform="rotate(0,110,220)"/><circle cx="110" cy="230" r="5" transform="rotate(0,110,230)"/><circle cx="110" cy="250" r="5" transform="rotate(0,110,250)"/><circle cx="110" cy="260" r="5" transform="rotate(0,110,260)"/><circle cx="120" cy="10" r="5" transform="rotate(0,120,10)"/><circle cx="120" cy="20" r="5" transform="rotate(0,120,20)"/><circle cx="120" cy="50" r="5" transform="rotate(0,120,50)"/><circle cx="120" cy="60" r="5" transform="rotate(0,120,60)"/><circle cx="120" cy="80" r="5" transform="rotate(0,120,80)"/><circle cx="120" cy="120" r="5" transform="rotate(0,120,120)"/><circle cx="120" cy="140" r="5" transform="rotate(0,120,140)"/><circle cx="120" cy="160" r="5" transform="rotate(0,120,160)"/><circle cx="120" cy="180" r="5" transform="rotate(0,120,180)"/><circle cx="120" cy="200" r="5" transform="rotate(0,120,200)"/><circle cx="120" cy="210" r="5" transform="rotate(0,120,210)"/><circle cx="120" cy="240" r="5" transform="rotate(0,120,240)"/><circle cx="120" cy="250" r="5" transform="rotate(0,120,250)"/><circle cx="120" cy="290" r="5" transform="rotate(0,120,290)"/><circle cx="130" cy="40" r="5" transform="rotate(0,130,40)"/><circle cx="130" cy="60" r="5" transform="rotate(0,130,60)"/><circle cx="130" cy="70" r="5" transform="rotate(0,130,70)"/><circle cx="130" cy="90" r="5" transform="rotate(0,130,90)"/><circle cx="130" cy="100" r="5" transform="rotate(0,130,100)"/><circle cx="130" cy="110" r="5" transform="rotate(0,130,110)"/><circle cx="130" cy="140" r="5" transform="rotate(0,130,140)"/><circle cx="130" cy="150" r="5" transform="rotate(0,130,150)"/><circle cx="130" cy="160" r="5" transform="rotate(0,130,160)"/><circle cx="130" cy="200" r="5" transform="rotate(0,130,200)"/><circle cx="130" cy="210" r="5" transform="rotate(0,130,210)"/><circle cx="130" cy="220" r="5" transform="rotate(0,130,220)"/><circle cx="130" cy="230" r="5" transform="rotate(0,130,230)"/><circle cx="130" cy="280" r="5" transform="rotate(0,130,280)"/><circle cx="140" cy="20" r="5" transform="rotate(0,140,20)"/><circle cx="140" cy="60" r="5" transform="rotate(0,140,60)"/><circle cx="140" cy="80" r="5" transform="rotate(0,140,80)"/><circle cx="140" cy="90" r="5" transform="rotate(0,140,90)"/><circle cx="140" cy="140" r="5" transform="rotate(0,140,140)"/><circle cx="140" cy="170" r="5" transform="rotate(0,140,170)"/><circle cx="140" cy="180" r="5" transform="rotate(0,140,180)"/><circle cx="140" cy="230" r="5" transform="rotate(0,140,230)"/><circle cx="140" cy="250" r="5" transform="rotate(0,140,250)"/><circle cx="140" cy="270" r="5" transform="rotate(0,140,270)"/><circle cx="140" cy="290" r="5" transform="rotate(0,140,290)"/><circle cx="150" cy="30" r="5" transform="rotate(0,150,30)"/><circle cx="150" cy="60" r="5" transform="rotate(0,150,60)"/><circle cx="150" cy="70" r="5" transform="rotate(0,150,70)"/><circle cx="150" cy="90" r="5" transform="rotate(0,150,90)"/><circle cx="150" cy="100" r="5" transform="rotate(0,150,100)"/><circle cx="150" cy="110" r="5" transform="rotate(0,150,110)"/><circle cx="150" cy="120" r="5" transform="rotate(0,150,120)"/><circle cx="150" cy="130" r="5" transform="rotate(0,150,130)"/><circle cx="150" cy="160" r="5" transform="rotate(0,150,160)"/><circle cx="150" cy="170" r="5" transform="rotate(0,150,170)"/><circle cx="150" cy="180" r="5" transform="rotate(0,150,180)"/><circle cx="150" cy="200" r="5" transform="rotate(0,150,200)"/><circle cx="150" cy="210" r="5" transform="rotate(0,150,210)"/><circle cx="150" cy="230" r="5" transform="rotate(0,150,230)"/><circle cx="150" cy="240" r="5" transform="rotate(0,150,240)"/><circle cx="150" cy="260" r="5" transform="rotate(0,150,260)"/><circle cx="150" cy="280" r="5" transform="rotate(0,150,280)"/><circle cx="150" cy="290" r="5" transform="rotate(0,150,290)"/><circle cx="160" cy="30" r="5" transform="rotate(0,160,30)"/><circle cx="160" cy="40" r="5" transform="rotate(0,160,40)"/><circle cx="160" cy="50" r="5" transform="rotate(0,160,50)"/><circle cx="160" cy="60" r="5" transform="rotate(0,160,60)"/><circle cx="160" cy="80" r="5" transform="rotate(0,160,80)"/><circle cx="160" cy="100" r="5" transform="rotate(0,160,100)"/><circle cx="160" cy="110" r="5" transform="rotate(0,160,110)"/><circle cx="160" cy="130" r="5" transform="rotate(0,160,130)"/><circle cx="160" cy="140" r="5" transform="rotate(0,160,140)"/><circle cx="160" cy="150" r="5" transform="rotate(0,160,150)"/><circle cx="160" cy="160" r="5" transform="rotate(0,160,160)"/><circle cx="160" cy="170" r="5" transform="rotate(0,160,170)"/><circle cx="160" cy="180" r="5" transform="rotate(0,160,180)"/><circle cx="160" cy="190" r="5" transform="rotate(0,160,190)"/><circle cx="160" cy="250" r="5" transform="rotate(0,160,250)"/><circle cx="160" cy="260" r="5" transform="rotate(0,160,260)"/><circle cx="160" cy="270" r="5" transform="rotate(0,160,270)"/><circle cx="160" cy="280" r="5" transform="rotate(0,160,280)"/><circle cx="160" cy="290" r="5" transform="rotate(0,160,290)"/><circle cx="170" cy="20" r="5" transform="rotate(0,170,20)"/><circle cx="170" cy="30" r="5" transform="rotate(0,170,30)"/><circle cx="170" cy="40" r="5" transform="rotate(0,170,40)"/><circle cx="170" cy="50" r="5" transform="rotate(0,170,50)"/><circle cx="170" cy="70" r="5" transform="rotate(0,170,70)"/><circle cx="170" cy="80" r="5" transform="rotate(0,170,80)"/><circle cx="170" cy="90" r="5" transform="rotate(0,170,90)"/><circle cx="170" cy="100" r="5" transform="rotate(0,170,100)"/><circle cx="170" cy="110" r="5" transform="rotate(0,170,110)"/><circle cx="170" cy="170" r="5" transform="rotate(0,170,170)"/><circle cx="170" cy="180" r="5" transform="rotate(0,170,180)"/><circle cx="170" cy="200" r="5" transform="rotate(0,170,200)"/><circle cx="170" cy="240" r="5" transform="rotate(0,170,240)"/><circle cx="170" cy="250" r="5" transform="rotate(0,170,250)"/><circle cx="170" cy="260" r="5" transform="rotate(0,170,260)"/><circle cx="170" cy="290" r="5" transform="rotate(0,170,290)"/><circle cx="180" cy="10" r="5" transform="rotate(0,180,10)"/><circle cx="180" cy="20" r="5" transform="rotate(0,180,20)"/><circle cx="180" cy="30" r="5" transform="rotate(0,180,30)"/><circle cx="180" cy="80" r="5" transform="rotate(0,180,80)"/><circle cx="180" cy="110" r="5" transform="rotate(0,180,110)"/><circle cx="180" cy="120" r="5" transform="rotate(0,180,120)"/><circle cx="180" cy="130" r="5" transform="rotate(0,180,130)"/><circle cx="180" cy="170" r="5" transform="rotate(0,180,170)"/><circle cx="180" cy="180" r="5" transform="rotate(0,180,180)"/><circle cx="180" cy="190" r="5" transform="rotate(0,180,190)"/><circle cx="180" cy="200" r="5" transform="rotate(0,180,200)"/><circle cx="180" cy="220" r="5" transform="rotate(0,180,220)"/><circle cx="180" cy="250" r="5" transform="rotate(0,180,250)"/><circle cx="190" cy="10" r="5" transform="rotate(0,190,10)"/><circle cx="190" cy="20" r="5" transform="rotate(0,190,20)"/><circle cx="190" cy="50" r="5" transform="rotate(0,190,50)"/><circle cx="190" cy="60" r="5" transform="rotate(0,190,60)"/><circle cx="190" cy="70" r="5" transform="rotate(0,190,70)"/><circle cx="190" cy="90" r="5" transform="rotate(0,190,90)"/><circle cx="190" cy="130" r="5" transform="rotate(0,190,130)"/><circle cx="190" cy="150" r="5" transform="rotate(0,190,150)"/><circle cx="190" cy="160" r="5" transform="rotate(0,190,160)"/><circle cx="190" cy="190" r="5" transform="rotate(0,190,190)"/><circle cx="190" cy="200" r="5" transform="rotate(0,190,200)"/><circle cx="190" cy="210" r="5" transform="rotate(0,190,210)"/><circle cx="190" cy="240" r="5" transform="rotate(0,190,240)"/><circle cx="190" cy="250" r="5" transform="rotate(0,190,250)"/><circle cx="190" cy="270" r="5" transform="rotate(0,190,270)"/><circle cx="190" cy="290" r="5" transform="rotate(0,190,290)"/><circle cx="200" cy="10" r="5" transform="rotate(0,200,10)"/><circle cx="200" cy="20" r="5" transform="rotate(0,200,20)"/><circle cx="200" cy="30" r="5" transform="rotate(0,200,30)"/><circle cx="200" cy="40" r="5" transform="rotate(0,200,40)"/><circle cx="200" cy="60" r="5" transform="rotate(0,200,60)"/><circle cx="200" cy="80" r="5" transform="rotate(0,200,80)"/><circle cx="200" cy="90" r="5" transform="rotate(0,200,90)"/><circle cx="200" cy="100" r="5" transform="rotate(0,200,100)"/><circle cx="200" cy="110" r="5" transform="rotate(0,200,110)"/><circle cx="200" cy="120" r="5" transform="rotate(0,200,120)"/><circle cx="200" cy="150" r="5" transform="rotate(0,200,150)"/><circle cx="200" cy="190" r="5" transform="rotate(0,200,190)"/><circle cx="200" cy="210" r="5" transform="rotate(0,200,210)"/><circle cx="200" cy="220" r="5" transform="rotate(0,200,220)"/><circle cx="200" cy="230" r="5" transform="rotate(0,200,230)"/><circle cx="200" cy="270" r="5" transform="rotate(0,200,270)"/><circle cx="200" cy="290" r="5" transform="rotate(0,200,290)"/><circle cx="210" cy="10" r="5" transform="rotate(0,210,10)"/><circle cx="210" cy="20" r="5" transform="rotate(0,210,20)"/><circle cx="210" cy="40" r="5" transform="rotate(0,210,40)"/><circle cx="210" cy="60" r="5" transform="rotate(0,210,60)"/><circle cx="210" cy="70" r="5" transform="rotate(0,210,70)"/><circle cx="210" cy="80" r="5" transform="rotate(0,210,80)"/><circle cx="210" cy="90" r="5" transform="rotate(0,210,90)"/><circle cx="210" cy="100" r="5" transform="rotate(0,210,100)"/><circle cx="210" cy="120" r="5" transform="rotate(0,210,120)"/><circle cx="210" cy="130" r="5" transform="rotate(0,210,130)"/><circle cx="210" cy="140" r="5" transform="rotate(0,210,140)"/><circle cx="210" cy="150" r="5" transform="rotate(0,210,150)"/><circle cx="210" cy="160" r="5" transform="rotate(0,210,160)"/><circle cx="210" cy="170" r="5" transform="rotate(0,210,170)"/><circle cx="210" cy="180" r="5" transform="rotate(0,210,180)"/><circle cx="210" cy="190" r="5" transform="rotate(0,210,190)"/><circle cx="210" cy="210" r="5" transform="rotate(0,210,210)"/><circle cx="210" cy="220" r="5" transform="rotate(0,210,220)"/><circle cx="210" cy="230" r="5" transform="rotate(0,210,230)"/><circle cx="210" cy="240" r="5" transform="rotate(0,210,240)"/><circle cx="210" cy="250" r="5" transform="rotate(0,210,250)"/><circle cx="210" cy="280" r="5" transform="rotate(0,210,280)"/><circle cx="220" cy="90" r="5" transform="rotate(0,220,90)"/><circle cx="220" cy="130" r="5" transform="rotate(0,220,130)"/><circle cx="220" cy="150" r="5" transform="rotate(0,220,150)"/><circle cx="220" cy="160" r="5" transform="rotate(0,220,160)"/><circle cx="220" cy="190" r="5" transform="rotate(0,220,190)"/><circle cx="220" cy="210" r="5" transform="rotate(0,220,210)"/><circle cx="220" cy="250" r="5" transform="rotate(0,220,250)"/><circle cx="220" cy="260" r="5" transform="rotate(0,220,260)"/><circle cx="220" cy="270" r="5" transform="rotate(0,220,270)"/><circle cx="230" cy="100" r="5" transform="rotate(0,230,100)"/><circle cx="230" cy="110" r="5" transform="rotate(0,230,110)"/><circle cx="230" cy="120" r="5" transform="rotate(0,230,120)"/><circle cx="230" cy="140" r="5" transform="rotate(0,230,140)"/><circle cx="230" cy="160" r="5" transform="rotate(0,230,160)"/><circle cx="230" cy="170" r="5" transform="rotate(0,230,170)"/><circle cx="230" cy="180" r="5" transform="rotate(0,230,180)"/><circle cx="230" cy="190" r="5" transform="rotate(0,230,190)"/><circle cx="230" cy="200" r="5" transform="rotate(0,230,200)"/><circle cx="230" cy="210" r="5" transform="rotate(0,230,210)"/><circle cx="230" cy="230" r="5" transform="rotate(0,230,230)"/><circle cx="230" cy="250" r="5" transform="rotate(0,230,250)"/><circle cx="230" cy="270" r="5" transform="rotate(0,230,270)"/><circle cx="240" cy="90" r="5" transform="rotate(0,240,90)"/><circle cx="240" cy="110" r="5" transform="rotate(0,240,110)"/><circle cx="240" cy="120" r="5" transform="rotate(0,240,120)"/><circle cx="240" cy="150" r="5" transform="rotate(0,240,150)"/><circle cx="240" cy="160" r="5" transform="rotate(0,240,160)"/><circle cx="240" cy="170" r="5" transform="rotate(0,240,170)"/><circle cx="240" cy="180" r="5" transform="rotate(0,240,180)"/><circle cx="240" cy="200" r="5" transform="rotate(0,240,200)"/><circle cx="240" cy="210" r="5" transform="rotate(0,240,210)"/><circle cx="240" cy="250" r="5" transform="rotate(0,240,250)"/><circle cx="240" cy="260" r="5" transform="rotate(0,240,260)"/><circle cx="240" cy="280" r="5" transform="rotate(0,240,280)"/><circle cx="250" cy="90" r="5" transform="rotate(0,250,90)"/><circle cx="250" cy="100" r="5" transform="rotate(0,250,100)"/><circle cx="250" cy="130" r="5" transform="rotate(0,250,130)"/><circle cx="250" cy="150" r="5" transform="rotate(0,250,150)"/><circle cx="250" cy="160" r="5" transform="rotate(0,250,160)"/><circle cx="250" cy="170" r="5" transform="rotate(0,250,170)"/><circle cx="250" cy="180" r="5" transform="rotate(0,250,180)"/><circle cx="250" cy="190" r="5" transform="rotate(0,250,190)"/><circle cx="250" cy="200" r="5" transform="rotate(0,250,200)"/><circle cx="250" cy="210" r="5" transform="rotate(0,250,210)"/><circle cx="250" cy="220" r="5" transform="rotate(0,250,220)"/><circle cx="250" cy="230" r="5" transform="rotate(0,250,230)"/><circle cx="250" cy="240" r="5" transform="rotate(0,250,240)"/><circle cx="250" cy="250" r="5" transform="rotate(0,250,250)"/><circle cx="260" cy="90" r="5" transform="rotate(0,260,90)"/><circle cx="260" cy="110" r="5" transform="rotate(0,260,110)"/><circle cx="260" cy="120" r="5" transform="rotate(0,260,120)"/><circle cx="260" cy="140" r="5" transform="rotate(0,260,140)"/><circle cx="260" cy="170" r="5" transform="rotate(0,260,170)"/><circle cx="260" cy="180" r="5" transform="rotate(0,260,180)"/><circle cx="260" cy="240" r="5" transform="rotate(0,260,240)"/><circle cx="260" cy="260" r="5" transform="rotate(0,260,260)"/><circle cx="260" cy="270" r="5" transform="rotate(0,260,270)"/><circle cx="260" cy="280" r="5" transform="rotate(0,260,280)"/><circle cx="270" cy="110" r="5" transform="rotate(0,270,110)"/><circle cx="270" cy="120" r="5" transform="rotate(0,270,120)"/><circle cx="270" cy="130" r="5" transform="rotate(0,270,130)"/><circle cx="270" cy="150" r="5" transform="rotate(0,270,150)"/><circle cx="270" cy="170" r="5" transform="rotate(0,270,170)"/><circle cx="270" cy="180" r="5" transform="rotate(0,270,180)"/><circle cx="270" cy="210" r="5" transform="rotate(0,270,210)"/><circle cx="270" cy="220" r="5" transform="rotate(0,270,220)"/><circle cx="270" cy="240" r="5" transform="rotate(0,270,240)"/><circle cx="270" cy="250" r="5" transform="rotate(0,270,250)"/><circle cx="270" cy="270" r="5" transform="rotate(0,270,270)"/><circle cx="270" cy="280" r="5" transform="rotate(0,270,280)"/><circle cx="270" cy="290" r="5" transform="rotate(0,270,290)"/><circle cx="280" cy="90" r="5" transform="rotate(0,280,90)"/><circle cx="280" cy="120" r="5" transform="rotate(0,280,120)"/><circle cx="280" cy="160" r="5" transform="rotate(0,280,160)"/><circle cx="280" cy="190" r="5" transform="rotate(0,280,190)"/><circle cx="280" cy="200" r="5" transform="rotate(0,280,200)"/><circle cx="280" cy="210" r="5" transform="rotate(0,280,210)"/><circle cx="280" cy="250" r="5" transform="rotate(0,280,250)"/><circle cx="280" cy="260" r="5" transform="rotate(0,280,260)"/><circle cx="280" cy="270" r="5" transform="rotate(0,280,270)"/><circle cx="280" cy="290" r="5" transform="rotate(0,280,290)"/><circle cx="290" cy="110" r="5" transform="rotate(0,290,110)"/><circle cx="290" cy="120" r="5" transform="rotate(0,290,120)"/><circle cx="290" cy="200" r="5" transform="rotate(0,290,200)"/><circle cx="290" cy="210" r="5" transform="rotate(0,290,210)"/><circle cx="290" cy="240" r="5" transform="rotate(0,290,240)"/><circle cx="290" cy="250" r="5" transform="rotate(0,290,250)"/><circle cx="290" cy="270" r="5" transform="rotate(0,290,270)"/></clipPath><linearGradient id="dot-color" gradientUnits="userSpaceOnUse" x1="5" y1="5" x2="295" y2="295"><stop offset="0%" stop-color="#7d1cfe"/><stop offset="100%" stop-color="#01d393"/></linearGradient></defs><rect x="5" y="5" height="290" width="290" clip-path="url('#clip-path-dot-color')" fill="url('#dot-color')"/><g class="corners-square-color-0-0"><path clip-rule="evenodd" d="M 5 30v 20a 25 25, 0, 0, 0, 25 25h 20a 25 25, 0, 0, 0, 25 -25v -20a 25 25, 0, 0, 0, -25 -25h -20a 25 25, 0, 0, 0, -25 25M 30 15h 20a 15 15, 0, 0, 1, 15 15v 20a 15 15, 0, 0, 1, -15 15h -20a 15 15, 0, 0, 1, -15 -15v -20a 15 15, 0, 0, 1, 15 -15" transform="rotate(0,40,40)"/></g><g class="corners-dot-color-0-0"><circle cx="40" cy="40" r="15" transform="rotate(0,40,40)"/></g><g class="corners-square-color-1-0"><path clip-rule="evenodd" d="M 225 30v 20a 25 25, 0, 0, 0, 25 25h 20a 25 25, 0, 0, 0, 25 -25v -20a 25 25, 0, 0, 0, -25 -25h -20a 25 25, 0, 0, 0, -25 25M 250 15h 20a 15 15, 0, 0, 1, 15 15v 20a 15 15, 0, 0, 1, -15 15h -20a 15 15, 0, 0, 1, -15 -15v -20a 15 15, 0, 0, 1, 15 -15" transform="rotate(90,260,40)"/></g><g class="corners-dot-color-1-0"><circle cx="260" cy="40" r="15" transform="rotate(90,260,40)"/></g><g class="corners-square-color-0-1"><path clip-rule="evenodd" d="M 5 250v 20a 25 25, 0, 0, 0, 25 25h 20a 25 25, 0, 0, 0, 25 -25v -20a 25 25, 0, 0, 0, -25 -25h -20a 25 25, 0, 0, 0, -25 25M 30 235h 20a 15 15, 0, 0, 1, 15 15v 20a 15 15, 0, 0, 1, -15 15h -20a 15 15, 0, 0, 1, -15 -15v -20a 15 15, 0, 0, 1, 15 -15" transform="rotate(-90,40,260)"/></g><g class="corners-dot-color-0-1"><circle cx="40" cy="260" r="15" transform="rotate(-90,40,260)"/></g></svg></g></svg></svg>