<svg width="100%" height="100%" viewBox="0 0 165 42" fill="none" xmlns="http://www.w3.org/2000/svg">
    <path fill-rule="evenodd" clip-rule="evenodd" d="M117.403 16.6999H121.573V12.6223H117.403V7.18384H112.887V12.6312H110.416V16.7088H112.887V26.7022C112.891 27.334 113.02 27.9586 113.266 28.5406C113.512 29.1225 113.87 29.6504 114.32 30.0939C114.769 30.5375 115.302 30.8881 115.888 31.1257C116.473 31.3634 117.099 31.4834 117.731 31.4789H121.573V27.3996H119.111C118.887 27.4012 118.665 27.3586 118.458 27.2743C118.251 27.1899 118.062 27.0655 117.903 26.9081C117.744 26.7507 117.617 26.5634 117.531 26.357C117.444 26.1507 117.4 25.9292 117.399 25.7054L117.403 24.7438V16.6999ZM58.3392 29.378C56.3525 27.5572 55.3592 25.1568 55.3594 22.177C55.3594 19.2445 56.3645 16.8086 58.3747 14.8694C60.3848 12.9301 62.9389 11.9606 66.0367 11.9608C68.5671 11.9608 70.7664 12.6229 72.6348 13.9472V18.1246L72.5993 18.096C70.4947 16.5118 68.3663 15.7196 66.2141 15.7194C64.2986 15.7194 62.7379 16.3225 61.5318 17.5285C60.9363 18.1218 60.4686 18.8308 60.1574 19.6117C59.8463 20.3926 59.6984 21.2289 59.7227 22.0692C59.7227 23.9848 60.3376 25.4865 61.5673 26.5744C62.8386 27.6927 64.4861 28.2884 66.1786 28.2416C68.3781 28.2416 70.5184 27.4612 72.5993 25.9002H72.6348V30.0508C70.6545 31.3804 68.3153 32.0735 65.9303 32.0372C62.8325 32.0378 60.3021 31.1514 58.3392 29.378ZM74.8586 22.0497C74.8354 20.718 75.0938 19.3963 75.617 18.1713C76.1402 16.9464 76.9163 15.8458 77.8944 14.9417C79.9137 13.0889 82.5546 12.0608 85.2952 12.0608C88.0358 12.0608 90.6767 13.0889 92.696 14.9417C93.6555 15.8602 94.4192 16.9635 94.9408 18.1851C95.4625 19.4066 95.7315 20.7212 95.7315 22.0495C95.7315 23.3778 95.4625 24.6923 94.9408 25.9139C94.4192 27.1354 93.6555 28.2387 92.696 29.1572C90.6766 31.0099 88.0357 32.0378 85.2952 32.0378C82.5547 32.0378 79.9138 31.0099 77.8944 29.1572C76.9164 28.2531 76.1404 27.1526 75.6172 25.9278C75.094 24.703 74.8355 23.3814 74.8586 22.0497ZM89.5088 26.2769C90.0656 25.7252 90.5041 25.0659 90.7977 24.3391C91.0913 23.6123 91.2337 22.8334 91.2164 22.0497C91.2036 20.877 90.8461 19.734 90.1883 18.763C89.5305 17.7921 88.6016 17.0361 87.5172 16.5894C86.4328 16.1427 85.2409 16.025 84.0901 16.2508C82.9393 16.4767 81.8804 17.0363 81.0453 17.8598C80.4984 18.4092 80.0685 19.0637 79.7815 19.7839C79.4945 20.504 79.3562 21.2748 79.3752 22.0497C79.3596 22.8299 79.4992 23.6053 79.7859 24.331C80.0727 25.0567 80.5007 25.7181 81.0453 26.2769C82.1891 27.3579 83.7032 27.9602 85.277 27.9602C86.8508 27.9602 88.365 27.3579 89.5088 26.2769ZM102.726 19.3562V31.5066L98.2096 31.508V17.3992C98.214 16.7675 98.3428 16.1428 98.5886 15.5609C98.8345 14.9789 99.1926 14.4511 99.6424 14.0075C100.092 13.564 100.625 13.2134 101.21 12.9758C101.796 12.7381 102.422 12.6181 103.054 12.6226H108.479V16.6999H104.434C104.21 16.6983 103.988 16.741 103.781 16.8254C103.573 16.9097 103.385 17.0342 103.226 17.1917C103.067 17.3491 102.94 17.5365 102.854 17.7429C102.767 17.9493 102.722 18.1708 102.722 18.3946L102.726 19.3562ZM133.579 11.9608C136.605 11.9608 138.911 12.9185 140.496 14.8339C141.986 16.6076 142.731 18.9253 142.731 21.7869L142.695 22.4962L142.624 23.2059H127.832C128.021 24.8375 128.683 26.1027 129.818 27.0014C130.954 27.9238 132.467 28.3849 134.359 28.3849C136.933 28.365 139.446 27.6011 141.595 26.1854H141.631V30.0522C139.388 31.3818 136.823 32.069 134.217 32.0386C130.741 32.0388 128.056 31.1283 126.164 29.3071C124.391 27.6043 123.504 25.3103 123.504 22.4253C123.504 19.3982 124.415 16.9032 126.235 14.9403C128.127 12.9539 130.575 11.9608 133.579 11.9608ZM133.472 15.508C132.16 15.4696 130.881 15.9254 129.889 16.7852C129.018 17.5594 128.399 18.5774 128.113 19.7072H138.549C138.415 18.6296 137.927 17.627 137.162 16.8561C136.215 15.9574 134.985 15.508 133.472 15.508ZM153.981 18.568L158.875 12.5285H164.465L156.776 22.0177L164.465 31.5069H158.875L153.981 25.4674L149.087 31.5069H143.496L151.185 22.0177L143.496 12.5285H149.087L153.981 18.568Z" fill="#ffffff"></path>
    <path d="M31.4284 30.7987C30.2728 29.6436 29.3561 28.272 28.7307 26.7625C28.1052 25.253 27.7833 23.6351 27.7833 22.0011C27.7833 20.3672 28.1052 18.7492 28.7307 17.2397C29.3561 15.7302 30.2728 14.3587 31.4284 13.2036L38.7558 5.87528L36.1269 3.24585L28.7987 10.5741C27.6435 11.7297 26.2719 12.6464 24.7624 13.2718C23.2529 13.8972 21.6349 14.2191 20.0009 14.2191C18.367 14.2191 16.749 13.8972 15.2395 13.2718C13.73 12.6464 12.3584 11.7297 11.2032 10.5741L3.87524 3.24585L1.24609 5.87528L8.57407 13.2033C10.9039 15.5385 12.2123 18.7025 12.2123 22.0011C12.2123 25.2998 10.9039 28.4638 8.57407 30.799L1.24609 38.1273L3.87524 40.7564L11.2032 33.4284C12.3584 32.2728 13.7299 31.3561 15.2394 30.7306C16.749 30.1051 18.367 29.7832 20.0009 29.7832C21.6349 29.7832 23.2529 30.1051 24.7624 30.7306C26.272 31.3561 27.6435 32.2728 28.7987 33.4284L36.1269 40.7564L38.7558 38.127L31.4278 30.799L31.4284 30.7987ZM20.0011 26.0647C18.5933 26.0641 17.1914 26.2468 15.8308 26.6082C15.7692 26.6244 15.7043 26.6242 15.6427 26.6075C15.5812 26.5909 15.525 26.5584 15.4799 26.5134C15.4348 26.4683 15.4023 26.4122 15.3856 26.3506C15.369 26.289 15.3687 26.2242 15.3849 26.1625C16.1057 23.4357 16.1057 20.5683 15.3849 17.8415C15.3686 17.7798 15.3688 17.7149 15.3855 17.6533C15.4021 17.5917 15.4346 17.5355 15.4797 17.4904C15.5249 17.4453 15.581 17.4129 15.6427 17.3963C15.7043 17.3797 15.7692 17.3795 15.8308 17.3958C18.564 18.1189 21.4382 18.1189 24.1713 17.3958C24.233 17.3795 24.2979 17.3797 24.3595 17.3963C24.4211 17.4129 24.4773 17.4454 24.5225 17.4905C24.5676 17.5355 24.6002 17.5917 24.6168 17.6533C24.6335 17.7149 24.6338 17.7797 24.6175 17.8415C23.8965 20.5683 23.8965 23.4357 24.6175 26.1625C24.6338 26.2242 24.6335 26.2891 24.6168 26.3507C24.6002 26.4123 24.5676 26.4684 24.5225 26.5135C24.4773 26.5586 24.4211 26.5911 24.3595 26.6077C24.2979 26.6243 24.233 26.6245 24.1713 26.6082C22.8107 26.2468 21.4089 26.0641 20.0011 26.0647Z" fill="#ffffff"></path>
    <path fill-rule="evenodd" clip-rule="evenodd" d="M12.6157 8.0137L13.9315 6.69799L12.6152 8.01169L9.23435 4.628L11.8658 2.0003L15.246 5.38311C16.5077 6.64196 18.2171 7.34895 19.9994 7.34895C21.7816 7.34895 23.4911 6.64196 24.7527 5.38311L28.1306 2L30.7621 4.6283L27.381 8.01199L26.0652 6.69799L27.381 8.0137C25.4214 9.96863 22.7664 11.0665 19.9984 11.0665C17.2304 11.0665 14.5754 9.96863 12.6157 8.0137ZM12.617 35.9899L9.23648 39.371L11.8656 41.9999L15.2465 38.6193C16.5082 37.3607 18.2176 36.6539 19.9998 36.6539C21.7819 36.6539 23.4914 37.3607 24.7531 38.6193L25.0646 38.3079L24.7531 38.6194L28.1337 42L30.763 39.3707L27.3824 35.9901L27.3823 35.9902C25.4232 34.0344 22.7682 32.9359 19.9999 32.9359C17.2316 32.9359 14.5764 34.0345 12.6173 35.9905L12.617 35.9899ZM4.69597 28.0693L6.01169 29.385C7.96676 27.4255 9.06473 24.7704 9.06473 22.0024C9.06473 19.2343 7.96676 16.5793 6.01169 14.6198L2.62915 11.2378L0 13.8672L3.3814 17.2478C4.63998 18.5096 5.34678 20.219 5.34678 22.0012C5.34678 23.7834 4.63998 25.4929 3.3814 26.7547L0.00057201 30.1352L2.62915 32.7647L6.00997 29.3841L4.69597 28.0693ZM34.6519 22.0012C34.6519 23.7835 35.3588 25.4929 36.6175 26.7547L40.0004 30.1341L37.3726 32.7655L33.9889 29.385L35.303 28.0693L33.9872 29.385C32.0313 27.4258 30.9327 24.7705 30.9327 22.0021C30.9327 19.2337 32.0313 16.5784 33.9872 14.6192L35.303 15.9349L33.9889 14.6192L37.3726 11.2363L40.0004 13.8678L36.6175 17.2478C35.3588 18.5095 34.6519 20.219 34.6519 22.0012Z" fill="#ffffff"></path>
</svg>