<svg id="svgQrWrapper" viewBox="0 0 300 300" xmlns="http://www.w3.org/2000/svg" xmlns:xlink="http://www.w3.org/1999/xlink" width="300" height="300" style="width: 100%; height: 100%; background-color: transparent;"><svg><g transform="translate(9, 9)scale(0.95)" fill="none"><svg width="300" height="300"><style>.background-color{ fill: #fff; }.corners-square-color-0-0{ fill: #ffffff; }.corners-dot-color-0-0{ fill: #ffffff; }.corners-square-color-1-0{ fill: #ffffff; }.corners-dot-color-1-0{ fill: #ffffff; }.corners-square-color-0-1{ fill: #ffffff; }.corners-dot-color-0-1{ fill: #ffffff; }</style><defs><clipPath id="clip-path-dot-color"><circle cx="10" cy="100" r="5" transform="rotate(0,10,100)"/><circle cx="10" cy="110" r="5" transform="rotate(0,10,110)"/><circle cx="10" cy="130" r="5" transform="rotate(0,10,130)"/><circle cx="10" cy="140" r="5" transform="rotate(0,10,140)"/><circle cx="10" cy="150" r="5" transform="rotate(0,10,150)"/><circle cx="10" cy="160" r="5" transform="rotate(0,10,160)"/><circle cx="10" cy="180" r="5" transform="rotate(0,10,180)"/><circle cx="10" cy="210" r="5" transform="rotate(0,10,210)"/><circle cx="20" cy="100" r="5" transform="rotate(0,20,100)"/><circle cx="20" cy="140" r="5" transform="rotate(0,20,140)"/><circle cx="20" cy="180" r="5" transform="rotate(0,20,180)"/><circle cx="20" cy="200" r="5" transform="rotate(0,20,200)"/><circle cx="20" cy="210" r="5" transform="rotate(0,20,210)"/><circle cx="30" cy="90" r="5" transform="rotate(0,30,90)"/><circle cx="30" cy="100" r="5" transform="rotate(0,30,100)"/><circle cx="30" cy="110" r="5" transform="rotate(0,30,110)"/><circle cx="30" cy="130" r="5" transform="rotate(0,30,130)"/><circle cx="30" cy="140" r="5" transform="rotate(0,30,140)"/><circle cx="30" cy="180" r="5" transform="rotate(0,30,180)"/><circle cx="30" cy="200" r="5" transform="rotate(0,30,200)"/><circle cx="30" cy="210" r="5" transform="rotate(0,30,210)"/><circle cx="40" cy="120" r="5" transform="rotate(0,40,120)"/><circle cx="40" cy="150" r="5" transform="rotate(0,40,150)"/><circle cx="40" cy="160" r="5" transform="rotate(0,40,160)"/><circle cx="40" cy="170" r="5" transform="rotate(0,40,170)"/><circle cx="40" cy="190" r="5" transform="rotate(0,40,190)"/><circle cx="50" cy="90" r="5" transform="rotate(0,50,90)"/><circle cx="50" cy="100" r="5" transform="rotate(0,50,100)"/><circle cx="50" cy="110" r="5" transform="rotate(0,50,110)"/><circle cx="50" cy="120" r="5" transform="rotate(0,50,120)"/><circle cx="50" cy="130" r="5" transform="rotate(0,50,130)"/><circle cx="50" cy="140" r="5" transform="rotate(0,50,140)"/><circle cx="50" cy="150" r="5" transform="rotate(0,50,150)"/><circle cx="50" cy="160" r="5" transform="rotate(0,50,160)"/><circle cx="50" cy="170" r="5" transform="rotate(0,50,170)"/><circle cx="50" cy="190" r="5" transform="rotate(0,50,190)"/><circle cx="50" cy="210" r="5" transform="rotate(0,50,210)"/><circle cx="60" cy="90" r="5" transform="rotate(0,60,90)"/><circle cx="60" cy="100" r="5" transform="rotate(0,60,100)"/><circle cx="60" cy="180" r="5" transform="rotate(0,60,180)"/><circle cx="60" cy="190" r="5" transform="rotate(0,60,190)"/><circle cx="60" cy="200" r="5" transform="rotate(0,60,200)"/><circle cx="60" cy="210" r="5" transform="rotate(0,60,210)"/><circle cx="70" cy="90" r="5" transform="rotate(0,70,90)"/><circle cx="70" cy="110" r="5" transform="rotate(0,70,110)"/><circle cx="70" cy="130" r="5" transform="rotate(0,70,130)"/><circle cx="70" cy="150" r="5" transform="rotate(0,70,150)"/><circle cx="70" cy="170" r="5" transform="rotate(0,70,170)"/><circle cx="70" cy="190" r="5" transform="rotate(0,70,190)"/><circle cx="70" cy="210" r="5" transform="rotate(0,70,210)"/><circle cx="80" cy="100" r="5" transform="rotate(0,80,100)"/><circle cx="80" cy="150" r="5" transform="rotate(0,80,150)"/><circle cx="80" cy="160" r="5" transform="rotate(0,80,160)"/><circle cx="80" cy="180" r="5" transform="rotate(0,80,180)"/><circle cx="80" cy="200" r="5" transform="rotate(0,80,200)"/><circle cx="90" cy="20" r="5" transform="rotate(0,90,20)"/><circle cx="90" cy="50" r="5" transform="rotate(0,90,50)"/><circle cx="90" cy="70" r="5" transform="rotate(0,90,70)"/><circle cx="90" cy="90" r="5" transform="rotate(0,90,90)"/><circle cx="90" cy="100" r="5" transform="rotate(0,90,100)"/><circle cx="90" cy="110" r="5" transform="rotate(0,90,110)"/><circle cx="90" cy="120" r="5" transform="rotate(0,90,120)"/><circle cx="90" cy="140" r="5" transform="rotate(0,90,140)"/><circle cx="90" cy="150" r="5" transform="rotate(0,90,150)"/><circle cx="90" cy="160" r="5" transform="rotate(0,90,160)"/><circle cx="90" cy="200" r="5" transform="rotate(0,90,200)"/><circle cx="90" cy="210" r="5" transform="rotate(0,90,210)"/><circle cx="90" cy="220" r="5" transform="rotate(0,90,220)"/><circle cx="90" cy="240" r="5" transform="rotate(0,90,240)"/><circle cx="90" cy="250" r="5" transform="rotate(0,90,250)"/><circle cx="90" cy="270" r="5" transform="rotate(0,90,270)"/><circle cx="100" cy="20" r="5" transform="rotate(0,100,20)"/><circle cx="100" cy="50" r="5" transform="rotate(0,100,50)"/><circle cx="100" cy="60" r="5" transform="rotate(0,100,60)"/><circle cx="100" cy="80" r="5" transform="rotate(0,100,80)"/><circle cx="100" cy="90" r="5" transform="rotate(0,100,90)"/><circle cx="100" cy="140" r="5" transform="rotate(0,100,140)"/><circle cx="100" cy="150" r="5" transform="rotate(0,100,150)"/><circle cx="100" cy="180" r="5" transform="rotate(0,100,180)"/><circle cx="100" cy="190" r="5" transform="rotate(0,100,190)"/><circle cx="100" cy="220" r="5" transform="rotate(0,100,220)"/><circle cx="100" cy="230" r="5" transform="rotate(0,100,230)"/><circle cx="100" cy="250" r="5" transform="rotate(0,100,250)"/><circle cx="100" cy="260" r="5" transform="rotate(0,100,260)"/><circle cx="100" cy="270" r="5" transform="rotate(0,100,270)"/><circle cx="100" cy="280" r="5" transform="rotate(0,100,280)"/><circle cx="100" cy="290" r="5" transform="rotate(0,100,290)"/><circle cx="110" cy="10" r="5" transform="rotate(0,110,10)"/><circle cx="110" cy="30" r="5" transform="rotate(0,110,30)"/><circle cx="110" cy="70" r="5" transform="rotate(0,110,70)"/><circle cx="110" cy="90" r="5" transform="rotate(0,110,90)"/><circle cx="110" cy="110" r="5" transform="rotate(0,110,110)"/><circle cx="110" cy="120" r="5" transform="rotate(0,110,120)"/><circle cx="110" cy="140" r="5" transform="rotate(0,110,140)"/><circle cx="110" cy="160" r="5" transform="rotate(0,110,160)"/><circle cx="110" cy="180" r="5" transform="rotate(0,110,180)"/><circle cx="110" cy="190" r="5" transform="rotate(0,110,190)"/><circle cx="110" cy="220" r="5" transform="rotate(0,110,220)"/><circle cx="110" cy="240" r="5" transform="rotate(0,110,240)"/><circle cx="110" cy="250" r="5" transform="rotate(0,110,250)"/><circle cx="110" cy="260" r="5" transform="rotate(0,110,260)"/><circle cx="110" cy="270" r="5" transform="rotate(0,110,270)"/><circle cx="110" cy="290" r="5" transform="rotate(0,110,290)"/><circle cx="120" cy="10" r="5" transform="rotate(0,120,10)"/><circle cx="120" cy="30" r="5" transform="rotate(0,120,30)"/><circle cx="120" cy="40" r="5" transform="rotate(0,120,40)"/><circle cx="120" cy="50" r="5" transform="rotate(0,120,50)"/><circle cx="120" cy="100" r="5" transform="rotate(0,120,100)"/><circle cx="120" cy="120" r="5" transform="rotate(0,120,120)"/><circle cx="120" cy="150" r="5" transform="rotate(0,120,150)"/><circle cx="120" cy="160" r="5" transform="rotate(0,120,160)"/><circle cx="120" cy="180" r="5" transform="rotate(0,120,180)"/><circle cx="120" cy="190" r="5" transform="rotate(0,120,190)"/><circle cx="120" cy="220" r="5" transform="rotate(0,120,220)"/><circle cx="120" cy="240" r="5" transform="rotate(0,120,240)"/><circle cx="120" cy="260" r="5" transform="rotate(0,120,260)"/><circle cx="120" cy="280" r="5" transform="rotate(0,120,280)"/><circle cx="120" cy="290" r="5" transform="rotate(0,120,290)"/><circle cx="130" cy="10" r="5" transform="rotate(0,130,10)"/><circle cx="130" cy="30" r="5" transform="rotate(0,130,30)"/><circle cx="130" cy="60" r="5" transform="rotate(0,130,60)"/><circle cx="130" cy="70" r="5" transform="rotate(0,130,70)"/><circle cx="130" cy="110" r="5" transform="rotate(0,130,110)"/><circle cx="130" cy="120" r="5" transform="rotate(0,130,120)"/><circle cx="130" cy="150" r="5" transform="rotate(0,130,150)"/><circle cx="130" cy="180" r="5" transform="rotate(0,130,180)"/><circle cx="130" cy="240" r="5" transform="rotate(0,130,240)"/><circle cx="130" cy="260" r="5" transform="rotate(0,130,260)"/><circle cx="130" cy="290" r="5" transform="rotate(0,130,290)"/><circle cx="140" cy="20" r="5" transform="rotate(0,140,20)"/><circle cx="140" cy="50" r="5" transform="rotate(0,140,50)"/><circle cx="140" cy="90" r="5" transform="rotate(0,140,90)"/><circle cx="140" cy="100" r="5" transform="rotate(0,140,100)"/><circle cx="140" cy="120" r="5" transform="rotate(0,140,120)"/><circle cx="140" cy="130" r="5" transform="rotate(0,140,130)"/><circle cx="140" cy="140" r="5" transform="rotate(0,140,140)"/><circle cx="140" cy="170" r="5" transform="rotate(0,140,170)"/><circle cx="140" cy="180" r="5" transform="rotate(0,140,180)"/><circle cx="140" cy="190" r="5" transform="rotate(0,140,190)"/><circle cx="140" cy="230" r="5" transform="rotate(0,140,230)"/><circle cx="140" cy="250" r="5" transform="rotate(0,140,250)"/><circle cx="140" cy="270" r="5" transform="rotate(0,140,270)"/><circle cx="140" cy="290" r="5" transform="rotate(0,140,290)"/><circle cx="150" cy="10" r="5" transform="rotate(0,150,10)"/><circle cx="150" cy="30" r="5" transform="rotate(0,150,30)"/><circle cx="150" cy="60" r="5" transform="rotate(0,150,60)"/><circle cx="150" cy="70" r="5" transform="rotate(0,150,70)"/><circle cx="150" cy="80" r="5" transform="rotate(0,150,80)"/><circle cx="150" cy="90" r="5" transform="rotate(0,150,90)"/><circle cx="150" cy="110" r="5" transform="rotate(0,150,110)"/><circle cx="150" cy="120" r="5" transform="rotate(0,150,120)"/><circle cx="150" cy="140" r="5" transform="rotate(0,150,140)"/><circle cx="150" cy="150" r="5" transform="rotate(0,150,150)"/><circle cx="150" cy="160" r="5" transform="rotate(0,150,160)"/><circle cx="150" cy="170" r="5" transform="rotate(0,150,170)"/><circle cx="150" cy="180" r="5" transform="rotate(0,150,180)"/><circle cx="150" cy="190" r="5" transform="rotate(0,150,190)"/><circle cx="150" cy="210" r="5" transform="rotate(0,150,210)"/><circle cx="150" cy="230" r="5" transform="rotate(0,150,230)"/><circle cx="150" cy="250" r="5" transform="rotate(0,150,250)"/><circle cx="150" cy="290" r="5" transform="rotate(0,150,290)"/><circle cx="160" cy="10" r="5" transform="rotate(0,160,10)"/><circle cx="160" cy="20" r="5" transform="rotate(0,160,20)"/><circle cx="160" cy="50" r="5" transform="rotate(0,160,50)"/><circle cx="160" cy="60" r="5" transform="rotate(0,160,60)"/><circle cx="160" cy="80" r="5" transform="rotate(0,160,80)"/><circle cx="160" cy="90" r="5" transform="rotate(0,160,90)"/><circle cx="160" cy="110" r="5" transform="rotate(0,160,110)"/><circle cx="160" cy="150" r="5" transform="rotate(0,160,150)"/><circle cx="160" cy="170" r="5" transform="rotate(0,160,170)"/><circle cx="160" cy="180" r="5" transform="rotate(0,160,180)"/><circle cx="160" cy="230" r="5" transform="rotate(0,160,230)"/><circle cx="160" cy="240" r="5" transform="rotate(0,160,240)"/><circle cx="160" cy="260" r="5" transform="rotate(0,160,260)"/><circle cx="160" cy="280" r="5" transform="rotate(0,160,280)"/><circle cx="170" cy="10" r="5" transform="rotate(0,170,10)"/><circle cx="170" cy="20" r="5" transform="rotate(0,170,20)"/><circle cx="170" cy="60" r="5" transform="rotate(0,170,60)"/><circle cx="170" cy="70" r="5" transform="rotate(0,170,70)"/><circle cx="170" cy="140" r="5" transform="rotate(0,170,140)"/><circle cx="170" cy="150" r="5" transform="rotate(0,170,150)"/><circle cx="170" cy="160" r="5" transform="rotate(0,170,160)"/><circle cx="170" cy="190" r="5" transform="rotate(0,170,190)"/><circle cx="170" cy="200" r="5" transform="rotate(0,170,200)"/><circle cx="170" cy="210" r="5" transform="rotate(0,170,210)"/><circle cx="170" cy="240" r="5" transform="rotate(0,170,240)"/><circle cx="170" cy="280" r="5" transform="rotate(0,170,280)"/><circle cx="170" cy="290" r="5" transform="rotate(0,170,290)"/><circle cx="180" cy="10" r="5" transform="rotate(0,180,10)"/><circle cx="180" cy="40" r="5" transform="rotate(0,180,40)"/><circle cx="180" cy="60" r="5" transform="rotate(0,180,60)"/><circle cx="180" cy="80" r="5" transform="rotate(0,180,80)"/><circle cx="180" cy="100" r="5" transform="rotate(0,180,100)"/><circle cx="180" cy="140" r="5" transform="rotate(0,180,140)"/><circle cx="180" cy="150" r="5" transform="rotate(0,180,150)"/><circle cx="180" cy="170" r="5" transform="rotate(0,180,170)"/><circle cx="180" cy="190" r="5" transform="rotate(0,180,190)"/><circle cx="180" cy="220" r="5" transform="rotate(0,180,220)"/><circle cx="180" cy="230" r="5" transform="rotate(0,180,230)"/><circle cx="180" cy="250" r="5" transform="rotate(0,180,250)"/><circle cx="180" cy="290" r="5" transform="rotate(0,180,290)"/><circle cx="190" cy="60" r="5" transform="rotate(0,190,60)"/><circle cx="190" cy="70" r="5" transform="rotate(0,190,70)"/><circle cx="190" cy="80" r="5" transform="rotate(0,190,80)"/><circle cx="190" cy="140" r="5" transform="rotate(0,190,140)"/><circle cx="190" cy="170" r="5" transform="rotate(0,190,170)"/><circle cx="190" cy="180" r="5" transform="rotate(0,190,180)"/><circle cx="190" cy="190" r="5" transform="rotate(0,190,190)"/><circle cx="190" cy="250" r="5" transform="rotate(0,190,250)"/><circle cx="190" cy="260" r="5" transform="rotate(0,190,260)"/><circle cx="190" cy="270" r="5" transform="rotate(0,190,270)"/><circle cx="190" cy="290" r="5" transform="rotate(0,190,290)"/><circle cx="200" cy="40" r="5" transform="rotate(0,200,40)"/><circle cx="200" cy="80" r="5" transform="rotate(0,200,80)"/><circle cx="200" cy="100" r="5" transform="rotate(0,200,100)"/><circle cx="200" cy="120" r="5" transform="rotate(0,200,120)"/><circle cx="200" cy="130" r="5" transform="rotate(0,200,130)"/><circle cx="200" cy="140" r="5" transform="rotate(0,200,140)"/><circle cx="200" cy="150" r="5" transform="rotate(0,200,150)"/><circle cx="200" cy="180" r="5" transform="rotate(0,200,180)"/><circle cx="200" cy="190" r="5" transform="rotate(0,200,190)"/><circle cx="200" cy="250" r="5" transform="rotate(0,200,250)"/><circle cx="200" cy="260" r="5" transform="rotate(0,200,260)"/><circle cx="200" cy="290" r="5" transform="rotate(0,200,290)"/><circle cx="210" cy="10" r="5" transform="rotate(0,210,10)"/><circle cx="210" cy="20" r="5" transform="rotate(0,210,20)"/><circle cx="210" cy="40" r="5" transform="rotate(0,210,40)"/><circle cx="210" cy="60" r="5" transform="rotate(0,210,60)"/><circle cx="210" cy="70" r="5" transform="rotate(0,210,70)"/><circle cx="210" cy="90" r="5" transform="rotate(0,210,90)"/><circle cx="210" cy="100" r="5" transform="rotate(0,210,100)"/><circle cx="210" cy="110" r="5" transform="rotate(0,210,110)"/><circle cx="210" cy="130" r="5" transform="rotate(0,210,130)"/><circle cx="210" cy="140" r="5" transform="rotate(0,210,140)"/><circle cx="210" cy="150" r="5" transform="rotate(0,210,150)"/><circle cx="210" cy="160" r="5" transform="rotate(0,210,160)"/><circle cx="210" cy="170" r="5" transform="rotate(0,210,170)"/><circle cx="210" cy="180" r="5" transform="rotate(0,210,180)"/><circle cx="210" cy="190" r="5" transform="rotate(0,210,190)"/><circle cx="210" cy="210" r="5" transform="rotate(0,210,210)"/><circle cx="210" cy="220" r="5" transform="rotate(0,210,220)"/><circle cx="210" cy="230" r="5" transform="rotate(0,210,230)"/><circle cx="210" cy="240" r="5" transform="rotate(0,210,240)"/><circle cx="210" cy="250" r="5" transform="rotate(0,210,250)"/><circle cx="210" cy="260" r="5" transform="rotate(0,210,260)"/><circle cx="210" cy="280" r="5" transform="rotate(0,210,280)"/><circle cx="210" cy="290" r="5" transform="rotate(0,210,290)"/><circle cx="220" cy="90" r="5" transform="rotate(0,220,90)"/><circle cx="220" cy="100" r="5" transform="rotate(0,220,100)"/><circle cx="220" cy="110" r="5" transform="rotate(0,220,110)"/><circle cx="220" cy="140" r="5" transform="rotate(0,220,140)"/><circle cx="220" cy="160" r="5" transform="rotate(0,220,160)"/><circle cx="220" cy="170" r="5" transform="rotate(0,220,170)"/><circle cx="220" cy="180" r="5" transform="rotate(0,220,180)"/><circle cx="220" cy="190" r="5" transform="rotate(0,220,190)"/><circle cx="220" cy="210" r="5" transform="rotate(0,220,210)"/><circle cx="220" cy="250" r="5" transform="rotate(0,220,250)"/><circle cx="220" cy="270" r="5" transform="rotate(0,220,270)"/><circle cx="220" cy="290" r="5" transform="rotate(0,220,290)"/><circle cx="230" cy="100" r="5" transform="rotate(0,230,100)"/><circle cx="230" cy="110" r="5" transform="rotate(0,230,110)"/><circle cx="230" cy="160" r="5" transform="rotate(0,230,160)"/><circle cx="230" cy="190" r="5" transform="rotate(0,230,190)"/><circle cx="230" cy="200" r="5" transform="rotate(0,230,200)"/><circle cx="230" cy="210" r="5" transform="rotate(0,230,210)"/><circle cx="230" cy="230" r="5" transform="rotate(0,230,230)"/><circle cx="230" cy="250" r="5" transform="rotate(0,230,250)"/><circle cx="230" cy="280" r="5" transform="rotate(0,230,280)"/><circle cx="230" cy="290" r="5" transform="rotate(0,230,290)"/><circle cx="240" cy="110" r="5" transform="rotate(0,240,110)"/><circle cx="240" cy="130" r="5" transform="rotate(0,240,130)"/><circle cx="240" cy="150" r="5" transform="rotate(0,240,150)"/><circle cx="240" cy="160" r="5" transform="rotate(0,240,160)"/><circle cx="240" cy="170" r="5" transform="rotate(0,240,170)"/><circle cx="240" cy="200" r="5" transform="rotate(0,240,200)"/><circle cx="240" cy="210" r="5" transform="rotate(0,240,210)"/><circle cx="240" cy="250" r="5" transform="rotate(0,240,250)"/><circle cx="240" cy="260" r="5" transform="rotate(0,240,260)"/><circle cx="240" cy="280" r="5" transform="rotate(0,240,280)"/><circle cx="250" cy="90" r="5" transform="rotate(0,250,90)"/><circle cx="250" cy="120" r="5" transform="rotate(0,250,120)"/><circle cx="250" cy="170" r="5" transform="rotate(0,250,170)"/><circle cx="250" cy="200" r="5" transform="rotate(0,250,200)"/><circle cx="250" cy="210" r="5" transform="rotate(0,250,210)"/><circle cx="250" cy="220" r="5" transform="rotate(0,250,220)"/><circle cx="250" cy="230" r="5" transform="rotate(0,250,230)"/><circle cx="250" cy="240" r="5" transform="rotate(0,250,240)"/><circle cx="250" cy="250" r="5" transform="rotate(0,250,250)"/><circle cx="260" cy="100" r="5" transform="rotate(0,260,100)"/><circle cx="260" cy="120" r="5" transform="rotate(0,260,120)"/><circle cx="260" cy="130" r="5" transform="rotate(0,260,130)"/><circle cx="260" cy="150" r="5" transform="rotate(0,260,150)"/><circle cx="260" cy="180" r="5" transform="rotate(0,260,180)"/><circle cx="260" cy="190" r="5" transform="rotate(0,260,190)"/><circle cx="260" cy="240" r="5" transform="rotate(0,260,240)"/><circle cx="260" cy="280" r="5" transform="rotate(0,260,280)"/><circle cx="270" cy="100" r="5" transform="rotate(0,270,100)"/><circle cx="270" cy="120" r="5" transform="rotate(0,270,120)"/><circle cx="270" cy="130" r="5" transform="rotate(0,270,130)"/><circle cx="270" cy="140" r="5" transform="rotate(0,270,140)"/><circle cx="270" cy="160" r="5" transform="rotate(0,270,160)"/><circle cx="270" cy="180" r="5" transform="rotate(0,270,180)"/><circle cx="270" cy="190" r="5" transform="rotate(0,270,190)"/><circle cx="270" cy="200" r="5" transform="rotate(0,270,200)"/><circle cx="270" cy="210" r="5" transform="rotate(0,270,210)"/><circle cx="270" cy="220" r="5" transform="rotate(0,270,220)"/><circle cx="270" cy="260" r="5" transform="rotate(0,270,260)"/><circle cx="270" cy="280" r="5" transform="rotate(0,270,280)"/><circle cx="270" cy="290" r="5" transform="rotate(0,270,290)"/><circle cx="280" cy="90" r="5" transform="rotate(0,280,90)"/><circle cx="280" cy="120" r="5" transform="rotate(0,280,120)"/><circle cx="280" cy="130" r="5" transform="rotate(0,280,130)"/><circle cx="280" cy="150" r="5" transform="rotate(0,280,150)"/><circle cx="280" cy="160" r="5" transform="rotate(0,280,160)"/><circle cx="280" cy="170" r="5" transform="rotate(0,280,170)"/><circle cx="280" cy="180" r="5" transform="rotate(0,280,180)"/><circle cx="280" cy="190" r="5" transform="rotate(0,280,190)"/><circle cx="280" cy="200" r="5" transform="rotate(0,280,200)"/><circle cx="280" cy="210" r="5" transform="rotate(0,280,210)"/><circle cx="280" cy="220" r="5" transform="rotate(0,280,220)"/><circle cx="280" cy="230" r="5" transform="rotate(0,280,230)"/><circle cx="280" cy="240" r="5" transform="rotate(0,280,240)"/><circle cx="280" cy="280" r="5" transform="rotate(0,280,280)"/><circle cx="280" cy="290" r="5" transform="rotate(0,280,290)"/><circle cx="290" cy="110" r="5" transform="rotate(0,290,110)"/><circle cx="290" cy="140" r="5" transform="rotate(0,290,140)"/><circle cx="290" cy="150" r="5" transform="rotate(0,290,150)"/><circle cx="290" cy="170" r="5" transform="rotate(0,290,170)"/><circle cx="290" cy="180" r="5" transform="rotate(0,290,180)"/><circle cx="290" cy="210" r="5" transform="rotate(0,290,210)"/><circle cx="290" cy="220" r="5" transform="rotate(0,290,220)"/><circle cx="290" cy="250" r="5" transform="rotate(0,290,250)"/><circle cx="290" cy="260" r="5" transform="rotate(0,290,260)"/><circle cx="290" cy="280" r="5" transform="rotate(0,290,280)"/></clipPath><linearGradient id="dot-color" gradientUnits="userSpaceOnUse" x1="5" y1="5" x2="295" y2="295"><stop offset="0%" stop-color="#7d1cfe"/><stop offset="100%" stop-color="#01d393"/></linearGradient></defs><rect x="5" y="5" height="290" width="290" clip-path="url('#clip-path-dot-color')" fill="url('#dot-color')"/><g class="corners-square-color-0-0"><path clip-rule="evenodd" d="M 5 30v 20a 25 25, 0, 0, 0, 25 25h 20a 25 25, 0, 0, 0, 25 -25v -20a 25 25, 0, 0, 0, -25 -25h -20a 25 25, 0, 0, 0, -25 25M 30 15h 20a 15 15, 0, 0, 1, 15 15v 20a 15 15, 0, 0, 1, -15 15h -20a 15 15, 0, 0, 1, -15 -15v -20a 15 15, 0, 0, 1, 15 -15" transform="rotate(0,40,40)"/></g><g class="corners-dot-color-0-0"><circle cx="40" cy="40" r="15" transform="rotate(0,40,40)"/></g><g class="corners-square-color-1-0"><path clip-rule="evenodd" d="M 225 30v 20a 25 25, 0, 0, 0, 25 25h 20a 25 25, 0, 0, 0, 25 -25v -20a 25 25, 0, 0, 0, -25 -25h -20a 25 25, 0, 0, 0, -25 25M 250 15h 20a 15 15, 0, 0, 1, 15 15v 20a 15 15, 0, 0, 1, -15 15h -20a 15 15, 0, 0, 1, -15 -15v -20a 15 15, 0, 0, 1, 15 -15" transform="rotate(90,260,40)"/></g><g class="corners-dot-color-1-0"><circle cx="260" cy="40" r="15" transform="rotate(90,260,40)"/></g><g class="corners-square-color-0-1"><path clip-rule="evenodd" d="M 5 250v 20a 25 25, 0, 0, 0, 25 25h 20a 25 25, 0, 0, 0, 25 -25v -20a 25 25, 0, 0, 0, -25 -25h -20a 25 25, 0, 0, 0, -25 25M 30 235h 20a 15 15, 0, 0, 1, 15 15v 20a 15 15, 0, 0, 1, -15 15h -20a 15 15, 0, 0, 1, -15 -15v -20a 15 15, 0, 0, 1, 15 -15" transform="rotate(-90,40,260)"/></g><g class="corners-dot-color-0-1"><circle cx="40" cy="260" r="15" transform="rotate(-90,40,260)"/></g></svg></g></svg></svg>