<svg xmlns="http://www.w3.org/2000/svg" xmlns:xlink="http://www.w3.org/1999/xlink" width="1920" zoomAndPan="magnify" viewBox="0 0 1440 809.999993" height="1080" preserveAspectRatio="xMidYMid meet" version="1.0"><defs><clipPath id="d403745b0c"><path d="M 81 81 L 1359 81 L 1359 729 L 81 729 Z M 81 81 " clip-rule="nonzero"/></clipPath><clipPath id="2a26b7248b"><path d="M 108 81 L 1332 81 C 1339.160156 81 1346.027344 83.84375 1351.089844 88.90625 C 1356.15625 93.972656 1359 100.839844 1359 108 L 1359 702 C 1359 709.160156 1356.15625 716.027344 1351.089844 721.09375 C 1346.027344 726.15625 1339.160156 729 1332 729 L 108 729 C 100.839844 729 93.972656 726.15625 88.90625 721.09375 C 83.84375 716.027344 81 709.160156 81 702 L 81 108 C 81 100.839844 83.84375 93.972656 88.90625 88.90625 C 93.972656 83.84375 100.839844 81 108 81 Z M 108 81 " clip-rule="nonzero"/></clipPath><clipPath id="c35d5fc14b"><path d="M 659.152344 22.144531 L 780.652344 22.144531 L 780.652344 139.894531 L 659.152344 139.894531 Z M 659.152344 22.144531 " clip-rule="nonzero"/></clipPath></defs><g clip-path="url(#d403745b0c)"><g clip-path="url(#2a26b7248b)"><path stroke-linecap="butt" transform="matrix(0.75, 0, 0, 0.75, 81.000024, 81.000016)" fill="none" stroke-linejoin="miter" d="M 35.99997 -0.0000212333 L 1668.000052 -0.0000212333 C 1677.546928 -0.0000212333 1686.703178 3.791646 1693.458387 10.541646 C 1700.208387 17.296855 1704.000054 26.453105 1704.000054 35.999981 L 1704.000054 828.00002 C 1704.000054 837.546896 1700.208387 846.703146 1693.458387 853.458355 C 1686.703178 860.208355 1677.546928 864.000022 1668.000052 864.000022 L 35.99997 864.000022 C 26.453095 864.000022 17.296844 860.208355 10.541636 853.458355 C 3.791635 846.703146 -0.000031663 837.546896 -0.000031663 828.00002 L -0.000031663 35.999981 C -0.000031663 26.453105 3.791635 17.296855 10.541636 10.541646 C 17.296844 3.791646 26.453095 -0.0000212333 35.99997 -0.0000212333 Z M 35.99997 -0.0000212333 " stroke="#ffffff" stroke-width="12" stroke-opacity="1" stroke-miterlimit="4"/></g></g><g clip-path="url(#c35d5fc14b)"><path fill="#326ce5" d="M 719.527344 22.140625 C 718.433594 22.203125 717.398438 22.480469 716.421875 22.964844 L 674.367188 43.0625 C 672.171875 44.109375 670.574219 46.101562 670.027344 48.476562 L 659.734375 93.582031 C 659.242188 95.699219 659.640625 97.917969 660.867188 99.734375 C 661.007812 99.953125 661.160156 100.164062 661.320312 100.367188 L 690.375 136.566406 C 691.910156 138.453125 694.214844 139.539062 696.644531 139.527344 L 743.246094 139.527344 C 745.683594 139.53125 747.992188 138.394531 749.523438 136.53125 L 778.5625 100.328125 C 780.085938 98.4375 780.65625 95.941406 780.070312 93.574219 L 769.710938 48.429688 C 769.164062 46.054688 767.558594 44.0625 765.371094 43.015625 L 723.386719 22.96875 C 722.15625 22.359375 720.859375 22.085938 719.488281 22.140625 Z M 719.527344 22.140625 " fill-opacity="1" fill-rule="nonzero"/></g><path stroke-linecap="butt" transform="matrix(3.773292, 0, 0, 3.78062, 659.530629, 20.340726)" fill-opacity="1" fill="#ffffff" fill-rule="nonzero" stroke-linejoin="miter" d="M 16.001818 4.541846 C 15.617745 4.56871 15.326844 4.89831 15.346513 5.281639 L 15.346513 5.469687 C 15.365147 5.682532 15.39724 5.894344 15.438649 6.103057 C 15.500763 6.50395 15.522503 6.907943 15.504904 7.312969 C 15.466601 7.446256 15.391028 7.56611 15.287505 7.658068 L 15.271976 7.94014 C 14.867198 7.974236 14.464491 8.03623 14.069031 8.126121 C 12.403335 8.502217 10.885678 9.365997 9.714826 10.611039 L 9.474651 10.440556 C 9.343176 10.480852 9.201348 10.466387 9.080225 10.401294 C 8.754126 10.160551 8.455978 9.889845 8.182675 9.591241 C 8.046024 9.427991 7.901091 9.273006 7.745805 9.126288 L 7.597767 9.008499 C 7.466291 8.902077 7.303759 8.841116 7.135016 8.83285 C 7.032527 8.827684 6.935215 8.845249 6.841009 8.887612 C 6.747837 8.928941 6.668124 8.989901 6.603939 9.06946 C 6.378258 9.385628 6.45176 9.824751 6.767507 10.052062 L 6.906228 10.161584 C 7.084289 10.280406 7.267526 10.387862 7.45801 10.484985 C 7.812061 10.682332 8.146442 10.912742 8.455978 11.185515 C 8.536726 11.300204 8.581241 11.428324 8.588488 11.568843 L 8.806923 11.76929 C 7.629859 13.53508 7.147439 15.673866 7.448692 17.775456 L 7.169179 17.855015 C 7.095677 17.970737 6.9994 18.069927 6.883453 18.143286 C 6.491099 18.247642 6.093568 18.312736 5.68879 18.3396 C 5.474496 18.344766 5.261237 18.361298 5.049014 18.390228 L 4.871988 18.429491 L 4.852319 18.429491 C 4.727055 18.447056 4.61525 18.496651 4.517937 18.577243 C 4.420625 18.656802 4.351264 18.757025 4.309855 18.87688 C 4.269481 18.996734 4.262234 19.117622 4.290185 19.24161 C 4.318137 19.364564 4.37611 19.47202 4.46514 19.561911 C 4.554171 19.651802 4.6608 19.711729 4.783993 19.741693 C 4.907186 19.771657 5.028309 19.766491 5.149432 19.727228 L 5.161855 19.727228 L 5.341986 19.706563 C 5.544892 19.646636 5.744693 19.573277 5.940353 19.488552 C 6.315108 19.338733 6.704357 19.224045 7.101888 19.148619 C 7.239575 19.156885 7.372085 19.204413 7.483891 19.283972 L 7.784109 19.234377 C 8.434238 21.251242 9.799715 22.960205 11.623802 24.03683 L 11.501644 24.292038 C 11.557547 24.408793 11.579287 24.53898 11.561688 24.668134 C 11.397085 25.050429 11.195214 25.416192 10.95918 25.760258 C 10.829775 25.930741 10.709688 26.108457 10.600988 26.293405 L 10.516099 26.473187 C 10.452949 26.581676 10.422927 26.699464 10.427068 26.825518 C 10.430174 26.951572 10.466407 27.067294 10.534733 27.172684 C 10.603059 27.278073 10.694159 27.357632 10.808035 27.412393 C 10.920876 27.466121 11.040964 27.486785 11.166227 27.474387 C 11.291491 27.459921 11.404332 27.414459 11.503715 27.335934 C 11.603097 27.258442 11.674529 27.160285 11.719044 27.042497 L 11.801863 26.872014 C 11.87847 26.671567 11.94162 26.468021 11.994417 26.262408 C 12.171442 25.825352 12.266684 25.356265 12.508929 25.065927 C 12.589678 24.989468 12.68492 24.942973 12.794655 24.926441 L 12.944764 24.652635 C 13.435466 24.841717 13.938591 24.984302 14.454139 25.080393 C 14.970722 25.176483 15.491446 25.226078 16.016311 25.227111 C 16.542211 25.228145 17.062935 25.181649 17.579519 25.087625 C 18.096102 24.993601 18.600262 24.854115 19.090964 24.668134 L 19.22451 24.923342 C 19.360126 24.942973 19.482284 25.018399 19.564067 25.127921 C 19.75248 25.486452 19.903625 25.861515 20.019571 26.247943 C 20.073404 26.455622 20.137588 26.659168 20.214196 26.858582 L 20.297015 27.029065 C 20.34153 27.146853 20.413997 27.243976 20.513379 27.321469 C 20.612762 27.398961 20.724568 27.444423 20.849831 27.458888 C 20.975095 27.47232 21.095182 27.452689 21.209058 27.398961 C 21.322934 27.345233 21.41507 27.265674 21.484431 27.160285 C 21.552757 27.053862 21.587955 26.93814 21.591061 26.812086 C 21.594166 26.686032 21.563109 26.568244 21.49996 26.458722 L 21.413 26.27894 C 21.3043 26.095025 21.184213 25.918342 21.054808 25.747859 C 20.824986 25.416192 20.627255 25.061795 20.455406 24.690865 C 20.421243 24.548279 20.444018 24.414993 20.522696 24.291005 C 20.480252 24.20318 20.442983 24.114323 20.411926 24.022365 C 22.231872 22.937474 23.592173 21.222312 24.235055 19.202347 L 24.51871 19.251942 C 24.621198 19.158951 24.754744 19.11039 24.89243 19.113489 C 25.288926 19.189948 25.678175 19.313936 26.053966 19.454455 C 26.248591 19.544346 26.449426 19.619772 26.652333 19.683832 C 26.699954 19.697264 26.77035 19.707596 26.824182 19.721028 L 26.836605 19.721028 C 26.957728 19.760291 27.07885 19.764424 27.202043 19.73446 C 27.324201 19.704497 27.430831 19.644569 27.519861 19.554678 C 27.607856 19.464787 27.666865 19.357332 27.695851 19.234377 C 27.723803 19.111423 27.718627 18.989502 27.678252 18.869647 C 27.636843 18.749792 27.567482 18.650602 27.469135 18.57001 C 27.370787 18.489418 27.260017 18.440856 27.133718 18.424325 L 26.940129 18.377829 C 26.727905 18.348899 26.514646 18.332367 26.300352 18.328234 C 25.895575 18.302404 25.495973 18.236277 25.105689 18.130887 C 24.985602 18.063727 24.886219 17.963504 24.817893 17.842616 L 24.547697 17.763058 C 24.619128 17.24231 24.642938 16.719495 24.619128 16.194614 C 24.595318 15.669733 24.523886 15.151052 24.405869 14.639603 C 24.286817 14.127121 24.12325 13.630137 23.914132 13.147619 C 23.706049 12.666134 23.454487 12.206346 23.161515 11.770323 L 23.397549 11.552312 C 23.388232 11.414892 23.432747 11.278506 23.521777 11.17415 C 23.829242 10.909643 24.161553 10.677166 24.512499 10.477753 C 24.701947 10.380629 24.886219 10.273173 25.06428 10.155385 L 25.210248 10.036563 C 25.319983 9.969403 25.402802 9.876413 25.45974 9.760691 C 25.515643 9.644969 25.536348 9.522015 25.52289 9.393894 C 25.508396 9.265774 25.460775 9.151085 25.381062 9.049829 C 25.300314 8.949605 25.198861 8.877279 25.076703 8.834917 C 24.95558 8.792554 24.831351 8.786355 24.706088 8.815285 C 24.579789 8.844216 24.472124 8.904143 24.381024 8.996101 L 24.232985 9.113889 C 24.078734 9.260608 23.932766 9.415592 23.796115 9.578842 C 23.532129 9.880546 23.240193 10.156418 22.92341 10.402327 C 22.79297 10.455021 22.657354 10.469487 22.518633 10.445722 L 22.266035 10.625504 C 20.806351 9.096324 18.839402 8.145752 16.730625 7.955638 C 16.730625 7.856448 16.718202 7.705596 16.716131 7.659101 C 16.60329 7.580576 16.523577 7.461754 16.497696 7.327434 C 16.484238 6.922408 16.509084 6.519448 16.574304 6.119588 C 16.616748 5.909843 16.64677 5.700097 16.66644 5.487251 L 16.66644 5.286805 C 16.686109 4.903476 16.396243 4.573876 16.011135 4.547012 Z M 15.168452 9.707996 L 14.967616 13.201347 L 14.953123 13.201347 C 14.942771 13.417292 14.816472 13.601207 14.620812 13.70453 C 14.426188 13.808886 14.19533 13.777889 14.02141 13.650802 L 11.155875 11.620505 C 11.612414 11.173116 12.120716 10.795987 12.681814 10.491185 C 13.242912 10.185348 13.835068 9.962171 14.459315 9.821651 C 14.693279 9.772056 14.929313 9.733827 15.166382 9.707996 Z M 16.836219 9.707996 C 18.341453 9.895011 19.742128 10.570743 20.826021 11.63187 L 17.988437 13.648736 C 17.813482 13.789255 17.573307 13.817152 17.370401 13.721062 C 17.167494 13.624971 17.037055 13.421425 17.033949 13.197214 Z M 10.116497 12.934774 L 12.735646 15.272973 L 12.735646 15.288472 C 12.899214 15.430024 12.96961 15.651135 12.921989 15.861914 C 12.874368 16.072693 12.711836 16.240076 12.504788 16.296904 L 12.504788 16.307236 L 9.143375 17.27434 C 9.059521 16.516982 9.101965 15.765824 9.268639 15.022931 C 9.435312 14.279006 9.717931 13.583642 10.116497 12.93374 Z M 21.868504 12.934774 C 22.664601 14.230444 23.016582 15.749292 22.870613 17.261941 L 19.504024 16.291738 L 19.504024 16.279339 C 19.293871 16.222512 19.134444 16.055128 19.086823 15.844349 C 19.040238 15.632537 19.109598 15.413492 19.273166 15.269873 L 21.872645 12.943039 Z M 15.46453 15.454822 L 16.537035 15.454822 L 17.19234 16.286572 L 16.954236 17.327034 L 15.991466 17.789922 L 15.02559 17.327034 L 14.798873 16.286572 Z M 18.899445 18.293105 C 18.943961 18.287938 18.998828 18.287938 19.034026 18.293105 L 22.501034 18.877913 C 22.001014 20.318235 21.014434 21.547779 19.725564 22.371264 L 18.385968 19.126921 C 18.367334 19.083526 18.354911 19.038063 18.346629 18.991568 C 18.339382 18.945073 18.337312 18.898577 18.341453 18.851049 C 18.344558 18.80352 18.353876 18.758058 18.368369 18.713629 C 18.383897 18.668167 18.403567 18.625805 18.428413 18.585509 C 18.453258 18.545213 18.482245 18.50905 18.516408 18.475986 C 18.549535 18.442923 18.586804 18.413992 18.628213 18.390228 C 18.668588 18.365431 18.711032 18.346833 18.756583 18.333401 C 18.802133 18.318935 18.847684 18.310669 18.895304 18.30757 Z M 13.076239 18.30757 C 13.271899 18.310669 13.453065 18.411926 13.559695 18.57621 C 13.667359 18.740493 13.683923 18.946106 13.607315 19.125888 L 13.607315 19.13932 L 12.274966 22.356798 C 10.999554 21.539513 10.031608 20.325468 9.517095 18.899611 L 12.954081 18.316869 C 12.992385 18.312736 13.030689 18.312736 13.070028 18.316869 Z M 15.980078 19.707596 C 16.091883 19.704497 16.195407 19.730328 16.291684 19.786122 C 16.388996 19.840883 16.463533 19.918375 16.517366 20.015499 L 16.529789 20.015499 L 18.224471 23.072827 L 17.547426 23.273273 C 16.301001 23.558445 14.999709 23.491285 13.789517 23.079026 L 15.489376 20.021698 C 15.591864 19.841916 15.782348 19.732394 15.989395 19.727228 Z M 15.980078 19.707596 " stroke="#ffffff" stroke-width="0.055" stroke-opacity="1" stroke-miterlimit="4"/></svg>