<svg xmlns="http://www.w3.org/2000/svg" xmlns:xlink="http://www.w3.org/1999/xlink" width="1920" zoomAndPan="magnify" viewBox="0 0 1440 809.999993" height="1080" preserveAspectRatio="xMidYMid meet" version="1.0"><defs><g/><clipPath id="898fab1dd9"><path d="M 81 81 L 1359 81 L 1359 729 L 81 729 Z M 81 81 " clip-rule="nonzero"/></clipPath><clipPath id="51a1441540"><path d="M 108 81 L 1332 81 C 1339.160156 81 1346.027344 83.84375 1351.089844 88.90625 C 1356.15625 93.972656 1359 100.839844 1359 108 L 1359 702 C 1359 709.160156 1356.15625 716.027344 1351.089844 721.09375 C 1346.027344 726.15625 1339.160156 729 1332 729 L 108 729 C 100.839844 729 93.972656 726.15625 88.90625 721.09375 C 83.84375 716.027344 81 709.160156 81 702 L 81 108 C 81 100.839844 83.84375 93.972656 88.90625 88.90625 C 93.972656 83.84375 100.839844 81 108 81 Z M 108 81 " clip-rule="nonzero"/></clipPath><clipPath id="4035e68b65"><path d="M 659.152344 22.144531 L 780.652344 22.144531 L 780.652344 139.894531 L 659.152344 139.894531 Z M 659.152344 22.144531 " clip-rule="nonzero"/></clipPath><clipPath id="6808605f0d"><path d="M 871.917969 115.707031 L 1259.667969 115.707031 L 1259.667969 389.457031 L 871.917969 389.457031 Z M 871.917969 115.707031 " clip-rule="nonzero"/></clipPath><clipPath id="4562ede654"><path d="M 910.148438 115.707031 L 1221.4375 115.707031 C 1231.578125 115.707031 1241.300781 119.742188 1248.472656 126.921875 C 1255.640625 134.101562 1259.667969 143.839844 1259.667969 153.992188 L 1259.667969 351.171875 C 1259.667969 361.328125 1255.640625 371.066406 1248.472656 378.246094 C 1241.300781 385.425781 1231.578125 389.457031 1221.4375 389.457031 L 910.148438 389.457031 C 900.007812 389.457031 890.285156 385.425781 883.117188 378.246094 C 875.945312 371.066406 871.917969 361.328125 871.917969 351.171875 L 871.917969 153.992188 C 871.917969 143.839844 875.945312 134.101562 883.117188 126.921875 C 890.285156 119.742188 900.007812 115.707031 910.148438 115.707031 Z M 910.148438 115.707031 " clip-rule="nonzero"/></clipPath></defs><g clip-path="url(#898fab1dd9)"><g clip-path="url(#51a1441540)"><path stroke-linecap="butt" transform="matrix(0.75, 0, 0, 0.75, 81.000024, 81.000016)" fill="none" stroke-linejoin="miter" d="M 35.99997 -0.0000212333 L 1668.000052 -0.0000212333 C 1677.546928 -0.0000212333 1686.703178 3.791646 1693.458387 10.541646 C 1700.208387 17.296855 1704.000054 26.453105 1704.000054 35.999981 L 1704.000054 828.00002 C 1704.000054 837.546896 1700.208387 846.703146 1693.458387 853.458355 C 1686.703178 860.208355 1677.546928 864.000022 1668.000052 864.000022 L 35.99997 864.000022 C 26.453095 864.000022 17.296844 860.208355 10.541636 853.458355 C 3.791635 846.703146 -0.000031663 837.546896 -0.000031663 828.00002 L -0.000031663 35.999981 C -0.000031663 26.453105 3.791635 17.296855 10.541636 10.541646 C 17.296844 3.791646 26.453095 -0.0000212333 35.99997 -0.0000212333 Z M 35.99997 -0.0000212333 " stroke="#ffffff" stroke-width="12" stroke-opacity="1" stroke-miterlimit="4"/></g></g><g clip-path="url(#4035e68b65)"><path fill="#326ce5" d="M 719.527344 22.140625 C 718.433594 22.203125 717.398438 22.480469 716.421875 22.964844 L 674.367188 43.0625 C 672.171875 44.109375 670.574219 46.101562 670.027344 48.476562 L 659.734375 93.582031 C 659.242188 95.699219 659.640625 97.917969 660.867188 99.734375 C 661.007812 99.953125 661.160156 100.164062 661.320312 100.367188 L 690.375 136.566406 C 691.910156 138.453125 694.214844 139.539062 696.644531 139.527344 L 743.246094 139.527344 C 745.683594 139.53125 747.992188 138.394531 749.523438 136.53125 L 778.5625 100.328125 C 780.085938 98.4375 780.65625 95.941406 780.070312 93.574219 L 769.710938 48.429688 C 769.164062 46.054688 767.558594 44.0625 765.371094 43.015625 L 723.386719 22.96875 C 722.15625 22.359375 720.859375 22.085938 719.488281 22.140625 Z M 719.527344 22.140625 " fill-opacity="1" fill-rule="nonzero"/></g><path stroke-linecap="butt" transform="matrix(3.773292, 0, 0, 3.78062, 659.530629, 20.340757)" fill-opacity="1" fill="#ffffff" fill-rule="nonzero" stroke-linejoin="miter" d="M 16.001818 4.541838 C 15.617745 4.568702 15.326844 4.898302 15.346513 5.28163 L 15.346513 5.469678 C 15.365147 5.682524 15.39724 5.894336 15.438649 6.103048 C 15.500763 6.503942 15.522503 6.907934 15.504904 7.312961 C 15.466601 7.446247 15.391028 7.566102 15.287505 7.65806 L 15.271976 7.940131 C 14.867198 7.974228 14.464491 8.036222 14.069031 8.126113 C 12.403335 8.502208 10.885678 9.365989 9.714826 10.611031 L 9.474651 10.440548 C 9.343176 10.480844 9.201348 10.466379 9.080225 10.401285 C 8.754126 10.160543 8.455978 9.889836 8.182675 9.591233 C 8.046024 9.427983 7.901091 9.272998 7.745805 9.126279 L 7.597767 9.008491 C 7.466291 8.902068 7.303759 8.841108 7.135016 8.832842 C 7.032527 8.827676 6.935215 8.845241 6.841009 8.887603 C 6.747837 8.928932 6.668124 8.989893 6.603939 9.069452 C 6.378258 9.38562 6.45176 9.824743 6.767507 10.052054 L 6.906228 10.161576 C 7.084289 10.280397 7.267526 10.387853 7.45801 10.484977 C 7.812061 10.682324 8.146442 10.912734 8.455978 11.185507 C 8.536726 11.300195 8.581241 11.428316 8.588488 11.568835 L 8.806923 11.769282 C 7.629859 13.535072 7.147439 15.673858 7.448692 17.775448 L 7.169179 17.855007 C 7.095677 17.970729 6.9994 18.069919 6.883453 18.143278 C 6.491099 18.247634 6.093568 18.312728 5.68879 18.339592 C 5.474496 18.344758 5.261237 18.361289 5.049014 18.39022 L 4.871988 18.429483 L 4.852319 18.429483 C 4.727055 18.447048 4.61525 18.496643 4.517937 18.577235 C 4.420625 18.656793 4.351264 18.757017 4.309855 18.876871 C 4.269481 18.996726 4.262234 19.117614 4.290185 19.241601 C 4.318137 19.364556 4.37611 19.472012 4.46514 19.561903 C 4.554171 19.651794 4.6608 19.711721 4.783993 19.741685 C 4.907186 19.771648 5.028309 19.766482 5.149432 19.72722 L 5.161855 19.72722 L 5.341986 19.706555 C 5.544892 19.646628 5.744693 19.573268 5.940353 19.488543 C 6.315108 19.338725 6.704357 19.224037 7.101888 19.148611 C 7.239575 19.156877 7.372085 19.204405 7.483891 19.283964 L 7.784109 19.234369 C 8.434238 21.251234 9.799715 22.960196 11.623802 24.036822 L 11.501644 24.29203 C 11.557547 24.408785 11.579287 24.538972 11.561688 24.668126 C 11.397085 25.050421 11.195214 25.416184 10.95918 25.76025 C 10.829775 25.930733 10.709688 26.108448 10.600988 26.293397 L 10.516099 26.473179 C 10.452949 26.581668 10.422927 26.699456 10.427068 26.82551 C 10.430174 26.951564 10.466407 27.067286 10.534733 27.172675 C 10.603059 27.278065 10.694159 27.357623 10.808035 27.412385 C 10.920876 27.466113 11.040964 27.486777 11.166227 27.474378 C 11.291491 27.459913 11.404332 27.414451 11.503715 27.335926 C 11.603097 27.258433 11.674529 27.160277 11.719044 27.042488 L 11.801863 26.872005 C 11.87847 26.671559 11.94162 26.468012 11.994417 26.2624 C 12.171442 25.825343 12.266684 25.356257 12.508929 25.065919 C 12.589678 24.98946 12.68492 24.942965 12.794655 24.926433 L 12.944764 24.652627 C 13.435466 24.841708 13.938591 24.984294 14.454139 25.080384 C 14.970722 25.176475 15.491446 25.22607 16.016311 25.227103 C 16.542211 25.228136 17.062935 25.181641 17.579519 25.087617 C 18.096102 24.993593 18.600262 24.854107 19.090964 24.668126 L 19.22451 24.923333 C 19.360126 24.942965 19.482284 25.018391 19.564067 25.127913 C 19.75248 25.486444 19.903625 25.861506 20.019571 26.247934 C 20.073404 26.455614 20.137588 26.65916 20.214196 26.858573 L 20.297015 27.029056 C 20.34153 27.146845 20.413997 27.245001 20.513379 27.32146 C 20.612762 27.398953 20.724568 27.444415 20.849831 27.45888 C 20.975095 27.472312 21.095182 27.452681 21.209058 27.398953 C 21.322934 27.345225 21.41507 27.265666 21.484431 27.160277 C 21.552757 27.053854 21.587955 26.938132 21.591061 26.812078 C 21.594166 26.686024 21.563109 26.568236 21.49996 26.458713 L 21.413 26.278931 C 21.3043 26.095016 21.184213 25.918334 21.054808 25.747851 C 20.824986 25.416184 20.627255 25.061786 20.455406 24.690857 C 20.421243 24.548271 20.444018 24.414984 20.522696 24.290997 C 20.480252 24.203172 20.442983 24.114314 20.411926 24.022357 C 22.231872 22.937465 23.592173 21.222303 24.235055 19.202339 L 24.51871 19.251934 C 24.621198 19.158943 24.754744 19.110381 24.89243 19.114514 C 25.288926 19.18994 25.678175 19.313928 26.053966 19.454447 C 26.248591 19.544338 26.449426 19.619764 26.652333 19.683824 C 26.699954 19.697256 26.77035 19.707588 26.824182 19.72102 L 26.836605 19.72102 C 26.957728 19.760283 27.07885 19.764416 27.202043 19.734452 C 27.324201 19.704489 27.430831 19.644561 27.519861 19.55467 C 27.607856 19.464779 27.666865 19.358356 27.695851 19.234369 C 27.723803 19.111415 27.718627 18.989493 27.678252 18.869639 C 27.636843 18.749784 27.567482 18.650594 27.469135 18.570002 C 27.370787 18.48941 27.260017 18.440848 27.133718 18.424317 L 26.940129 18.377821 C 26.727905 18.348891 26.514646 18.332359 26.300352 18.328226 C 25.895575 18.302395 25.495973 18.236269 25.105689 18.130879 C 24.985602 18.063719 24.886219 17.963496 24.817893 17.842608 L 24.547697 17.763049 C 24.619128 17.242301 24.642938 16.719487 24.619128 16.194606 C 24.595318 15.669725 24.523886 15.151044 24.405869 14.639595 C 24.286817 14.127113 24.12325 13.630129 23.914132 13.147611 C 23.706049 12.666126 23.454487 12.206338 23.161515 11.770315 L 23.397549 11.552304 C 23.388232 11.414884 23.432747 11.278498 23.521777 11.174141 C 23.829242 10.909634 24.161553 10.677158 24.512499 10.477744 C 24.701947 10.380621 24.886219 10.273165 25.06428 10.155377 L 25.210248 10.036555 C 25.319983 9.969395 25.402802 9.876404 25.45974 9.760683 C 25.515643 9.644961 25.536348 9.522006 25.52289 9.393886 C 25.508396 9.265765 25.460775 9.151077 25.381062 9.04982 C 25.300314 8.949597 25.198861 8.877271 25.076703 8.834909 C 24.95558 8.792546 24.831351 8.786347 24.706088 8.815277 C 24.579789 8.844208 24.472124 8.904135 24.381024 8.996092 L 24.232985 9.113881 C 24.078734 9.260599 23.932766 9.415584 23.796115 9.578834 C 23.532129 9.880537 23.240193 10.15641 22.92341 10.402318 C 22.79297 10.455013 22.657354 10.469478 22.518633 10.445714 L 22.266035 10.625496 C 20.806351 9.096316 18.839402 8.145744 16.730625 7.95563 C 16.730625 7.85644 16.718202 7.705588 16.716131 7.659093 C 16.60329 7.580567 16.523577 7.461746 16.497696 7.327426 C 16.484238 6.9224 16.509084 6.51944 16.574304 6.11958 C 16.616748 5.909834 16.64677 5.700089 16.66644 5.487243 L 16.66644 5.286797 C 16.686109 4.903468 16.396243 4.573868 16.011135 4.547004 Z M 15.168452 9.707988 L 14.967616 13.201339 L 14.953123 13.201339 C 14.942771 13.417284 14.816472 13.601199 14.620812 13.704522 C 14.426188 13.808878 14.19533 13.777881 14.02141 13.650794 L 11.155875 11.620497 C 11.612414 11.173108 12.120716 10.795979 12.681814 10.491176 C 13.242912 10.18534 13.835068 9.962162 14.459315 9.821643 C 14.693279 9.772048 14.929313 9.733819 15.166382 9.707988 Z M 16.836219 9.707988 C 18.341453 9.895003 19.742128 10.570735 20.826021 11.631862 L 17.988437 13.648727 C 17.813482 13.789247 17.573307 13.817144 17.370401 13.721053 C 17.167494 13.624963 17.037055 13.421417 17.033949 13.197206 Z M 10.116497 12.934765 L 12.735646 15.272965 L 12.735646 15.288463 C 12.899214 15.430016 12.96961 15.651127 12.921989 15.861906 C 12.874368 16.072685 12.711836 16.240068 12.504788 16.296896 L 12.504788 16.307228 L 9.143375 17.274331 C 9.059521 16.516974 9.101965 15.765816 9.268639 15.022923 C 9.435312 14.278998 9.717931 13.583634 10.116497 12.933732 Z M 21.868504 12.934765 C 22.664601 14.230436 23.016582 15.749284 22.870613 17.261933 L 19.504024 16.29173 L 19.504024 16.279331 C 19.293871 16.222503 19.134444 16.05512 19.086823 15.844341 C 19.040238 15.632529 19.109598 15.413484 19.273166 15.269865 L 21.872645 12.943031 Z M 15.46453 15.454813 L 16.537035 15.454813 L 17.19234 16.286564 L 16.954236 17.327026 L 15.991466 17.789913 L 15.02559 17.327026 L 14.798873 16.286564 Z M 18.899445 18.293096 C 18.943961 18.28793 18.998828 18.28793 19.034026 18.293096 L 22.501034 18.877905 C 22.001014 20.318227 21.014434 21.547771 19.725564 22.371255 L 18.385968 19.126913 C 18.367334 19.083517 18.354911 19.038055 18.346629 18.99156 C 18.339382 18.945064 18.337312 18.898569 18.341453 18.851041 C 18.344558 18.803512 18.353876 18.75805 18.368369 18.713621 C 18.383897 18.668159 18.403567 18.625796 18.428413 18.5855 C 18.453258 18.545204 18.482245 18.509041 18.516408 18.475978 C 18.549535 18.442915 18.586804 18.413984 18.628213 18.39022 C 18.668588 18.365422 18.711032 18.346824 18.756583 18.333392 C 18.802133 18.318927 18.847684 18.310661 18.895304 18.307562 Z M 13.076239 18.307562 C 13.271899 18.310661 13.453065 18.411918 13.559695 18.576201 C 13.667359 18.740485 13.683923 18.946098 13.607315 19.12588 L 13.607315 19.139312 L 12.274966 22.35679 C 10.999554 21.539505 10.031608 20.32546 9.517095 18.899602 L 12.954081 18.316861 C 12.992385 18.312728 13.030689 18.312728 13.070028 18.316861 Z M 15.980078 19.707588 C 16.091883 19.704489 16.195407 19.730319 16.291684 19.786114 C 16.388996 19.840875 16.463533 19.918367 16.517366 20.015491 L 16.529789 20.015491 L 18.224471 23.072818 L 17.547426 23.273265 C 16.301001 23.558437 14.999709 23.491277 13.789517 23.079018 L 15.489376 20.02169 C 15.591864 19.841908 15.782348 19.732386 15.989395 19.72722 Z M 15.980078 19.707588 " stroke="#ffffff" stroke-width="0.055" stroke-opacity="1" stroke-miterlimit="4"/><g clip-path="url(#6808605f0d)"><g clip-path="url(#4562ede654)"><path stroke-linecap="butt" transform="matrix(0.749615, 0, 0, 0.750675, 871.91821, 115.708944)" fill="none" stroke-linejoin="miter" d="M 50.999826 -0.00254775 L 466.265157 -0.00254775 C 479.792937 -0.00254775 492.763139 5.372824 502.330552 14.937136 C 511.892755 24.501448 517.265305 37.474151 517.265305 50.998442 L 517.265305 313.66837 C 517.265305 327.197864 511.892755 340.170567 502.330552 349.734879 C 492.763139 359.299191 479.792937 364.669359 466.265157 364.669359 L 50.999826 364.669359 C 37.472046 364.669359 24.501843 359.299191 14.939641 349.734879 C 5.372228 340.170567 -0.000322308 327.197864 -0.000322308 313.66837 L -0.000322308 50.998442 C -0.000322308 37.474151 5.372228 24.501448 14.939641 14.937136 C 24.501843 5.372824 37.472046 -0.00254775 50.999826 -0.00254775 Z M 50.999826 -0.00254775 " stroke="#326ce5" stroke-width="12" stroke-opacity="1" stroke-miterlimit="4"/></g></g><g fill="#ffffff" fill-opacity="1"><g transform="translate(1018.37914, 157.108277)"><g><path d="M 22.5 0 L 19.21875 0 L 6.046875 -19.984375 L 6.046875 0 L 2.765625 0 L 2.765625 -25.125 L 6.046875 -25.125 L 19.21875 -5.1875 L 19.21875 -25.125 L 22.5 -25.125 Z M 22.5 0 "/></g></g></g><g fill="#ffffff" fill-opacity="1"><g transform="translate(1043.687187, 157.108277)"><g><path d="M 11.375 0.328125 C 9.53125 0.328125 7.859375 -0.09375 6.359375 -0.9375 C 4.859375 -1.78125 3.679688 -2.972656 2.828125 -4.515625 C 1.972656 -6.066406 1.546875 -7.863281 1.546875 -9.90625 C 1.546875 -11.914062 1.984375 -13.691406 2.859375 -15.234375 C 3.734375 -16.785156 4.925781 -17.972656 6.4375 -18.796875 C 7.957031 -19.628906 9.648438 -20.046875 11.515625 -20.046875 C 13.390625 -20.046875 15.082031 -19.628906 16.59375 -18.796875 C 18.101562 -17.972656 19.296875 -16.789062 20.171875 -15.25 C 21.046875 -13.71875 21.484375 -11.9375 21.484375 -9.90625 C 21.484375 -7.863281 21.035156 -6.066406 20.140625 -4.515625 C 19.242188 -2.972656 18.023438 -1.78125 16.484375 -0.9375 C 14.953125 -0.09375 13.25 0.328125 11.375 0.328125 Z M 11.375 -2.5625 C 12.550781 -2.5625 13.65625 -2.835938 14.6875 -3.390625 C 15.71875 -3.941406 16.550781 -4.769531 17.1875 -5.875 C 17.820312 -6.976562 18.140625 -8.320312 18.140625 -9.90625 C 18.140625 -11.488281 17.828125 -12.832031 17.203125 -13.9375 C 16.578125 -15.039062 15.757812 -15.859375 14.75 -16.390625 C 13.75 -16.929688 12.660156 -17.203125 11.484375 -17.203125 C 10.285156 -17.203125 9.1875 -16.929688 8.1875 -16.390625 C 7.195312 -15.859375 6.398438 -15.039062 5.796875 -13.9375 C 5.191406 -12.832031 4.890625 -11.488281 4.890625 -9.90625 C 4.890625 -8.289062 5.179688 -6.929688 5.765625 -5.828125 C 6.359375 -4.722656 7.144531 -3.898438 8.125 -3.359375 C 9.113281 -2.828125 10.195312 -2.5625 11.375 -2.5625 Z M 11.375 -2.5625 "/></g></g></g><g fill="#ffffff" fill-opacity="1"><g transform="translate(1066.727233, 157.108277)"><g><path d="M 1.546875 -9.9375 C 1.546875 -11.945312 1.953125 -13.710938 2.765625 -15.234375 C 3.585938 -16.765625 4.710938 -17.945312 6.140625 -18.78125 C 7.566406 -19.625 9.164062 -20.046875 10.9375 -20.046875 C 12.476562 -20.046875 13.90625 -19.691406 15.21875 -18.984375 C 16.539062 -18.273438 17.550781 -17.347656 18.25 -16.203125 L 18.25 -26.640625 L 21.5625 -26.640625 L 21.5625 0 L 18.25 0 L 18.25 -3.703125 C 17.601562 -2.523438 16.644531 -1.554688 15.375 -0.796875 C 14.101562 -0.046875 12.613281 0.328125 10.90625 0.328125 C 9.15625 0.328125 7.566406 -0.101562 6.140625 -0.96875 C 4.710938 -1.832031 3.585938 -3.046875 2.765625 -4.609375 C 1.953125 -6.171875 1.546875 -7.945312 1.546875 -9.9375 Z M 18.25 -9.90625 C 18.25 -11.382812 17.945312 -12.675781 17.34375 -13.78125 C 16.75 -14.882812 15.941406 -15.726562 14.921875 -16.3125 C 13.898438 -16.90625 12.78125 -17.203125 11.5625 -17.203125 C 10.332031 -17.203125 9.210938 -16.914062 8.203125 -16.34375 C 7.203125 -15.769531 6.398438 -14.929688 5.796875 -13.828125 C 5.191406 -12.722656 4.890625 -11.425781 4.890625 -9.9375 C 4.890625 -8.425781 5.191406 -7.109375 5.796875 -5.984375 C 6.398438 -4.867188 7.203125 -4.019531 8.203125 -3.4375 C 9.210938 -2.851562 10.332031 -2.5625 11.5625 -2.5625 C 12.78125 -2.5625 13.898438 -2.851562 14.921875 -3.4375 C 15.941406 -4.019531 16.75 -4.867188 17.34375 -5.984375 C 17.945312 -7.109375 18.25 -8.414062 18.25 -9.90625 Z M 18.25 -9.90625 "/></g></g></g><g fill="#ffffff" fill-opacity="1"><g transform="translate(1091.063276, 157.108277)"><g><path d="M 20.765625 -10.625 C 20.765625 -10 20.726562 -9.335938 20.65625 -8.640625 L 4.890625 -8.640625 C 5.015625 -6.691406 5.679688 -5.171875 6.890625 -4.078125 C 8.109375 -2.992188 9.578125 -2.453125 11.296875 -2.453125 C 12.710938 -2.453125 13.894531 -2.78125 14.84375 -3.4375 C 15.789062 -4.09375 16.457031 -4.972656 16.84375 -6.078125 L 20.375 -6.078125 C 19.84375 -4.179688 18.785156 -2.640625 17.203125 -1.453125 C 15.617188 -0.265625 13.648438 0.328125 11.296875 0.328125 C 9.429688 0.328125 7.757812 -0.09375 6.28125 -0.9375 C 4.800781 -1.78125 3.640625 -2.972656 2.796875 -4.515625 C 1.960938 -6.066406 1.546875 -7.863281 1.546875 -9.90625 C 1.546875 -11.9375 1.953125 -13.71875 2.765625 -15.25 C 3.585938 -16.789062 4.734375 -17.972656 6.203125 -18.796875 C 7.679688 -19.628906 9.378906 -20.046875 11.296875 -20.046875 C 13.171875 -20.046875 14.828125 -19.640625 16.265625 -18.828125 C 17.710938 -18.015625 18.820312 -16.890625 19.59375 -15.453125 C 20.375 -14.023438 20.765625 -12.414062 20.765625 -10.625 Z M 17.390625 -11.296875 C 17.390625 -12.546875 17.113281 -13.617188 16.5625 -14.515625 C 16.007812 -15.421875 15.257812 -16.109375 14.3125 -16.578125 C 13.363281 -17.046875 12.3125 -17.28125 11.15625 -17.28125 C 9.5 -17.28125 8.085938 -16.75 6.921875 -15.6875 C 5.765625 -14.632812 5.101562 -13.171875 4.9375 -11.296875 Z M 17.390625 -11.296875 "/></g></g></g></svg>