<svg xmlns="http://www.w3.org/2000/svg" xmlns:xlink="http://www.w3.org/1999/xlink" width="1920" zoomAndPan="magnify" viewBox="0 0 1440 809.999993" height="1080" preserveAspectRatio="xMidYMid meet" version="1.0"><defs><g/><clipPath id="a7ff904f64"><path d="M 81 81 L 1359 81 L 1359 729 L 81 729 Z M 81 81 " clip-rule="nonzero"/></clipPath><clipPath id="7b14f2e707"><path d="M 108 81 L 1332 81 C 1339.160156 81 1346.027344 83.84375 1351.089844 88.90625 C 1356.15625 93.972656 1359 100.839844 1359 108 L 1359 702 C 1359 709.160156 1356.15625 716.027344 1351.089844 721.09375 C 1346.027344 726.15625 1339.160156 729 1332 729 L 108 729 C 100.839844 729 93.972656 726.15625 88.90625 721.09375 C 83.84375 716.027344 81 709.160156 81 702 L 81 108 C 81 100.839844 83.84375 93.972656 88.90625 88.90625 C 93.972656 83.84375 100.839844 81 108 81 Z M 108 81 " clip-rule="nonzero"/></clipPath><clipPath id="c8686dd6be"><path d="M 659.152344 22.144531 L 780.652344 22.144531 L 780.652344 139.894531 L 659.152344 139.894531 Z M 659.152344 22.144531 " clip-rule="nonzero"/></clipPath><clipPath id="f748c2df11"><path d="M 871.917969 420.789062 L 1259.667969 420.789062 L 1259.667969 694.535156 L 871.917969 694.535156 Z M 871.917969 420.789062 " clip-rule="nonzero"/></clipPath><clipPath id="ce366c8d34"><path d="M 910.148438 420.789062 L 1221.4375 420.789062 C 1231.578125 420.789062 1241.300781 424.820312 1248.472656 432 C 1255.640625 439.179688 1259.667969 448.917969 1259.667969 459.070312 L 1259.667969 656.253906 C 1259.667969 666.40625 1255.640625 676.144531 1248.472656 683.324219 C 1241.300781 690.503906 1231.578125 694.535156 1221.4375 694.535156 L 910.148438 694.535156 C 900.007812 694.535156 890.285156 690.503906 883.117188 683.324219 C 875.945312 676.144531 871.917969 666.40625 871.917969 656.253906 L 871.917969 459.070312 C 871.917969 448.917969 875.945312 439.179688 883.117188 432 C 890.285156 424.820312 900.007812 420.789062 910.148438 420.789062 Z M 910.148438 420.789062 " clip-rule="nonzero"/></clipPath><clipPath id="b0d71f765a"><path d="M 871.917969 115.710938 L 1259.667969 115.710938 L 1259.667969 389.457031 L 871.917969 389.457031 Z M 871.917969 115.710938 " clip-rule="nonzero"/></clipPath><clipPath id="0178262bc6"><path d="M 910.148438 115.710938 L 1221.4375 115.710938 C 1231.578125 115.710938 1241.300781 119.742188 1248.472656 126.921875 C 1255.640625 134.101562 1259.667969 143.839844 1259.667969 153.992188 L 1259.667969 351.171875 C 1259.667969 361.328125 1255.640625 371.066406 1248.472656 378.246094 C 1241.300781 385.425781 1231.578125 389.457031 1221.4375 389.457031 L 910.148438 389.457031 C 900.007812 389.457031 890.285156 385.425781 883.117188 378.246094 C 875.945312 371.066406 871.917969 361.328125 871.917969 351.171875 L 871.917969 153.992188 C 871.917969 143.839844 875.945312 134.101562 883.117188 126.921875 C 890.285156 119.742188 900.007812 115.710938 910.148438 115.710938 Z M 910.148438 115.710938 " clip-rule="nonzero"/></clipPath></defs><g clip-path="url(#a7ff904f64)"><g clip-path="url(#7b14f2e707)"><path stroke-linecap="butt" transform="matrix(0.75, 0, 0, 0.75, 81.000024, 81.000016)" fill="none" stroke-linejoin="miter" d="M 35.99997 -0.0000212333 L 1668.000052 -0.0000212333 C 1677.546928 -0.0000212333 1686.703178 3.791646 1693.458387 10.541646 C 1700.208387 17.296855 1704.000054 26.453105 1704.000054 35.999981 L 1704.000054 828.00002 C 1704.000054 837.546896 1700.208387 846.703146 1693.458387 853.458355 C 1686.703178 860.208355 1677.546928 864.000022 1668.000052 864.000022 L 35.99997 864.000022 C 26.453095 864.000022 17.296844 860.208355 10.541636 853.458355 C 3.791635 846.703146 -0.000031663 837.546896 -0.000031663 828.00002 L -0.000031663 35.999981 C -0.000031663 26.453105 3.791635 17.296855 10.541636 10.541646 C 17.296844 3.791646 26.453095 -0.0000212333 35.99997 -0.0000212333 Z M 35.99997 -0.0000212333 " stroke="#ffffff" stroke-width="12" stroke-opacity="1" stroke-miterlimit="4"/></g></g><g clip-path="url(#c8686dd6be)"><path fill="#326ce5" d="M 719.527344 22.140625 C 718.433594 22.203125 717.398438 22.480469 716.421875 22.964844 L 674.367188 43.0625 C 672.171875 44.109375 670.574219 46.101562 670.027344 48.476562 L 659.734375 93.582031 C 659.242188 95.699219 659.640625 97.917969 660.867188 99.734375 C 661.007812 99.953125 661.160156 100.164062 661.320312 100.367188 L 690.375 136.566406 C 691.910156 138.453125 694.214844 139.539062 696.644531 139.527344 L 743.246094 139.527344 C 745.683594 139.53125 747.992188 138.394531 749.523438 136.53125 L 778.5625 100.328125 C 780.085938 98.4375 780.65625 95.941406 780.070312 93.574219 L 769.710938 48.429688 C 769.164062 46.054688 767.558594 44.0625 765.371094 43.015625 L 723.386719 22.96875 C 722.15625 22.359375 720.859375 22.085938 719.488281 22.140625 Z M 719.527344 22.140625 " fill-opacity="1" fill-rule="nonzero"/></g><path stroke-linecap="butt" transform="matrix(3.773292, 0, 0, 3.78062, 659.530629, 20.34064)" fill-opacity="1" fill="#ffffff" fill-rule="nonzero" stroke-linejoin="miter" d="M 16.001818 4.541869 C 15.617745 4.568733 15.326844 4.898333 15.346513 5.281661 L 15.346513 5.469709 C 15.365147 5.682555 15.39724 5.894367 15.438649 6.103079 C 15.500763 6.503973 15.522503 6.907966 15.504904 7.312992 C 15.466601 7.446278 15.391028 7.566133 15.287505 7.658091 L 15.271976 7.940162 C 14.867198 7.974259 14.464491 8.036253 14.069031 8.126144 C 12.403335 8.502239 10.885678 9.36602 9.714826 10.611062 L 9.474651 10.440579 C 9.343176 10.480875 9.201348 10.46641 9.080225 10.401316 C 8.754126 10.160574 8.455978 9.889867 8.182675 9.591264 C 8.046024 9.428014 7.901091 9.273029 7.745805 9.12631 L 7.597767 9.007489 C 7.466291 8.9021 7.303759 8.841139 7.135016 8.832873 C 7.032527 8.827707 6.935215 8.845272 6.841009 8.887634 C 6.747837 8.928963 6.668124 8.989924 6.603939 9.069483 C 6.378258 9.385651 6.45176 9.824774 6.767507 10.052085 L 6.906228 10.161607 C 7.084289 10.280428 7.267526 10.387884 7.45801 10.485008 C 7.812061 10.682355 8.146442 10.912765 8.455978 11.184505 C 8.536726 11.300226 8.581241 11.428347 8.588488 11.568866 L 8.806923 11.769313 C 7.629859 13.535103 7.147439 15.673889 7.448692 17.775479 L 7.169179 17.855038 C 7.095677 17.97076 6.9994 18.06995 6.883453 18.143309 C 6.491099 18.247665 6.093568 18.312759 5.68879 18.339623 C 5.474496 18.344789 5.261237 18.361321 5.049014 18.390251 L 4.871988 18.429514 L 4.852319 18.429514 C 4.727055 18.447079 4.61525 18.496674 4.517937 18.576232 C 4.420625 18.656824 4.351264 18.757048 4.309855 18.876902 C 4.269481 18.996757 4.262234 19.117645 4.290185 19.241633 C 4.318137 19.364587 4.37611 19.472043 4.46514 19.561934 C 4.554171 19.651825 4.6608 19.711752 4.783993 19.741716 C 4.907186 19.77168 5.028309 19.766513 5.149432 19.727251 L 5.161855 19.727251 L 5.341986 19.706586 C 5.544892 19.646659 5.744693 19.573299 5.940353 19.488575 C 6.315108 19.338756 6.704357 19.224068 7.101888 19.148642 C 7.239575 19.156908 7.372085 19.204436 7.483891 19.283995 L 7.784109 19.2344 C 8.434238 21.251265 9.799715 22.960227 11.623802 24.036853 L 11.501644 24.292061 C 11.557547 24.408816 11.579287 24.539003 11.561688 24.668157 C 11.397085 25.050452 11.195214 25.416215 10.95918 25.760281 C 10.829775 25.930764 10.709688 26.108479 10.600988 26.293428 L 10.516099 26.47321 C 10.452949 26.581699 10.422927 26.699487 10.427068 26.825541 C 10.430174 26.951595 10.466407 27.067317 10.534733 27.172706 C 10.603059 27.278096 10.694159 27.357654 10.808035 27.412416 C 10.920876 27.466144 11.040964 27.486808 11.166227 27.474409 C 11.291491 27.459944 11.404332 27.413449 11.503715 27.335957 C 11.603097 27.258464 11.674529 27.160308 11.719044 27.041486 L 11.801863 26.872036 C 11.87847 26.67159 11.94162 26.468043 11.994417 26.262431 C 12.171442 25.825374 12.266684 25.356288 12.508929 25.06595 C 12.589678 24.989491 12.68492 24.942996 12.794655 24.926464 L 12.944764 24.652658 C 13.435466 24.841739 13.938591 24.984325 14.454139 25.080415 C 14.970722 25.176506 15.491446 25.225068 16.016311 25.227134 C 16.542211 25.228167 17.062935 25.181672 17.579519 25.087648 C 18.096102 24.993624 18.600262 24.854138 19.090964 24.668157 L 19.22451 24.923365 C 19.360126 24.942996 19.482284 25.018422 19.564067 25.127944 C 19.75248 25.486475 19.903625 25.860504 20.019571 26.247965 C 20.073404 26.455645 20.137588 26.659191 20.214196 26.858604 L 20.297015 27.029087 C 20.34153 27.146876 20.413997 27.243999 20.513379 27.321491 C 20.612762 27.398984 20.724568 27.444446 20.849831 27.457878 C 20.975095 27.472343 21.095182 27.452712 21.209058 27.398984 C 21.322934 27.345256 21.41507 27.265697 21.484431 27.160308 C 21.552757 27.053885 21.587955 26.938163 21.591061 26.812109 C 21.594166 26.686055 21.563109 26.568267 21.49996 26.458744 L 21.413 26.278962 C 21.3043 26.095047 21.184213 25.918365 21.054808 25.747882 C 20.824986 25.416215 20.627255 25.061817 20.455406 24.690888 C 20.421243 24.548302 20.444018 24.415015 20.522696 24.291028 C 20.480252 24.203203 20.442983 24.114345 20.411926 24.022388 C 22.231872 22.937496 23.592173 21.222335 24.235055 19.20237 L 24.51871 19.251965 C 24.621198 19.158974 24.754744 19.110412 24.89243 19.113512 C 25.288926 19.189971 25.678175 19.313959 26.053966 19.454478 C 26.248591 19.544369 26.449426 19.619795 26.652333 19.683855 C 26.699954 19.697287 26.77035 19.707619 26.824182 19.721051 L 26.836605 19.721051 C 26.957728 19.760314 27.07885 19.764447 27.202043 19.734483 C 27.324201 19.70452 27.430831 19.644592 27.519861 19.554701 C 27.607856 19.46481 27.666865 19.357354 27.695851 19.2344 C 27.723803 19.111446 27.718627 18.989524 27.678252 18.86967 C 27.636843 18.749815 27.567482 18.650625 27.469135 18.570033 C 27.370787 18.489441 27.260017 18.440879 27.133718 18.424348 L 26.940129 18.377852 C 26.727905 18.348922 26.514646 18.33239 26.300352 18.328257 C 25.895575 18.302426 25.495973 18.2363 25.105689 18.13091 C 24.985602 18.06375 24.886219 17.963527 24.817893 17.842639 L 24.547697 17.76308 C 24.619128 17.242332 24.642938 16.719518 24.619128 16.194637 C 24.595318 15.669756 24.523886 15.151075 24.405869 14.639626 C 24.286817 14.127144 24.12325 13.63016 23.914132 13.147642 C 23.706049 12.666157 23.454487 12.206369 23.161515 11.770346 L 23.397549 11.552335 C 23.388232 11.414915 23.432747 11.278529 23.521777 11.174172 C 23.829242 10.909665 24.161553 10.677189 24.512499 10.477775 C 24.701947 10.380652 24.886219 10.273196 25.06428 10.155408 L 25.210248 10.036586 C 25.319983 9.969426 25.402802 9.876435 25.45974 9.760714 C 25.515643 9.644992 25.536348 9.522038 25.52289 9.393917 C 25.508396 9.265796 25.460775 9.151108 25.381062 9.049851 C 25.300314 8.949628 25.198861 8.877302 25.076703 8.83494 C 24.95558 8.792577 24.831351 8.786378 24.706088 8.815308 C 24.579789 8.844239 24.472124 8.904166 24.381024 8.996123 L 24.232985 9.113912 C 24.078734 9.26063 23.932766 9.415615 23.796115 9.578865 C 23.532129 9.880568 23.240193 10.156441 22.92341 10.40235 C 22.79297 10.455044 22.657354 10.469509 22.518633 10.445745 L 22.266035 10.625527 C 20.806351 9.096347 18.839402 8.145775 16.730625 7.955661 C 16.730625 7.856471 16.718202 7.705619 16.716131 7.659124 C 16.60329 7.580598 16.523577 7.461777 16.497696 7.327457 C 16.484238 6.922431 16.509084 6.519471 16.574304 6.119611 C 16.616748 5.909865 16.64677 5.70012 16.66644 5.487274 L 16.66644 5.286828 C 16.686109 4.903499 16.396243 4.573899 16.011135 4.547035 Z M 15.168452 9.708019 L 14.967616 13.20137 L 14.953123 13.20137 C 14.942771 13.417315 14.816472 13.60123 14.620812 13.704553 C 14.426188 13.808909 14.19533 13.777912 14.02141 13.650825 L 11.155875 11.620528 C 11.612414 11.173139 12.120716 10.79601 12.681814 10.491207 C 13.242912 10.185371 13.835068 9.962194 14.459315 9.821674 C 14.693279 9.772079 14.929313 9.73385 15.166382 9.708019 Z M 16.836219 9.708019 C 18.341453 9.895034 19.742128 10.570766 20.826021 11.631893 L 17.988437 13.648758 C 17.813482 13.789278 17.573307 13.817175 17.370401 13.721084 C 17.167494 13.624994 17.037055 13.421448 17.033949 13.197237 Z M 10.116497 12.934796 L 12.735646 15.272996 L 12.735646 15.288494 C 12.899214 15.430047 12.96961 15.651158 12.921989 15.861937 C 12.874368 16.072716 12.711836 16.240099 12.504788 16.296927 L 12.504788 16.307259 L 9.143375 17.274363 C 9.059521 16.517005 9.101965 15.765847 9.268639 15.022954 C 9.435312 14.279029 9.717931 13.583665 10.116497 12.933763 Z M 21.868504 12.934796 C 22.664601 14.230467 23.016582 15.749315 22.870613 17.261964 L 19.504024 16.291761 L 19.504024 16.279362 C 19.293871 16.221501 19.134444 16.055151 19.086823 15.844372 C 19.040238 15.63256 19.109598 15.413515 19.273166 15.269896 L 21.872645 12.943062 Z M 15.46453 15.454844 L 16.537035 15.454844 L 17.19234 16.286595 L 16.954236 17.327057 L 15.991466 17.789944 L 15.02559 17.327057 L 14.798873 16.286595 Z M 18.899445 18.293127 C 18.943961 18.287961 18.998828 18.287961 19.034026 18.293127 L 22.501034 18.877936 C 22.001014 20.318258 21.014434 21.547802 19.725564 22.371286 L 18.385968 19.126944 C 18.367334 19.083548 18.354911 19.038086 18.346629 18.991591 C 18.339382 18.945096 18.337312 18.8986 18.341453 18.851072 C 18.344558 18.803543 18.353876 18.758081 18.368369 18.712619 C 18.383897 18.66819 18.403567 18.625827 18.428413 18.585531 C 18.453258 18.545235 18.482245 18.509072 18.516408 18.476009 C 18.549535 18.442946 18.586804 18.414015 18.628213 18.390251 C 18.668588 18.365453 18.711032 18.346855 18.756583 18.33239 C 18.802133 18.318958 18.847684 18.310692 18.895304 18.307593 Z M 13.076239 18.307593 C 13.271899 18.310692 13.453065 18.411949 13.559695 18.576232 C 13.667359 18.739483 13.683923 18.946129 13.607315 19.125911 L 13.607315 19.139343 L 12.274966 22.356821 C 10.999554 21.539536 10.031608 20.325491 9.517095 18.899633 L 12.954081 18.316892 C 12.992385 18.312759 13.030689 18.312759 13.070028 18.316892 Z M 15.980078 19.707619 C 16.091883 19.70452 16.195407 19.73035 16.291684 19.786145 C 16.388996 19.840906 16.463533 19.918398 16.517366 20.015522 L 16.529789 20.015522 L 18.224471 23.07285 L 17.547426 23.273296 C 16.301001 23.558468 14.999709 23.491308 13.789517 23.079049 L 15.489376 20.021721 C 15.591864 19.841939 15.782348 19.732417 15.989395 19.727251 Z M 15.980078 19.707619 " stroke="#ffffff" stroke-width="0.055" stroke-opacity="1" stroke-miterlimit="4"/><g clip-path="url(#f748c2df11)"><g clip-path="url(#ce366c8d34)"><path fill="#326ce5" d="M 928.140625 416.285156 L 941.632812 416.285156 L 941.632812 425.292969 L 928.140625 425.292969 Z M 946.128906 416.285156 L 959.621094 416.285156 L 959.621094 425.292969 L 946.128906 425.292969 Z M 964.121094 416.285156 L 977.613281 416.285156 L 977.613281 425.292969 L 964.121094 425.292969 Z M 982.109375 416.285156 L 995.605469 416.285156 L 995.605469 425.292969 L 982.109375 425.292969 Z M 1000.101562 416.285156 L 1013.59375 416.285156 L 1013.59375 425.292969 L 1000.101562 425.292969 Z M 1018.09375 416.285156 L 1031.585938 416.285156 L 1031.585938 425.292969 L 1018.09375 425.292969 Z M 1036.082031 416.285156 L 1049.578125 416.285156 L 1049.578125 425.292969 L 1036.082031 425.292969 Z M 1054.074219 416.285156 L 1067.566406 416.285156 L 1067.566406 425.292969 L 1054.074219 425.292969 Z M 1072.066406 416.285156 L 1085.558594 416.285156 L 1085.558594 425.292969 L 1072.066406 425.292969 Z M 1090.054688 416.285156 L 1103.550781 416.285156 L 1103.550781 425.292969 L 1090.054688 425.292969 Z M 1108.046875 416.285156 L 1121.539062 416.285156 L 1121.539062 425.292969 L 1108.046875 425.292969 Z M 1126.039062 416.285156 L 1139.53125 416.285156 L 1139.53125 425.292969 L 1126.039062 425.292969 Z M 1144.027344 416.285156 L 1157.519531 416.285156 L 1157.519531 425.292969 L 1144.027344 425.292969 Z M 1162.019531 416.285156 L 1175.511719 416.285156 L 1175.511719 425.292969 L 1162.019531 425.292969 Z M 1180.007812 416.285156 L 1193.503906 416.285156 L 1193.503906 425.292969 L 1180.007812 425.292969 Z M 1198 416.285156 L 1211.492188 416.285156 L 1211.492188 425.292969 L 1198 425.292969 Z M 1215.992188 416.285156 L 1221.4375 416.285156 C 1224.453125 416.285156 1227.433594 416.597656 1230.378906 417.230469 L 1228.496094 426.039062 C 1226.171875 425.539062 1223.820312 425.292969 1221.4375 425.292969 L 1215.992188 425.292969 Z M 1235.230469 418.574219 C 1240.042969 420.21875 1244.421875 422.644531 1248.363281 425.847656 L 1242.695312 432.84375 C 1239.582031 430.3125 1236.125 428.398438 1232.328125 427.101562 Z M 1252.09375 429.265625 C 1255.636719 432.917969 1258.4375 437.074219 1260.5 441.730469 L 1252.277344 445.382812 C 1250.648438 441.707031 1248.4375 438.425781 1245.636719 435.539062 Z M 1262.261719 446.445312 C 1263.53125 450.558594 1264.164062 454.765625 1264.164062 459.070312 L 1264.164062 461.136719 L 1255.171875 461.136719 L 1255.171875 459.070312 C 1255.171875 455.671875 1254.667969 452.351562 1253.667969 449.101562 Z M 1264.164062 465.640625 L 1264.164062 479.152344 L 1255.171875 479.152344 L 1255.171875 465.640625 Z M 1264.164062 483.65625 L 1264.164062 497.171875 L 1255.171875 497.171875 L 1255.171875 483.65625 Z M 1264.164062 501.675781 L 1264.164062 515.1875 L 1255.171875 515.1875 L 1255.171875 501.675781 Z M 1264.164062 519.691406 L 1264.164062 533.203125 L 1255.171875 533.203125 L 1255.171875 519.691406 Z M 1264.164062 537.707031 L 1264.164062 551.21875 L 1255.171875 551.21875 L 1255.171875 537.707031 Z M 1264.164062 555.722656 L 1264.164062 569.234375 L 1255.171875 569.234375 L 1255.171875 555.722656 Z M 1264.164062 573.738281 L 1264.164062 587.25 L 1255.171875 587.25 L 1255.171875 573.738281 Z M 1264.164062 591.753906 L 1264.164062 605.265625 L 1255.171875 605.265625 L 1255.171875 591.753906 Z M 1264.164062 609.769531 L 1264.164062 623.285156 L 1255.171875 623.285156 L 1255.171875 609.769531 Z M 1264.164062 627.789062 L 1264.164062 641.300781 L 1255.171875 641.300781 L 1255.171875 627.789062 Z M 1264.164062 645.804688 L 1264.164062 656.253906 C 1264.164062 657.402344 1264.121094 658.546875 1264.027344 659.691406 L 1255.0625 658.96875 C 1255.132812 658.066406 1255.171875 657.160156 1255.171875 656.253906 L 1255.171875 645.804688 Z M 1263.332031 664.667969 C 1262.332031 669.664062 1260.496094 674.328125 1257.832031 678.667969 L 1250.171875 673.949219 C 1252.273438 670.523438 1253.722656 666.839844 1254.511719 662.898438 Z M 1254.957031 682.789062 C 1253.925781 684.09375 1252.824219 685.332031 1251.652344 686.507812 C 1249.246094 688.914062 1246.59375 691.003906 1243.695312 692.777344 L 1239.007812 685.089844 C 1241.296875 683.6875 1243.394531 682.039062 1245.289062 680.136719 C 1246.21875 679.210938 1247.085938 678.230469 1247.898438 677.203125 Z M 1239.253906 695.144531 C 1234.632812 697.265625 1229.789062 698.523438 1224.722656 698.914062 L 1224.03125 689.933594 C 1228.03125 689.625 1231.855469 688.632812 1235.503906 686.957031 Z M 1219.863281 699.039062 L 1206.371094 699.039062 L 1206.371094 690.03125 L 1219.863281 690.03125 Z M 1201.875 699.039062 L 1188.378906 699.039062 L 1188.378906 690.03125 L 1201.875 690.03125 Z M 1183.882812 699.039062 L 1170.390625 699.039062 L 1170.390625 690.03125 L 1183.882812 690.03125 Z M 1165.890625 699.039062 L 1152.398438 699.039062 L 1152.398438 690.03125 L 1165.890625 690.03125 Z M 1147.902344 699.039062 L 1134.410156 699.039062 L 1134.410156 690.03125 L 1147.902344 690.03125 Z M 1129.910156 699.039062 L 1116.417969 699.039062 L 1116.417969 690.03125 L 1129.910156 690.03125 Z M 1111.917969 699.039062 L 1098.425781 699.039062 L 1098.425781 690.03125 L 1111.917969 690.03125 Z M 1093.929688 699.039062 L 1080.4375 699.039062 L 1080.4375 690.03125 L 1093.929688 690.03125 Z M 1075.9375 699.039062 L 1062.445312 699.039062 L 1062.445312 690.03125 L 1075.9375 690.03125 Z M 1057.949219 699.039062 L 1044.453125 699.039062 L 1044.453125 690.03125 L 1057.949219 690.03125 Z M 1039.957031 699.039062 L 1026.464844 699.039062 L 1026.464844 690.03125 L 1039.957031 690.03125 Z M 1021.964844 699.039062 L 1008.472656 699.039062 L 1008.472656 690.03125 L 1021.964844 690.03125 Z M 1003.976562 699.039062 L 990.480469 699.039062 L 990.480469 690.03125 L 1003.976562 690.03125 Z M 985.984375 699.039062 L 972.492188 699.039062 L 972.492188 690.03125 L 985.984375 690.03125 Z M 967.992188 699.039062 L 954.5 699.039062 L 954.5 690.03125 L 967.992188 690.03125 Z M 950.003906 699.039062 L 936.511719 699.039062 L 936.511719 690.03125 L 950.003906 690.03125 Z M 932.011719 699.039062 L 918.519531 699.039062 L 918.519531 690.03125 L 932.011719 690.03125 Z M 914.019531 699.039062 L 910.148438 699.039062 C 906.539062 699.039062 902.984375 698.589844 899.488281 697.6875 L 901.734375 688.964844 C 904.492188 689.675781 907.296875 690.03125 910.148438 690.03125 L 914.019531 690.03125 Z M 894.699219 696.144531 C 889.960938 694.304688 885.6875 691.703125 881.875 688.335938 L 887.828125 681.582031 C 890.835938 684.238281 894.210938 686.292969 897.953125 687.746094 Z M 878.289062 684.761719 C 874.902344 680.96875 872.273438 676.703125 870.40625 671.96875 L 878.773438 668.660156 C 880.246094 672.398438 882.320312 675.765625 884.996094 678.761719 Z M 868.839844 667.183594 C 867.894531 663.601562 867.421875 659.957031 867.421875 656.253906 L 867.421875 652.609375 L 876.414062 652.609375 L 876.414062 656.253906 C 876.414062 659.179688 876.789062 662.054688 877.535156 664.882812 Z M 867.421875 648.105469 L 867.421875 634.59375 L 876.414062 634.59375 L 876.414062 648.105469 Z M 867.421875 630.089844 L 867.421875 616.578125 L 876.414062 616.578125 L 876.414062 630.089844 Z M 867.421875 612.074219 L 867.421875 598.5625 L 876.414062 598.5625 L 876.414062 612.074219 Z M 867.421875 594.058594 L 867.421875 580.546875 L 876.414062 580.546875 L 876.414062 594.058594 Z M 867.421875 576.042969 L 867.421875 562.527344 L 876.414062 562.527344 L 876.414062 576.042969 Z M 867.421875 558.023438 L 867.421875 544.511719 L 876.414062 544.511719 L 876.414062 558.023438 Z M 867.421875 540.007812 L 867.421875 526.496094 L 876.414062 526.496094 L 876.414062 540.007812 Z M 867.421875 521.992188 L 867.421875 508.480469 L 876.414062 508.480469 L 876.414062 521.992188 Z M 867.421875 503.976562 L 867.421875 490.464844 L 876.414062 490.464844 L 876.414062 503.976562 Z M 867.421875 485.960938 L 867.421875 472.449219 L 876.414062 472.449219 L 876.414062 485.960938 Z M 867.421875 467.945312 L 867.421875 459.070312 C 867.421875 457.332031 867.527344 455.601562 867.738281 453.875 L 876.664062 454.96875 C 876.5 456.332031 876.414062 457.699219 876.414062 459.070312 L 876.414062 467.945312 Z M 868.636719 448.929688 C 869.84375 443.980469 871.867188 439.394531 874.707031 435.171875 L 882.167969 440.203125 C 879.925781 443.535156 878.328125 447.15625 877.378906 451.066406 Z M 877.75 431.171875 C 878.449219 430.359375 879.175781 429.574219 879.933594 428.816406 C 882.761719 425.984375 885.921875 423.597656 889.417969 421.65625 L 893.78125 429.535156 C 891.023438 431.066406 888.527344 432.949219 886.296875 435.1875 C 885.699219 435.785156 885.121094 436.40625 884.570312 437.046875 Z M 893.949219 419.476562 C 898.652344 417.546875 903.546875 416.492188 908.628906 416.3125 L 908.949219 425.3125 C 904.9375 425.457031 901.074219 426.289062 897.359375 427.8125 Z M 910.148438 416.285156 L 923.640625 416.285156 L 923.640625 425.292969 L 910.148438 425.292969 Z M 910.148438 416.285156 " fill-opacity="1" fill-rule="nonzero"/></g></g><g fill="#ffffff" fill-opacity="1"><g transform="translate(1018.37914, 462.187005)"><g><path d="M 22.5 0 L 19.21875 0 L 6.046875 -19.984375 L 6.046875 0 L 2.765625 0 L 2.765625 -25.125 L 6.046875 -25.125 L 19.21875 -5.1875 L 19.21875 -25.125 L 22.5 -25.125 Z M 22.5 0 "/></g></g></g><g fill="#ffffff" fill-opacity="1"><g transform="translate(1043.687187, 462.187005)"><g><path d="M 11.375 0.328125 C 9.53125 0.328125 7.859375 -0.09375 6.359375 -0.9375 C 4.859375 -1.78125 3.679688 -2.972656 2.828125 -4.515625 C 1.972656 -6.066406 1.546875 -7.863281 1.546875 -9.90625 C 1.546875 -11.914062 1.984375 -13.691406 2.859375 -15.234375 C 3.734375 -16.785156 4.925781 -17.972656 6.4375 -18.796875 C 7.957031 -19.628906 9.648438 -20.046875 11.515625 -20.046875 C 13.390625 -20.046875 15.082031 -19.628906 16.59375 -18.796875 C 18.101562 -17.972656 19.296875 -16.789062 20.171875 -15.25 C 21.046875 -13.71875 21.484375 -11.9375 21.484375 -9.90625 C 21.484375 -7.863281 21.035156 -6.066406 20.140625 -4.515625 C 19.242188 -2.972656 18.023438 -1.78125 16.484375 -0.9375 C 14.953125 -0.09375 13.25 0.328125 11.375 0.328125 Z M 11.375 -2.5625 C 12.550781 -2.5625 13.65625 -2.835938 14.6875 -3.390625 C 15.71875 -3.941406 16.550781 -4.769531 17.1875 -5.875 C 17.820312 -6.976562 18.140625 -8.320312 18.140625 -9.90625 C 18.140625 -11.488281 17.828125 -12.832031 17.203125 -13.9375 C 16.578125 -15.039062 15.757812 -15.859375 14.75 -16.390625 C 13.75 -16.929688 12.660156 -17.203125 11.484375 -17.203125 C 10.285156 -17.203125 9.1875 -16.929688 8.1875 -16.390625 C 7.195312 -15.859375 6.398438 -15.039062 5.796875 -13.9375 C 5.191406 -12.832031 4.890625 -11.488281 4.890625 -9.90625 C 4.890625 -8.289062 5.179688 -6.929688 5.765625 -5.828125 C 6.359375 -4.722656 7.144531 -3.898438 8.125 -3.359375 C 9.113281 -2.828125 10.195312 -2.5625 11.375 -2.5625 Z M 11.375 -2.5625 "/></g></g></g><g fill="#ffffff" fill-opacity="1"><g transform="translate(1066.727233, 462.187005)"><g><path d="M 1.546875 -9.9375 C 1.546875 -11.945312 1.953125 -13.710938 2.765625 -15.234375 C 3.585938 -16.765625 4.710938 -17.945312 6.140625 -18.78125 C 7.566406 -19.625 9.164062 -20.046875 10.9375 -20.046875 C 12.476562 -20.046875 13.90625 -19.691406 15.21875 -18.984375 C 16.539062 -18.273438 17.550781 -17.347656 18.25 -16.203125 L 18.25 -26.640625 L 21.5625 -26.640625 L 21.5625 0 L 18.25 0 L 18.25 -3.703125 C 17.601562 -2.523438 16.644531 -1.554688 15.375 -0.796875 C 14.101562 -0.046875 12.613281 0.328125 10.90625 0.328125 C 9.15625 0.328125 7.566406 -0.101562 6.140625 -0.96875 C 4.710938 -1.832031 3.585938 -3.046875 2.765625 -4.609375 C 1.953125 -6.171875 1.546875 -7.945312 1.546875 -9.9375 Z M 18.25 -9.90625 C 18.25 -11.382812 17.945312 -12.675781 17.34375 -13.78125 C 16.75 -14.882812 15.941406 -15.726562 14.921875 -16.3125 C 13.898438 -16.90625 12.78125 -17.203125 11.5625 -17.203125 C 10.332031 -17.203125 9.210938 -16.914062 8.203125 -16.34375 C 7.203125 -15.769531 6.398438 -14.929688 5.796875 -13.828125 C 5.191406 -12.722656 4.890625 -11.425781 4.890625 -9.9375 C 4.890625 -8.425781 5.191406 -7.109375 5.796875 -5.984375 C 6.398438 -4.867188 7.203125 -4.019531 8.203125 -3.4375 C 9.210938 -2.851562 10.332031 -2.5625 11.5625 -2.5625 C 12.78125 -2.5625 13.898438 -2.851562 14.921875 -3.4375 C 15.941406 -4.019531 16.75 -4.867188 17.34375 -5.984375 C 17.945312 -7.109375 18.25 -8.414062 18.25 -9.90625 Z M 18.25 -9.90625 "/></g></g></g><g fill="#ffffff" fill-opacity="1"><g transform="translate(1091.063276, 462.187005)"><g><path d="M 20.765625 -10.625 C 20.765625 -10 20.726562 -9.335938 20.65625 -8.640625 L 4.890625 -8.640625 C 5.015625 -6.691406 5.679688 -5.171875 6.890625 -4.078125 C 8.109375 -2.992188 9.578125 -2.453125 11.296875 -2.453125 C 12.710938 -2.453125 13.894531 -2.78125 14.84375 -3.4375 C 15.789062 -4.09375 16.457031 -4.972656 16.84375 -6.078125 L 20.375 -6.078125 C 19.84375 -4.179688 18.785156 -2.640625 17.203125 -1.453125 C 15.617188 -0.265625 13.648438 0.328125 11.296875 0.328125 C 9.429688 0.328125 7.757812 -0.09375 6.28125 -0.9375 C 4.800781 -1.78125 3.640625 -2.972656 2.796875 -4.515625 C 1.960938 -6.066406 1.546875 -7.863281 1.546875 -9.90625 C 1.546875 -11.9375 1.953125 -13.71875 2.765625 -15.25 C 3.585938 -16.789062 4.734375 -17.972656 6.203125 -18.796875 C 7.679688 -19.628906 9.378906 -20.046875 11.296875 -20.046875 C 13.171875 -20.046875 14.828125 -19.640625 16.265625 -18.828125 C 17.710938 -18.015625 18.820312 -16.890625 19.59375 -15.453125 C 20.375 -14.023438 20.765625 -12.414062 20.765625 -10.625 Z M 17.390625 -11.296875 C 17.390625 -12.546875 17.113281 -13.617188 16.5625 -14.515625 C 16.007812 -15.421875 15.257812 -16.109375 14.3125 -16.578125 C 13.363281 -17.046875 12.3125 -17.28125 11.15625 -17.28125 C 9.5 -17.28125 8.085938 -16.75 6.921875 -15.6875 C 5.765625 -14.632812 5.101562 -13.171875 4.9375 -11.296875 Z M 17.390625 -11.296875 "/></g></g></g><g clip-path="url(#b0d71f765a)"><g clip-path="url(#0178262bc6)"><path stroke-linecap="butt" transform="matrix(0.749615, 0, 0, 0.750675, 871.91821, 115.709004)" fill="none" stroke-linejoin="miter" d="M 50.999826 0.00257598 L 466.265157 0.00257598 C 479.792937 0.00257598 492.763139 5.372744 502.330552 14.937056 C 511.892755 24.501368 517.265305 37.474071 517.265305 50.998362 L 517.265305 313.66829 C 517.265305 327.197784 511.892755 340.170487 502.330552 349.734799 C 492.763139 359.299111 479.792937 364.669279 466.265157 364.669279 L 50.999826 364.669279 C 37.472046 364.669279 24.501843 359.299111 14.939641 349.734799 C 5.372228 340.170487 -0.000322308 327.197784 -0.000322308 313.66829 L -0.000322308 50.998362 C -0.000322308 37.474071 5.372228 24.501368 14.939641 14.937056 C 24.501843 5.372744 37.472046 0.00257598 50.999826 0.00257598 Z M 50.999826 0.00257598 " stroke="#326ce5" stroke-width="12" stroke-opacity="1" stroke-miterlimit="4"/></g></g><g fill="#ffffff" fill-opacity="1"><g transform="translate(1018.37914, 157.108334)"><g><path d="M 22.5 0 L 19.21875 0 L 6.046875 -19.984375 L 6.046875 0 L 2.765625 0 L 2.765625 -25.125 L 6.046875 -25.125 L 19.21875 -5.1875 L 19.21875 -25.125 L 22.5 -25.125 Z M 22.5 0 "/></g></g></g><g fill="#ffffff" fill-opacity="1"><g transform="translate(1043.687187, 157.108334)"><g><path d="M 11.375 0.328125 C 9.53125 0.328125 7.859375 -0.09375 6.359375 -0.9375 C 4.859375 -1.78125 3.679688 -2.972656 2.828125 -4.515625 C 1.972656 -6.066406 1.546875 -7.863281 1.546875 -9.90625 C 1.546875 -11.914062 1.984375 -13.691406 2.859375 -15.234375 C 3.734375 -16.785156 4.925781 -17.972656 6.4375 -18.796875 C 7.957031 -19.628906 9.648438 -20.046875 11.515625 -20.046875 C 13.390625 -20.046875 15.082031 -19.628906 16.59375 -18.796875 C 18.101562 -17.972656 19.296875 -16.789062 20.171875 -15.25 C 21.046875 -13.71875 21.484375 -11.9375 21.484375 -9.90625 C 21.484375 -7.863281 21.035156 -6.066406 20.140625 -4.515625 C 19.242188 -2.972656 18.023438 -1.78125 16.484375 -0.9375 C 14.953125 -0.09375 13.25 0.328125 11.375 0.328125 Z M 11.375 -2.5625 C 12.550781 -2.5625 13.65625 -2.835938 14.6875 -3.390625 C 15.71875 -3.941406 16.550781 -4.769531 17.1875 -5.875 C 17.820312 -6.976562 18.140625 -8.320312 18.140625 -9.90625 C 18.140625 -11.488281 17.828125 -12.832031 17.203125 -13.9375 C 16.578125 -15.039062 15.757812 -15.859375 14.75 -16.390625 C 13.75 -16.929688 12.660156 -17.203125 11.484375 -17.203125 C 10.285156 -17.203125 9.1875 -16.929688 8.1875 -16.390625 C 7.195312 -15.859375 6.398438 -15.039062 5.796875 -13.9375 C 5.191406 -12.832031 4.890625 -11.488281 4.890625 -9.90625 C 4.890625 -8.289062 5.179688 -6.929688 5.765625 -5.828125 C 6.359375 -4.722656 7.144531 -3.898438 8.125 -3.359375 C 9.113281 -2.828125 10.195312 -2.5625 11.375 -2.5625 Z M 11.375 -2.5625 "/></g></g></g><g fill="#ffffff" fill-opacity="1"><g transform="translate(1066.727233, 157.108334)"><g><path d="M 1.546875 -9.9375 C 1.546875 -11.945312 1.953125 -13.710938 2.765625 -15.234375 C 3.585938 -16.765625 4.710938 -17.945312 6.140625 -18.78125 C 7.566406 -19.625 9.164062 -20.046875 10.9375 -20.046875 C 12.476562 -20.046875 13.90625 -19.691406 15.21875 -18.984375 C 16.539062 -18.273438 17.550781 -17.347656 18.25 -16.203125 L 18.25 -26.640625 L 21.5625 -26.640625 L 21.5625 0 L 18.25 0 L 18.25 -3.703125 C 17.601562 -2.523438 16.644531 -1.554688 15.375 -0.796875 C 14.101562 -0.046875 12.613281 0.328125 10.90625 0.328125 C 9.15625 0.328125 7.566406 -0.101562 6.140625 -0.96875 C 4.710938 -1.832031 3.585938 -3.046875 2.765625 -4.609375 C 1.953125 -6.171875 1.546875 -7.945312 1.546875 -9.9375 Z M 18.25 -9.90625 C 18.25 -11.382812 17.945312 -12.675781 17.34375 -13.78125 C 16.75 -14.882812 15.941406 -15.726562 14.921875 -16.3125 C 13.898438 -16.90625 12.78125 -17.203125 11.5625 -17.203125 C 10.332031 -17.203125 9.210938 -16.914062 8.203125 -16.34375 C 7.203125 -15.769531 6.398438 -14.929688 5.796875 -13.828125 C 5.191406 -12.722656 4.890625 -11.425781 4.890625 -9.9375 C 4.890625 -8.425781 5.191406 -7.109375 5.796875 -5.984375 C 6.398438 -4.867188 7.203125 -4.019531 8.203125 -3.4375 C 9.210938 -2.851562 10.332031 -2.5625 11.5625 -2.5625 C 12.78125 -2.5625 13.898438 -2.851562 14.921875 -3.4375 C 15.941406 -4.019531 16.75 -4.867188 17.34375 -5.984375 C 17.945312 -7.109375 18.25 -8.414062 18.25 -9.90625 Z M 18.25 -9.90625 "/></g></g></g><g fill="#ffffff" fill-opacity="1"><g transform="translate(1091.063276, 157.108334)"><g><path d="M 20.765625 -10.625 C 20.765625 -10 20.726562 -9.335938 20.65625 -8.640625 L 4.890625 -8.640625 C 5.015625 -6.691406 5.679688 -5.171875 6.890625 -4.078125 C 8.109375 -2.992188 9.578125 -2.453125 11.296875 -2.453125 C 12.710938 -2.453125 13.894531 -2.78125 14.84375 -3.4375 C 15.789062 -4.09375 16.457031 -4.972656 16.84375 -6.078125 L 20.375 -6.078125 C 19.84375 -4.179688 18.785156 -2.640625 17.203125 -1.453125 C 15.617188 -0.265625 13.648438 0.328125 11.296875 0.328125 C 9.429688 0.328125 7.757812 -0.09375 6.28125 -0.9375 C 4.800781 -1.78125 3.640625 -2.972656 2.796875 -4.515625 C 1.960938 -6.066406 1.546875 -7.863281 1.546875 -9.90625 C 1.546875 -11.9375 1.953125 -13.71875 2.765625 -15.25 C 3.585938 -16.789062 4.734375 -17.972656 6.203125 -18.796875 C 7.679688 -19.628906 9.378906 -20.046875 11.296875 -20.046875 C 13.171875 -20.046875 14.828125 -19.640625 16.265625 -18.828125 C 17.710938 -18.015625 18.820312 -16.890625 19.59375 -15.453125 C 20.375 -14.023438 20.765625 -12.414062 20.765625 -10.625 Z M 17.390625 -11.296875 C 17.390625 -12.546875 17.113281 -13.617188 16.5625 -14.515625 C 16.007812 -15.421875 15.257812 -16.109375 14.3125 -16.578125 C 13.363281 -17.046875 12.3125 -17.28125 11.15625 -17.28125 C 9.5 -17.28125 8.085938 -16.75 6.921875 -15.6875 C 5.765625 -14.632812 5.101562 -13.171875 4.9375 -11.296875 Z M 17.390625 -11.296875 "/></g></g></g></svg>