<svg xmlns="http://www.w3.org/2000/svg" xmlns:xlink="http://www.w3.org/1999/xlink" width="1920" zoomAndPan="magnify" viewBox="0 0 1440 809.999993" height="1080" preserveAspectRatio="xMidYMid meet" version="1.0"><defs><g/><clipPath id="15dbfcd69d"><path d="M 81 81 L 1359 81 L 1359 729 L 81 729 Z M 81 81 " clip-rule="nonzero"/></clipPath><clipPath id="01086e254e"><path d="M 108 81 L 1332 81 C 1339.160156 81 1346.027344 83.84375 1351.089844 88.90625 C 1356.15625 93.972656 1359 100.839844 1359 108 L 1359 702 C 1359 709.160156 1356.15625 716.027344 1351.089844 721.09375 C 1346.027344 726.15625 1339.160156 729 1332 729 L 108 729 C 100.839844 729 93.972656 726.15625 88.90625 721.09375 C 83.84375 716.027344 81 709.160156 81 702 L 81 108 C 81 100.839844 83.84375 93.972656 88.90625 88.90625 C 93.972656 83.84375 100.839844 81 108 81 Z M 108 81 " clip-rule="nonzero"/></clipPath><clipPath id="1198ff1712"><path d="M 659.152344 22.144531 L 780.652344 22.144531 L 780.652344 139.894531 L 659.152344 139.894531 Z M 659.152344 22.144531 " clip-rule="nonzero"/></clipPath><clipPath id="003a155c51"><path d="M 871.917969 420.789062 L 1259.667969 420.789062 L 1259.667969 694.535156 L 871.917969 694.535156 Z M 871.917969 420.789062 " clip-rule="nonzero"/></clipPath><clipPath id="1aa5b42a58"><path d="M 910.148438 420.789062 L 1221.4375 420.789062 C 1231.578125 420.789062 1241.300781 424.820312 1248.472656 432 C 1255.640625 439.179688 1259.667969 448.917969 1259.667969 459.070312 L 1259.667969 656.253906 C 1259.667969 666.40625 1255.640625 676.144531 1248.472656 683.324219 C 1241.300781 690.503906 1231.578125 694.535156 1221.4375 694.535156 L 910.148438 694.535156 C 900.007812 694.535156 890.285156 690.503906 883.117188 683.324219 C 875.945312 676.144531 871.917969 666.40625 871.917969 656.253906 L 871.917969 459.070312 C 871.917969 448.917969 875.945312 439.179688 883.117188 432 C 890.285156 424.820312 900.007812 420.789062 910.148438 420.789062 Z M 910.148438 420.789062 " clip-rule="nonzero"/></clipPath><clipPath id="11c34a5fbb"><path d="M 871.917969 115.710938 L 1259.667969 115.710938 L 1259.667969 389.457031 L 871.917969 389.457031 Z M 871.917969 115.710938 " clip-rule="nonzero"/></clipPath><clipPath id="43aec5333a"><path d="M 910.148438 115.710938 L 1221.4375 115.710938 C 1231.578125 115.710938 1241.300781 119.742188 1248.472656 126.921875 C 1255.640625 134.101562 1259.667969 143.839844 1259.667969 153.992188 L 1259.667969 351.171875 C 1259.667969 361.328125 1255.640625 371.066406 1248.472656 378.246094 C 1241.300781 385.425781 1231.578125 389.457031 1221.4375 389.457031 L 910.148438 389.457031 C 900.007812 389.457031 890.285156 385.425781 883.117188 378.246094 C 875.945312 371.066406 871.917969 361.328125 871.917969 351.171875 L 871.917969 153.992188 C 871.917969 143.839844 875.945312 134.101562 883.117188 126.921875 C 890.285156 119.742188 900.007812 115.710938 910.148438 115.710938 Z M 910.148438 115.710938 " clip-rule="nonzero"/></clipPath><clipPath id="400d452a85"><path d="M 1009.992188 253.519531 L 1121.796875 253.519531 L 1121.796875 365.320312 L 1009.992188 365.320312 Z M 1009.992188 253.519531 " clip-rule="nonzero"/></clipPath><clipPath id="69d2277a6e"><path d="M 1065.894531 253.519531 C 1035.019531 253.519531 1009.992188 278.546875 1009.992188 309.421875 C 1009.992188 340.292969 1035.019531 365.320312 1065.894531 365.320312 C 1096.769531 365.320312 1121.796875 340.292969 1121.796875 309.421875 C 1121.796875 278.546875 1096.769531 253.519531 1065.894531 253.519531 Z M 1065.894531 253.519531 " clip-rule="nonzero"/></clipPath><clipPath id="5d30cb7067"><path d="M 1009.992188 253.519531 L 1121.742188 253.519531 L 1121.742188 365.269531 L 1009.992188 365.269531 Z M 1009.992188 253.519531 " clip-rule="nonzero"/></clipPath><clipPath id="b6534adaad"><path d="M 1065.867188 253.519531 C 1035.007812 253.519531 1009.992188 278.535156 1009.992188 309.394531 C 1009.992188 340.253906 1035.007812 365.269531 1065.867188 365.269531 C 1096.726562 365.269531 1121.742188 340.253906 1121.742188 309.394531 C 1121.742188 278.535156 1096.726562 253.519531 1065.867188 253.519531 Z M 1065.867188 253.519531 " clip-rule="nonzero"/></clipPath><clipPath id="a4bd2e5c82"><path d="M 1009.992188 557.230469 L 1121.742188 557.230469 L 1121.742188 668.980469 L 1009.992188 668.980469 Z M 1009.992188 557.230469 " clip-rule="nonzero"/></clipPath><clipPath id="0e103285c1"><path d="M 1065.867188 557.230469 C 1035.007812 557.230469 1009.992188 582.246094 1009.992188 613.105469 C 1009.992188 643.964844 1035.007812 668.980469 1065.867188 668.980469 C 1096.726562 668.980469 1121.742188 643.964844 1121.742188 613.105469 C 1121.742188 582.246094 1096.726562 557.230469 1065.867188 557.230469 Z M 1065.867188 557.230469 " clip-rule="nonzero"/></clipPath><clipPath id="2444e4465d"><path d="M 898.191406 189.339844 L 1009.992188 189.339844 L 1009.992188 301.140625 L 898.191406 301.140625 Z M 898.191406 189.339844 " clip-rule="nonzero"/></clipPath><clipPath id="fb0556654c"><path d="M 954.09375 189.339844 C 923.21875 189.339844 898.191406 214.367188 898.191406 245.242188 C 898.191406 276.113281 923.21875 301.140625 954.09375 301.140625 C 984.964844 301.140625 1009.992188 276.113281 1009.992188 245.242188 C 1009.992188 214.367188 984.964844 189.339844 954.09375 189.339844 Z M 954.09375 189.339844 " clip-rule="nonzero"/></clipPath><clipPath id="14687480d0"><path d="M 898.191406 189.339844 L 1009.941406 189.339844 L 1009.941406 301.089844 L 898.191406 301.089844 Z M 898.191406 189.339844 " clip-rule="nonzero"/></clipPath><clipPath id="13951f19e9"><path d="M 954.066406 189.339844 C 923.207031 189.339844 898.191406 214.355469 898.191406 245.214844 C 898.191406 276.074219 923.207031 301.089844 954.066406 301.089844 C 984.925781 301.089844 1009.941406 276.074219 1009.941406 245.214844 C 1009.941406 214.355469 984.925781 189.339844 954.066406 189.339844 Z M 954.066406 189.339844 " clip-rule="nonzero"/></clipPath><clipPath id="b711070b7e"><path d="M 898.191406 493.050781 L 1009.941406 493.050781 L 1009.941406 604.800781 L 898.191406 604.800781 Z M 898.191406 493.050781 " clip-rule="nonzero"/></clipPath><clipPath id="dc65ff9ba1"><path d="M 954.066406 493.050781 C 923.207031 493.050781 898.191406 518.066406 898.191406 548.925781 C 898.191406 579.785156 923.207031 604.800781 954.066406 604.800781 C 984.925781 604.800781 1009.941406 579.785156 1009.941406 548.925781 C 1009.941406 518.066406 984.925781 493.050781 954.066406 493.050781 Z M 954.066406 493.050781 " clip-rule="nonzero"/></clipPath></defs><g clip-path="url(#15dbfcd69d)"><g clip-path="url(#01086e254e)"><path stroke-linecap="butt" transform="matrix(0.75, 0, 0, 0.75, 81.000024, 81.000016)" fill="none" stroke-linejoin="miter" d="M 35.99997 -0.0000212333 L 1668.000052 -0.0000212333 C 1677.546928 -0.0000212333 1686.703178 3.791646 1693.458387 10.541646 C 1700.208387 17.296855 1704.000054 26.453105 1704.000054 35.999981 L 1704.000054 828.00002 C 1704.000054 837.546896 1700.208387 846.703146 1693.458387 853.458355 C 1686.703178 860.208355 1677.546928 864.000022 1668.000052 864.000022 L 35.99997 864.000022 C 26.453095 864.000022 17.296844 860.208355 10.541636 853.458355 C 3.791635 846.703146 -0.000031663 837.546896 -0.000031663 828.00002 L -0.000031663 35.999981 C -0.000031663 26.453105 3.791635 17.296855 10.541636 10.541646 C 17.296844 3.791646 26.453095 -0.0000212333 35.99997 -0.0000212333 Z M 35.99997 -0.0000212333 " stroke="#ffffff" stroke-width="12" stroke-opacity="1" stroke-miterlimit="4"/></g></g><g clip-path="url(#1198ff1712)"><path fill="#326ce5" d="M 719.527344 22.140625 C 718.433594 22.203125 717.398438 22.480469 716.421875 22.964844 L 674.367188 43.0625 C 672.171875 44.109375 670.574219 46.101562 670.027344 48.476562 L 659.734375 93.582031 C 659.242188 95.699219 659.640625 97.917969 660.867188 99.734375 C 661.007812 99.953125 661.160156 100.164062 661.320312 100.367188 L 690.375 136.566406 C 691.910156 138.453125 694.214844 139.539062 696.644531 139.527344 L 743.246094 139.527344 C 745.683594 139.53125 747.992188 138.394531 749.523438 136.53125 L 778.5625 100.328125 C 780.085938 98.4375 780.65625 95.941406 780.070312 93.574219 L 769.710938 48.429688 C 769.164062 46.054688 767.558594 44.0625 765.371094 43.015625 L 723.386719 22.96875 C 722.15625 22.359375 720.859375 22.085938 719.488281 22.140625 Z M 719.527344 22.140625 " fill-opacity="1" fill-rule="nonzero"/></g><path stroke-linecap="butt" transform="matrix(3.773292, 0, 0, 3.78062, 659.530629, 20.340757)" fill-opacity="1" fill="#ffffff" fill-rule="nonzero" stroke-linejoin="miter" d="M 16.001818 4.541838 C 15.617745 4.568702 15.326844 4.898302 15.346513 5.28163 L 15.346513 5.469678 C 15.365147 5.682524 15.39724 5.894336 15.438649 6.103048 C 15.500763 6.503942 15.522503 6.907934 15.504904 7.312961 C 15.466601 7.446247 15.391028 7.566102 15.287505 7.65806 L 15.271976 7.940131 C 14.867198 7.974228 14.464491 8.036222 14.069031 8.126113 C 12.403335 8.502208 10.885678 9.365989 9.714826 10.611031 L 9.474651 10.440548 C 9.343176 10.480844 9.201348 10.466379 9.080225 10.401285 C 8.754126 10.160543 8.455978 9.889836 8.182675 9.591233 C 8.046024 9.427983 7.901091 9.272998 7.745805 9.126279 L 7.597767 9.008491 C 7.466291 8.902068 7.303759 8.841108 7.135016 8.832842 C 7.032527 8.827676 6.935215 8.845241 6.841009 8.887603 C 6.747837 8.928932 6.668124 8.989893 6.603939 9.069452 C 6.378258 9.38562 6.45176 9.824743 6.767507 10.052054 L 6.906228 10.161576 C 7.084289 10.280397 7.267526 10.387853 7.45801 10.484977 C 7.812061 10.682324 8.146442 10.912734 8.455978 11.185507 C 8.536726 11.300195 8.581241 11.428316 8.588488 11.568835 L 8.806923 11.769282 C 7.629859 13.535072 7.147439 15.673858 7.448692 17.775448 L 7.169179 17.855007 C 7.095677 17.970729 6.9994 18.069919 6.883453 18.143278 C 6.491099 18.247634 6.093568 18.312728 5.68879 18.339592 C 5.474496 18.344758 5.261237 18.361289 5.049014 18.39022 L 4.871988 18.429483 L 4.852319 18.429483 C 4.727055 18.447048 4.61525 18.496643 4.517937 18.577235 C 4.420625 18.656793 4.351264 18.757017 4.309855 18.876871 C 4.269481 18.996726 4.262234 19.117614 4.290185 19.241601 C 4.318137 19.364556 4.37611 19.472012 4.46514 19.561903 C 4.554171 19.651794 4.6608 19.711721 4.783993 19.741685 C 4.907186 19.771648 5.028309 19.766482 5.149432 19.72722 L 5.161855 19.72722 L 5.341986 19.706555 C 5.544892 19.646628 5.744693 19.573268 5.940353 19.488543 C 6.315108 19.338725 6.704357 19.224037 7.101888 19.148611 C 7.239575 19.156877 7.372085 19.204405 7.483891 19.283964 L 7.784109 19.234369 C 8.434238 21.251234 9.799715 22.960196 11.623802 24.036822 L 11.501644 24.29203 C 11.557547 24.408785 11.579287 24.538972 11.561688 24.668126 C 11.397085 25.050421 11.195214 25.416184 10.95918 25.76025 C 10.829775 25.930733 10.709688 26.108448 10.600988 26.293397 L 10.516099 26.473179 C 10.452949 26.581668 10.422927 26.699456 10.427068 26.82551 C 10.430174 26.951564 10.466407 27.067286 10.534733 27.172675 C 10.603059 27.278065 10.694159 27.357623 10.808035 27.412385 C 10.920876 27.466113 11.040964 27.486777 11.166227 27.474378 C 11.291491 27.459913 11.404332 27.414451 11.503715 27.335926 C 11.603097 27.258433 11.674529 27.160277 11.719044 27.042488 L 11.801863 26.872005 C 11.87847 26.671559 11.94162 26.468012 11.994417 26.2624 C 12.171442 25.825343 12.266684 25.356257 12.508929 25.065919 C 12.589678 24.98946 12.68492 24.942965 12.794655 24.926433 L 12.944764 24.652627 C 13.435466 24.841708 13.938591 24.984294 14.454139 25.080384 C 14.970722 25.176475 15.491446 25.22607 16.016311 25.227103 C 16.542211 25.228136 17.062935 25.181641 17.579519 25.087617 C 18.096102 24.993593 18.600262 24.854107 19.090964 24.668126 L 19.22451 24.923333 C 19.360126 24.942965 19.482284 25.018391 19.564067 25.127913 C 19.75248 25.486444 19.903625 25.861506 20.019571 26.247934 C 20.073404 26.455614 20.137588 26.65916 20.214196 26.858573 L 20.297015 27.029056 C 20.34153 27.146845 20.413997 27.245001 20.513379 27.32146 C 20.612762 27.398953 20.724568 27.444415 20.849831 27.45888 C 20.975095 27.472312 21.095182 27.452681 21.209058 27.398953 C 21.322934 27.345225 21.41507 27.265666 21.484431 27.160277 C 21.552757 27.053854 21.587955 26.938132 21.591061 26.812078 C 21.594166 26.686024 21.563109 26.568236 21.49996 26.458713 L 21.413 26.278931 C 21.3043 26.095016 21.184213 25.918334 21.054808 25.747851 C 20.824986 25.416184 20.627255 25.061786 20.455406 24.690857 C 20.421243 24.548271 20.444018 24.414984 20.522696 24.290997 C 20.480252 24.203172 20.442983 24.114314 20.411926 24.022357 C 22.231872 22.937465 23.592173 21.222303 24.235055 19.202339 L 24.51871 19.251934 C 24.621198 19.158943 24.754744 19.110381 24.89243 19.114514 C 25.288926 19.18994 25.678175 19.313928 26.053966 19.454447 C 26.248591 19.544338 26.449426 19.619764 26.652333 19.683824 C 26.699954 19.697256 26.77035 19.707588 26.824182 19.72102 L 26.836605 19.72102 C 26.957728 19.760283 27.07885 19.764416 27.202043 19.734452 C 27.324201 19.704489 27.430831 19.644561 27.519861 19.55467 C 27.607856 19.464779 27.666865 19.358356 27.695851 19.234369 C 27.723803 19.111415 27.718627 18.989493 27.678252 18.869639 C 27.636843 18.749784 27.567482 18.650594 27.469135 18.570002 C 27.370787 18.48941 27.260017 18.440848 27.133718 18.424317 L 26.940129 18.377821 C 26.727905 18.348891 26.514646 18.332359 26.300352 18.328226 C 25.895575 18.302395 25.495973 18.236269 25.105689 18.130879 C 24.985602 18.063719 24.886219 17.963496 24.817893 17.842608 L 24.547697 17.763049 C 24.619128 17.242301 24.642938 16.719487 24.619128 16.194606 C 24.595318 15.669725 24.523886 15.151044 24.405869 14.639595 C 24.286817 14.127113 24.12325 13.630129 23.914132 13.147611 C 23.706049 12.666126 23.454487 12.206338 23.161515 11.770315 L 23.397549 11.552304 C 23.388232 11.414884 23.432747 11.278498 23.521777 11.174141 C 23.829242 10.909634 24.161553 10.677158 24.512499 10.477744 C 24.701947 10.380621 24.886219 10.273165 25.06428 10.155377 L 25.210248 10.036555 C 25.319983 9.969395 25.402802 9.876404 25.45974 9.760683 C 25.515643 9.644961 25.536348 9.522006 25.52289 9.393886 C 25.508396 9.265765 25.460775 9.151077 25.381062 9.04982 C 25.300314 8.949597 25.198861 8.877271 25.076703 8.834909 C 24.95558 8.792546 24.831351 8.786347 24.706088 8.815277 C 24.579789 8.844208 24.472124 8.904135 24.381024 8.996092 L 24.232985 9.113881 C 24.078734 9.260599 23.932766 9.415584 23.796115 9.578834 C 23.532129 9.880537 23.240193 10.15641 22.92341 10.402318 C 22.79297 10.455013 22.657354 10.469478 22.518633 10.445714 L 22.266035 10.625496 C 20.806351 9.096316 18.839402 8.145744 16.730625 7.95563 C 16.730625 7.85644 16.718202 7.705588 16.716131 7.659093 C 16.60329 7.580567 16.523577 7.461746 16.497696 7.327426 C 16.484238 6.9224 16.509084 6.51944 16.574304 6.11958 C 16.616748 5.909834 16.64677 5.700089 16.66644 5.487243 L 16.66644 5.286797 C 16.686109 4.903468 16.396243 4.573868 16.011135 4.547004 Z M 15.168452 9.707988 L 14.967616 13.201339 L 14.953123 13.201339 C 14.942771 13.417284 14.816472 13.601199 14.620812 13.704522 C 14.426188 13.808878 14.19533 13.777881 14.02141 13.650794 L 11.155875 11.620497 C 11.612414 11.173108 12.120716 10.795979 12.681814 10.491176 C 13.242912 10.18534 13.835068 9.962162 14.459315 9.821643 C 14.693279 9.772048 14.929313 9.733819 15.166382 9.707988 Z M 16.836219 9.707988 C 18.341453 9.895003 19.742128 10.570735 20.826021 11.631862 L 17.988437 13.648727 C 17.813482 13.789247 17.573307 13.817144 17.370401 13.721053 C 17.167494 13.624963 17.037055 13.421417 17.033949 13.197206 Z M 10.116497 12.934765 L 12.735646 15.272965 L 12.735646 15.288463 C 12.899214 15.430016 12.96961 15.651127 12.921989 15.861906 C 12.874368 16.072685 12.711836 16.240068 12.504788 16.296896 L 12.504788 16.307228 L 9.143375 17.274331 C 9.059521 16.516974 9.101965 15.765816 9.268639 15.022923 C 9.435312 14.278998 9.717931 13.583634 10.116497 12.933732 Z M 21.868504 12.934765 C 22.664601 14.230436 23.016582 15.749284 22.870613 17.261933 L 19.504024 16.29173 L 19.504024 16.279331 C 19.293871 16.222503 19.134444 16.05512 19.086823 15.844341 C 19.040238 15.632529 19.109598 15.413484 19.273166 15.269865 L 21.872645 12.943031 Z M 15.46453 15.454813 L 16.537035 15.454813 L 17.19234 16.286564 L 16.954236 17.327026 L 15.991466 17.789913 L 15.02559 17.327026 L 14.798873 16.286564 Z M 18.899445 18.293096 C 18.943961 18.28793 18.998828 18.28793 19.034026 18.293096 L 22.501034 18.877905 C 22.001014 20.318227 21.014434 21.547771 19.725564 22.371255 L 18.385968 19.126913 C 18.367334 19.083517 18.354911 19.038055 18.346629 18.99156 C 18.339382 18.945064 18.337312 18.898569 18.341453 18.851041 C 18.344558 18.803512 18.353876 18.75805 18.368369 18.713621 C 18.383897 18.668159 18.403567 18.625796 18.428413 18.5855 C 18.453258 18.545204 18.482245 18.509041 18.516408 18.475978 C 18.549535 18.442915 18.586804 18.413984 18.628213 18.39022 C 18.668588 18.365422 18.711032 18.346824 18.756583 18.333392 C 18.802133 18.318927 18.847684 18.310661 18.895304 18.307562 Z M 13.076239 18.307562 C 13.271899 18.310661 13.453065 18.411918 13.559695 18.576201 C 13.667359 18.740485 13.683923 18.946098 13.607315 19.12588 L 13.607315 19.139312 L 12.274966 22.35679 C 10.999554 21.539505 10.031608 20.32546 9.517095 18.899602 L 12.954081 18.316861 C 12.992385 18.312728 13.030689 18.312728 13.070028 18.316861 Z M 15.980078 19.707588 C 16.091883 19.704489 16.195407 19.730319 16.291684 19.786114 C 16.388996 19.840875 16.463533 19.918367 16.517366 20.015491 L 16.529789 20.015491 L 18.224471 23.072818 L 17.547426 23.273265 C 16.301001 23.558437 14.999709 23.491277 13.789517 23.079018 L 15.489376 20.02169 C 15.591864 19.841908 15.782348 19.732386 15.989395 19.72722 Z M 15.980078 19.707588 " stroke="#ffffff" stroke-width="0.055" stroke-opacity="1" stroke-miterlimit="4"/><g clip-path="url(#003a155c51)"><g clip-path="url(#1aa5b42a58)"><path fill="#326ce5" d="M 928.140625 416.285156 L 941.632812 416.285156 L 941.632812 425.292969 L 928.140625 425.292969 Z M 946.128906 416.285156 L 959.621094 416.285156 L 959.621094 425.292969 L 946.128906 425.292969 Z M 964.121094 416.285156 L 977.613281 416.285156 L 977.613281 425.292969 L 964.121094 425.292969 Z M 982.109375 416.285156 L 995.605469 416.285156 L 995.605469 425.292969 L 982.109375 425.292969 Z M 1000.101562 416.285156 L 1013.59375 416.285156 L 1013.59375 425.292969 L 1000.101562 425.292969 Z M 1018.09375 416.285156 L 1031.585938 416.285156 L 1031.585938 425.292969 L 1018.09375 425.292969 Z M 1036.082031 416.285156 L 1049.578125 416.285156 L 1049.578125 425.292969 L 1036.082031 425.292969 Z M 1054.074219 416.285156 L 1067.566406 416.285156 L 1067.566406 425.292969 L 1054.074219 425.292969 Z M 1072.066406 416.285156 L 1085.558594 416.285156 L 1085.558594 425.292969 L 1072.066406 425.292969 Z M 1090.054688 416.285156 L 1103.550781 416.285156 L 1103.550781 425.292969 L 1090.054688 425.292969 Z M 1108.046875 416.285156 L 1121.539062 416.285156 L 1121.539062 425.292969 L 1108.046875 425.292969 Z M 1126.039062 416.285156 L 1139.53125 416.285156 L 1139.53125 425.292969 L 1126.039062 425.292969 Z M 1144.027344 416.285156 L 1157.519531 416.285156 L 1157.519531 425.292969 L 1144.027344 425.292969 Z M 1162.019531 416.285156 L 1175.511719 416.285156 L 1175.511719 425.292969 L 1162.019531 425.292969 Z M 1180.007812 416.285156 L 1193.503906 416.285156 L 1193.503906 425.292969 L 1180.007812 425.292969 Z M 1198 416.285156 L 1211.492188 416.285156 L 1211.492188 425.292969 L 1198 425.292969 Z M 1215.992188 416.285156 L 1221.4375 416.285156 C 1224.453125 416.285156 1227.433594 416.597656 1230.378906 417.230469 L 1228.496094 426.039062 C 1226.171875 425.539062 1223.820312 425.292969 1221.4375 425.292969 L 1215.992188 425.292969 Z M 1235.230469 418.574219 C 1240.042969 420.21875 1244.421875 422.644531 1248.363281 425.847656 L 1242.695312 432.84375 C 1239.582031 430.3125 1236.125 428.398438 1232.328125 427.101562 Z M 1252.09375 429.265625 C 1255.636719 432.917969 1258.4375 437.074219 1260.5 441.730469 L 1252.277344 445.382812 C 1250.648438 441.707031 1248.4375 438.425781 1245.636719 435.539062 Z M 1262.261719 446.445312 C 1263.53125 450.558594 1264.164062 454.765625 1264.164062 459.070312 L 1264.164062 461.136719 L 1255.171875 461.136719 L 1255.171875 459.070312 C 1255.171875 455.671875 1254.667969 452.351562 1253.667969 449.101562 Z M 1264.164062 465.640625 L 1264.164062 479.152344 L 1255.171875 479.152344 L 1255.171875 465.640625 Z M 1264.164062 483.65625 L 1264.164062 497.171875 L 1255.171875 497.171875 L 1255.171875 483.65625 Z M 1264.164062 501.675781 L 1264.164062 515.1875 L 1255.171875 515.1875 L 1255.171875 501.675781 Z M 1264.164062 519.691406 L 1264.164062 533.203125 L 1255.171875 533.203125 L 1255.171875 519.691406 Z M 1264.164062 537.707031 L 1264.164062 551.21875 L 1255.171875 551.21875 L 1255.171875 537.707031 Z M 1264.164062 555.722656 L 1264.164062 569.234375 L 1255.171875 569.234375 L 1255.171875 555.722656 Z M 1264.164062 573.738281 L 1264.164062 587.25 L 1255.171875 587.25 L 1255.171875 573.738281 Z M 1264.164062 591.753906 L 1264.164062 605.265625 L 1255.171875 605.265625 L 1255.171875 591.753906 Z M 1264.164062 609.769531 L 1264.164062 623.285156 L 1255.171875 623.285156 L 1255.171875 609.769531 Z M 1264.164062 627.789062 L 1264.164062 641.300781 L 1255.171875 641.300781 L 1255.171875 627.789062 Z M 1264.164062 645.804688 L 1264.164062 656.253906 C 1264.164062 657.402344 1264.121094 658.546875 1264.027344 659.691406 L 1255.0625 658.96875 C 1255.132812 658.066406 1255.171875 657.160156 1255.171875 656.253906 L 1255.171875 645.804688 Z M 1263.332031 664.667969 C 1262.332031 669.664062 1260.496094 674.328125 1257.832031 678.667969 L 1250.171875 673.949219 C 1252.273438 670.523438 1253.722656 666.839844 1254.511719 662.898438 Z M 1254.957031 682.789062 C 1253.925781 684.09375 1252.824219 685.332031 1251.652344 686.507812 C 1249.246094 688.914062 1246.59375 691.003906 1243.695312 692.777344 L 1239.007812 685.089844 C 1241.296875 683.6875 1243.394531 682.039062 1245.289062 680.136719 C 1246.21875 679.210938 1247.085938 678.230469 1247.898438 677.203125 Z M 1239.253906 695.144531 C 1234.632812 697.265625 1229.789062 698.523438 1224.722656 698.914062 L 1224.03125 689.933594 C 1228.03125 689.625 1231.855469 688.632812 1235.503906 686.957031 Z M 1219.863281 699.039062 L 1206.371094 699.039062 L 1206.371094 690.03125 L 1219.863281 690.03125 Z M 1201.875 699.039062 L 1188.378906 699.039062 L 1188.378906 690.03125 L 1201.875 690.03125 Z M 1183.882812 699.039062 L 1170.390625 699.039062 L 1170.390625 690.03125 L 1183.882812 690.03125 Z M 1165.890625 699.039062 L 1152.398438 699.039062 L 1152.398438 690.03125 L 1165.890625 690.03125 Z M 1147.902344 699.039062 L 1134.410156 699.039062 L 1134.410156 690.03125 L 1147.902344 690.03125 Z M 1129.910156 699.039062 L 1116.417969 699.039062 L 1116.417969 690.03125 L 1129.910156 690.03125 Z M 1111.917969 699.039062 L 1098.425781 699.039062 L 1098.425781 690.03125 L 1111.917969 690.03125 Z M 1093.929688 699.039062 L 1080.4375 699.039062 L 1080.4375 690.03125 L 1093.929688 690.03125 Z M 1075.9375 699.039062 L 1062.445312 699.039062 L 1062.445312 690.03125 L 1075.9375 690.03125 Z M 1057.949219 699.039062 L 1044.453125 699.039062 L 1044.453125 690.03125 L 1057.949219 690.03125 Z M 1039.957031 699.039062 L 1026.464844 699.039062 L 1026.464844 690.03125 L 1039.957031 690.03125 Z M 1021.964844 699.039062 L 1008.472656 699.039062 L 1008.472656 690.03125 L 1021.964844 690.03125 Z M 1003.976562 699.039062 L 990.480469 699.039062 L 990.480469 690.03125 L 1003.976562 690.03125 Z M 985.984375 699.039062 L 972.492188 699.039062 L 972.492188 690.03125 L 985.984375 690.03125 Z M 967.992188 699.039062 L 954.5 699.039062 L 954.5 690.03125 L 967.992188 690.03125 Z M 950.003906 699.039062 L 936.511719 699.039062 L 936.511719 690.03125 L 950.003906 690.03125 Z M 932.011719 699.039062 L 918.519531 699.039062 L 918.519531 690.03125 L 932.011719 690.03125 Z M 914.019531 699.039062 L 910.148438 699.039062 C 906.539062 699.039062 902.984375 698.589844 899.488281 697.6875 L 901.734375 688.964844 C 904.492188 689.675781 907.296875 690.03125 910.148438 690.03125 L 914.019531 690.03125 Z M 894.699219 696.144531 C 889.960938 694.304688 885.6875 691.703125 881.875 688.335938 L 887.828125 681.582031 C 890.835938 684.238281 894.210938 686.292969 897.953125 687.746094 Z M 878.289062 684.761719 C 874.902344 680.96875 872.273438 676.703125 870.40625 671.96875 L 878.773438 668.660156 C 880.246094 672.398438 882.320312 675.765625 884.996094 678.761719 Z M 868.839844 667.183594 C 867.894531 663.601562 867.421875 659.957031 867.421875 656.253906 L 867.421875 652.609375 L 876.414062 652.609375 L 876.414062 656.253906 C 876.414062 659.179688 876.789062 662.054688 877.535156 664.882812 Z M 867.421875 648.105469 L 867.421875 634.59375 L 876.414062 634.59375 L 876.414062 648.105469 Z M 867.421875 630.089844 L 867.421875 616.578125 L 876.414062 616.578125 L 876.414062 630.089844 Z M 867.421875 612.074219 L 867.421875 598.5625 L 876.414062 598.5625 L 876.414062 612.074219 Z M 867.421875 594.058594 L 867.421875 580.546875 L 876.414062 580.546875 L 876.414062 594.058594 Z M 867.421875 576.042969 L 867.421875 562.527344 L 876.414062 562.527344 L 876.414062 576.042969 Z M 867.421875 558.023438 L 867.421875 544.511719 L 876.414062 544.511719 L 876.414062 558.023438 Z M 867.421875 540.007812 L 867.421875 526.496094 L 876.414062 526.496094 L 876.414062 540.007812 Z M 867.421875 521.992188 L 867.421875 508.480469 L 876.414062 508.480469 L 876.414062 521.992188 Z M 867.421875 503.976562 L 867.421875 490.464844 L 876.414062 490.464844 L 876.414062 503.976562 Z M 867.421875 485.960938 L 867.421875 472.449219 L 876.414062 472.449219 L 876.414062 485.960938 Z M 867.421875 467.945312 L 867.421875 459.070312 C 867.421875 457.332031 867.527344 455.601562 867.738281 453.875 L 876.664062 454.96875 C 876.5 456.332031 876.414062 457.699219 876.414062 459.070312 L 876.414062 467.945312 Z M 868.636719 448.929688 C 869.84375 443.980469 871.867188 439.394531 874.707031 435.171875 L 882.167969 440.203125 C 879.925781 443.535156 878.328125 447.15625 877.378906 451.066406 Z M 877.75 431.171875 C 878.449219 430.359375 879.175781 429.574219 879.933594 428.816406 C 882.761719 425.984375 885.921875 423.597656 889.417969 421.65625 L 893.78125 429.535156 C 891.023438 431.066406 888.527344 432.949219 886.296875 435.1875 C 885.699219 435.785156 885.121094 436.40625 884.570312 437.046875 Z M 893.949219 419.476562 C 898.652344 417.546875 903.546875 416.492188 908.628906 416.3125 L 908.949219 425.3125 C 904.9375 425.457031 901.074219 426.289062 897.359375 427.8125 Z M 910.148438 416.285156 L 923.640625 416.285156 L 923.640625 425.292969 L 910.148438 425.292969 Z M 910.148438 416.285156 " fill-opacity="1" fill-rule="nonzero"/></g></g><g fill="#ffffff" fill-opacity="1"><g transform="translate(1018.37914, 462.187173)"><g><path d="M 22.5 0 L 19.21875 0 L 6.046875 -19.984375 L 6.046875 0 L 2.765625 0 L 2.765625 -25.125 L 6.046875 -25.125 L 19.21875 -5.1875 L 19.21875 -25.125 L 22.5 -25.125 Z M 22.5 0 "/></g></g></g><g fill="#ffffff" fill-opacity="1"><g transform="translate(1043.687187, 462.187173)"><g><path d="M 11.375 0.328125 C 9.53125 0.328125 7.859375 -0.09375 6.359375 -0.9375 C 4.859375 -1.78125 3.679688 -2.972656 2.828125 -4.515625 C 1.972656 -6.066406 1.546875 -7.863281 1.546875 -9.90625 C 1.546875 -11.914062 1.984375 -13.691406 2.859375 -15.234375 C 3.734375 -16.785156 4.925781 -17.972656 6.4375 -18.796875 C 7.957031 -19.628906 9.648438 -20.046875 11.515625 -20.046875 C 13.390625 -20.046875 15.082031 -19.628906 16.59375 -18.796875 C 18.101562 -17.972656 19.296875 -16.789062 20.171875 -15.25 C 21.046875 -13.71875 21.484375 -11.9375 21.484375 -9.90625 C 21.484375 -7.863281 21.035156 -6.066406 20.140625 -4.515625 C 19.242188 -2.972656 18.023438 -1.78125 16.484375 -0.9375 C 14.953125 -0.09375 13.25 0.328125 11.375 0.328125 Z M 11.375 -2.5625 C 12.550781 -2.5625 13.65625 -2.835938 14.6875 -3.390625 C 15.71875 -3.941406 16.550781 -4.769531 17.1875 -5.875 C 17.820312 -6.976562 18.140625 -8.320312 18.140625 -9.90625 C 18.140625 -11.488281 17.828125 -12.832031 17.203125 -13.9375 C 16.578125 -15.039062 15.757812 -15.859375 14.75 -16.390625 C 13.75 -16.929688 12.660156 -17.203125 11.484375 -17.203125 C 10.285156 -17.203125 9.1875 -16.929688 8.1875 -16.390625 C 7.195312 -15.859375 6.398438 -15.039062 5.796875 -13.9375 C 5.191406 -12.832031 4.890625 -11.488281 4.890625 -9.90625 C 4.890625 -8.289062 5.179688 -6.929688 5.765625 -5.828125 C 6.359375 -4.722656 7.144531 -3.898438 8.125 -3.359375 C 9.113281 -2.828125 10.195312 -2.5625 11.375 -2.5625 Z M 11.375 -2.5625 "/></g></g></g><g fill="#ffffff" fill-opacity="1"><g transform="translate(1066.727233, 462.187173)"><g><path d="M 1.546875 -9.9375 C 1.546875 -11.945312 1.953125 -13.710938 2.765625 -15.234375 C 3.585938 -16.765625 4.710938 -17.945312 6.140625 -18.78125 C 7.566406 -19.625 9.164062 -20.046875 10.9375 -20.046875 C 12.476562 -20.046875 13.90625 -19.691406 15.21875 -18.984375 C 16.539062 -18.273438 17.550781 -17.347656 18.25 -16.203125 L 18.25 -26.640625 L 21.5625 -26.640625 L 21.5625 0 L 18.25 0 L 18.25 -3.703125 C 17.601562 -2.523438 16.644531 -1.554688 15.375 -0.796875 C 14.101562 -0.046875 12.613281 0.328125 10.90625 0.328125 C 9.15625 0.328125 7.566406 -0.101562 6.140625 -0.96875 C 4.710938 -1.832031 3.585938 -3.046875 2.765625 -4.609375 C 1.953125 -6.171875 1.546875 -7.945312 1.546875 -9.9375 Z M 18.25 -9.90625 C 18.25 -11.382812 17.945312 -12.675781 17.34375 -13.78125 C 16.75 -14.882812 15.941406 -15.726562 14.921875 -16.3125 C 13.898438 -16.90625 12.78125 -17.203125 11.5625 -17.203125 C 10.332031 -17.203125 9.210938 -16.914062 8.203125 -16.34375 C 7.203125 -15.769531 6.398438 -14.929688 5.796875 -13.828125 C 5.191406 -12.722656 4.890625 -11.425781 4.890625 -9.9375 C 4.890625 -8.425781 5.191406 -7.109375 5.796875 -5.984375 C 6.398438 -4.867188 7.203125 -4.019531 8.203125 -3.4375 C 9.210938 -2.851562 10.332031 -2.5625 11.5625 -2.5625 C 12.78125 -2.5625 13.898438 -2.851562 14.921875 -3.4375 C 15.941406 -4.019531 16.75 -4.867188 17.34375 -5.984375 C 17.945312 -7.109375 18.25 -8.414062 18.25 -9.90625 Z M 18.25 -9.90625 "/></g></g></g><g fill="#ffffff" fill-opacity="1"><g transform="translate(1091.063276, 462.187173)"><g><path d="M 20.765625 -10.625 C 20.765625 -10 20.726562 -9.335938 20.65625 -8.640625 L 4.890625 -8.640625 C 5.015625 -6.691406 5.679688 -5.171875 6.890625 -4.078125 C 8.109375 -2.992188 9.578125 -2.453125 11.296875 -2.453125 C 12.710938 -2.453125 13.894531 -2.78125 14.84375 -3.4375 C 15.789062 -4.09375 16.457031 -4.972656 16.84375 -6.078125 L 20.375 -6.078125 C 19.84375 -4.179688 18.785156 -2.640625 17.203125 -1.453125 C 15.617188 -0.265625 13.648438 0.328125 11.296875 0.328125 C 9.429688 0.328125 7.757812 -0.09375 6.28125 -0.9375 C 4.800781 -1.78125 3.640625 -2.972656 2.796875 -4.515625 C 1.960938 -6.066406 1.546875 -7.863281 1.546875 -9.90625 C 1.546875 -11.9375 1.953125 -13.71875 2.765625 -15.25 C 3.585938 -16.789062 4.734375 -17.972656 6.203125 -18.796875 C 7.679688 -19.628906 9.378906 -20.046875 11.296875 -20.046875 C 13.171875 -20.046875 14.828125 -19.640625 16.265625 -18.828125 C 17.710938 -18.015625 18.820312 -16.890625 19.59375 -15.453125 C 20.375 -14.023438 20.765625 -12.414062 20.765625 -10.625 Z M 17.390625 -11.296875 C 17.390625 -12.546875 17.113281 -13.617188 16.5625 -14.515625 C 16.007812 -15.421875 15.257812 -16.109375 14.3125 -16.578125 C 13.363281 -17.046875 12.3125 -17.28125 11.15625 -17.28125 C 9.5 -17.28125 8.085938 -16.75 6.921875 -15.6875 C 5.765625 -14.632812 5.101562 -13.171875 4.9375 -11.296875 Z M 17.390625 -11.296875 "/></g></g></g><g clip-path="url(#11c34a5fbb)"><g clip-path="url(#43aec5333a)"><path stroke-linecap="butt" transform="matrix(0.749615, 0, 0, 0.750675, 871.91821, 115.709004)" fill="none" stroke-linejoin="miter" d="M 50.999826 0.00257598 L 466.265157 0.00257598 C 479.792937 0.00257598 492.763139 5.372744 502.330552 14.937056 C 511.892755 24.501368 517.265305 37.474071 517.265305 50.998362 L 517.265305 313.66829 C 517.265305 327.197784 511.892755 340.170487 502.330552 349.734799 C 492.763139 359.299111 479.792937 364.669279 466.265157 364.669279 L 50.999826 364.669279 C 37.472046 364.669279 24.501843 359.299111 14.939641 349.734799 C 5.372228 340.170487 -0.000322308 327.197784 -0.000322308 313.66829 L -0.000322308 50.998362 C -0.000322308 37.474071 5.372228 24.501368 14.939641 14.937056 C 24.501843 5.372744 37.472046 0.00257598 50.999826 0.00257598 Z M 50.999826 0.00257598 " stroke="#326ce5" stroke-width="12" stroke-opacity="1" stroke-miterlimit="4"/></g></g><g fill="#ffffff" fill-opacity="1"><g transform="translate(1018.37914, 157.108517)"><g><path d="M 22.5 0 L 19.21875 0 L 6.046875 -19.984375 L 6.046875 0 L 2.765625 0 L 2.765625 -25.125 L 6.046875 -25.125 L 19.21875 -5.1875 L 19.21875 -25.125 L 22.5 -25.125 Z M 22.5 0 "/></g></g></g><g fill="#ffffff" fill-opacity="1"><g transform="translate(1043.687187, 157.108517)"><g><path d="M 11.375 0.328125 C 9.53125 0.328125 7.859375 -0.09375 6.359375 -0.9375 C 4.859375 -1.78125 3.679688 -2.972656 2.828125 -4.515625 C 1.972656 -6.066406 1.546875 -7.863281 1.546875 -9.90625 C 1.546875 -11.914062 1.984375 -13.691406 2.859375 -15.234375 C 3.734375 -16.785156 4.925781 -17.972656 6.4375 -18.796875 C 7.957031 -19.628906 9.648438 -20.046875 11.515625 -20.046875 C 13.390625 -20.046875 15.082031 -19.628906 16.59375 -18.796875 C 18.101562 -17.972656 19.296875 -16.789062 20.171875 -15.25 C 21.046875 -13.71875 21.484375 -11.9375 21.484375 -9.90625 C 21.484375 -7.863281 21.035156 -6.066406 20.140625 -4.515625 C 19.242188 -2.972656 18.023438 -1.78125 16.484375 -0.9375 C 14.953125 -0.09375 13.25 0.328125 11.375 0.328125 Z M 11.375 -2.5625 C 12.550781 -2.5625 13.65625 -2.835938 14.6875 -3.390625 C 15.71875 -3.941406 16.550781 -4.769531 17.1875 -5.875 C 17.820312 -6.976562 18.140625 -8.320312 18.140625 -9.90625 C 18.140625 -11.488281 17.828125 -12.832031 17.203125 -13.9375 C 16.578125 -15.039062 15.757812 -15.859375 14.75 -16.390625 C 13.75 -16.929688 12.660156 -17.203125 11.484375 -17.203125 C 10.285156 -17.203125 9.1875 -16.929688 8.1875 -16.390625 C 7.195312 -15.859375 6.398438 -15.039062 5.796875 -13.9375 C 5.191406 -12.832031 4.890625 -11.488281 4.890625 -9.90625 C 4.890625 -8.289062 5.179688 -6.929688 5.765625 -5.828125 C 6.359375 -4.722656 7.144531 -3.898438 8.125 -3.359375 C 9.113281 -2.828125 10.195312 -2.5625 11.375 -2.5625 Z M 11.375 -2.5625 "/></g></g></g><g fill="#ffffff" fill-opacity="1"><g transform="translate(1066.727233, 157.108517)"><g><path d="M 1.546875 -9.9375 C 1.546875 -11.945312 1.953125 -13.710938 2.765625 -15.234375 C 3.585938 -16.765625 4.710938 -17.945312 6.140625 -18.78125 C 7.566406 -19.625 9.164062 -20.046875 10.9375 -20.046875 C 12.476562 -20.046875 13.90625 -19.691406 15.21875 -18.984375 C 16.539062 -18.273438 17.550781 -17.347656 18.25 -16.203125 L 18.25 -26.640625 L 21.5625 -26.640625 L 21.5625 0 L 18.25 0 L 18.25 -3.703125 C 17.601562 -2.523438 16.644531 -1.554688 15.375 -0.796875 C 14.101562 -0.046875 12.613281 0.328125 10.90625 0.328125 C 9.15625 0.328125 7.566406 -0.101562 6.140625 -0.96875 C 4.710938 -1.832031 3.585938 -3.046875 2.765625 -4.609375 C 1.953125 -6.171875 1.546875 -7.945312 1.546875 -9.9375 Z M 18.25 -9.90625 C 18.25 -11.382812 17.945312 -12.675781 17.34375 -13.78125 C 16.75 -14.882812 15.941406 -15.726562 14.921875 -16.3125 C 13.898438 -16.90625 12.78125 -17.203125 11.5625 -17.203125 C 10.332031 -17.203125 9.210938 -16.914062 8.203125 -16.34375 C 7.203125 -15.769531 6.398438 -14.929688 5.796875 -13.828125 C 5.191406 -12.722656 4.890625 -11.425781 4.890625 -9.9375 C 4.890625 -8.425781 5.191406 -7.109375 5.796875 -5.984375 C 6.398438 -4.867188 7.203125 -4.019531 8.203125 -3.4375 C 9.210938 -2.851562 10.332031 -2.5625 11.5625 -2.5625 C 12.78125 -2.5625 13.898438 -2.851562 14.921875 -3.4375 C 15.941406 -4.019531 16.75 -4.867188 17.34375 -5.984375 C 17.945312 -7.109375 18.25 -8.414062 18.25 -9.90625 Z M 18.25 -9.90625 "/></g></g></g><g fill="#ffffff" fill-opacity="1"><g transform="translate(1091.063276, 157.108517)"><g><path d="M 20.765625 -10.625 C 20.765625 -10 20.726562 -9.335938 20.65625 -8.640625 L 4.890625 -8.640625 C 5.015625 -6.691406 5.679688 -5.171875 6.890625 -4.078125 C 8.109375 -2.992188 9.578125 -2.453125 11.296875 -2.453125 C 12.710938 -2.453125 13.894531 -2.78125 14.84375 -3.4375 C 15.789062 -4.09375 16.457031 -4.972656 16.84375 -6.078125 L 20.375 -6.078125 C 19.84375 -4.179688 18.785156 -2.640625 17.203125 -1.453125 C 15.617188 -0.265625 13.648438 0.328125 11.296875 0.328125 C 9.429688 0.328125 7.757812 -0.09375 6.28125 -0.9375 C 4.800781 -1.78125 3.640625 -2.972656 2.796875 -4.515625 C 1.960938 -6.066406 1.546875 -7.863281 1.546875 -9.90625 C 1.546875 -11.9375 1.953125 -13.71875 2.765625 -15.25 C 3.585938 -16.789062 4.734375 -17.972656 6.203125 -18.796875 C 7.679688 -19.628906 9.378906 -20.046875 11.296875 -20.046875 C 13.171875 -20.046875 14.828125 -19.640625 16.265625 -18.828125 C 17.710938 -18.015625 18.820312 -16.890625 19.59375 -15.453125 C 20.375 -14.023438 20.765625 -12.414062 20.765625 -10.625 Z M 17.390625 -11.296875 C 17.390625 -12.546875 17.113281 -13.617188 16.5625 -14.515625 C 16.007812 -15.421875 15.257812 -16.109375 14.3125 -16.578125 C 13.363281 -17.046875 12.3125 -17.28125 11.15625 -17.28125 C 9.5 -17.28125 8.085938 -16.75 6.921875 -15.6875 C 5.765625 -14.632812 5.101562 -13.171875 4.9375 -11.296875 Z M 17.390625 -11.296875 "/></g></g></g><g clip-path="url(#400d452a85)"><g clip-path="url(#69d2277a6e)"><path fill="#326ce5" d="M 1009.992188 253.519531 L 1121.796875 253.519531 L 1121.796875 365.320312 L 1009.992188 365.320312 Z M 1009.992188 253.519531 " fill-opacity="1" fill-rule="nonzero"/></g></g><g clip-path="url(#5d30cb7067)"><g clip-path="url(#b6534adaad)"><path stroke-linecap="butt" transform="matrix(0.749685, 0, 0, 0.749685, 1009.993203, 253.518758)" fill="none" stroke-linejoin="miter" d="M 74.529899 0.00103084 C 33.366804 0.00103084 -0.00135512 33.36919 -0.00135512 74.532285 C -0.00135512 115.69538 33.366804 149.06354 74.529899 149.06354 C 115.692994 149.06354 149.061154 115.69538 149.061154 74.532285 C 149.061154 33.36919 115.692994 0.00103084 74.529899 0.00103084 Z M 74.529899 0.00103084 " stroke="#ffffff" stroke-width="8" stroke-opacity="1" stroke-miterlimit="4"/></g></g><g fill="#ffffff" fill-opacity="1"><g transform="translate(1026.856484, 315.768755)"><g><path d="M 8.0625 0 L 4.65625 -4.6875 L 4.65625 0 L 1.234375 0 L 1.234375 -14.796875 L 4.65625 -14.796875 L 4.65625 -6.625 L 8.046875 -11.15625 L 12.265625 -11.15625 L 7.625 -5.5625 L 12.296875 0 Z M 8.0625 0 "/></g></g></g><g fill="#ffffff" fill-opacity="1"><g transform="translate(1039.211605, 315.768755)"><g><path d="M 12.265625 -11.15625 L 12.265625 0 L 8.84375 0 L 8.84375 -1.515625 C 8.488281 -1.023438 8.015625 -0.628906 7.421875 -0.328125 C 6.835938 -0.0234375 6.179688 0.125 5.453125 0.125 C 4.609375 0.125 3.859375 -0.0625 3.203125 -0.4375 C 2.546875 -0.820312 2.035156 -1.375 1.671875 -2.09375 C 1.316406 -2.820312 1.140625 -3.671875 1.140625 -4.640625 L 1.140625 -11.15625 L 4.546875 -11.15625 L 4.546875 -5.09375 C 4.546875 -4.351562 4.738281 -3.773438 5.125 -3.359375 C 5.507812 -2.941406 6.03125 -2.734375 6.6875 -2.734375 C 7.351562 -2.734375 7.878906 -2.941406 8.265625 -3.359375 C 8.648438 -3.773438 8.84375 -4.351562 8.84375 -5.09375 L 8.84375 -11.15625 Z M 12.265625 -11.15625 "/></g></g></g><g fill="#ffffff" fill-opacity="1"><g transform="translate(1052.68629, 315.768755)"><g><path d="M 4.65625 -9.578125 C 4.976562 -10.097656 5.4375 -10.515625 6.03125 -10.828125 C 6.632812 -11.148438 7.320312 -11.3125 8.09375 -11.3125 C 9.019531 -11.3125 9.851562 -11.078125 10.59375 -10.609375 C 11.34375 -10.148438 11.929688 -9.484375 12.359375 -8.609375 C 12.796875 -7.742188 13.015625 -6.738281 13.015625 -5.59375 C 13.015625 -4.445312 12.796875 -3.4375 12.359375 -2.5625 C 11.929688 -1.695312 11.34375 -1.023438 10.59375 -0.546875 C 9.851562 -0.078125 9.019531 0.15625 8.09375 0.15625 C 7.3125 0.15625 6.625 0 6.03125 -0.3125 C 5.445312 -0.625 4.988281 -1.039062 4.65625 -1.5625 L 4.65625 0 L 1.234375 0 L 1.234375 -14.796875 L 4.65625 -14.796875 Z M 9.546875 -5.59375 C 9.546875 -6.445312 9.304688 -7.117188 8.828125 -7.609375 C 8.359375 -8.097656 7.773438 -8.34375 7.078125 -8.34375 C 6.398438 -8.34375 5.820312 -8.09375 5.34375 -7.59375 C 4.875 -7.101562 4.640625 -6.429688 4.640625 -5.578125 C 4.640625 -4.722656 4.875 -4.046875 5.34375 -3.546875 C 5.820312 -3.054688 6.398438 -2.8125 7.078125 -2.8125 C 7.753906 -2.8125 8.332031 -3.0625 8.8125 -3.5625 C 9.300781 -4.0625 9.546875 -4.738281 9.546875 -5.59375 Z M 9.546875 -5.59375 "/></g></g></g><g fill="#ffffff" fill-opacity="1"><g transform="translate(1066.260939, 315.768755)"><g><path d="M 11.765625 -5.765625 C 11.765625 -5.441406 11.742188 -5.109375 11.703125 -4.765625 L 3.953125 -4.765625 C 4.015625 -4.066406 4.238281 -3.535156 4.625 -3.171875 C 5.019531 -2.804688 5.503906 -2.625 6.078125 -2.625 C 6.929688 -2.625 7.523438 -2.984375 7.859375 -3.703125 L 11.5 -3.703125 C 11.3125 -2.960938 10.972656 -2.300781 10.484375 -1.71875 C 10.003906 -1.132812 9.394531 -0.675781 8.65625 -0.34375 C 7.925781 -0.0078125 7.109375 0.15625 6.203125 0.15625 C 5.109375 0.15625 4.132812 -0.0703125 3.28125 -0.53125 C 2.425781 -1 1.757812 -1.664062 1.28125 -2.53125 C 0.800781 -3.40625 0.5625 -4.421875 0.5625 -5.578125 C 0.5625 -6.734375 0.796875 -7.742188 1.265625 -8.609375 C 1.742188 -9.484375 2.410156 -10.148438 3.265625 -10.609375 C 4.117188 -11.078125 5.097656 -11.3125 6.203125 -11.3125 C 7.273438 -11.3125 8.234375 -11.082031 9.078125 -10.625 C 9.921875 -10.175781 10.578125 -9.53125 11.046875 -8.6875 C 11.523438 -7.851562 11.765625 -6.878906 11.765625 -5.765625 Z M 8.265625 -6.65625 C 8.265625 -7.25 8.0625 -7.71875 7.65625 -8.0625 C 7.257812 -8.40625 6.757812 -8.578125 6.15625 -8.578125 C 5.582031 -8.578125 5.097656 -8.410156 4.703125 -8.078125 C 4.316406 -7.742188 4.078125 -7.269531 3.984375 -6.65625 Z M 8.265625 -6.65625 "/></g></g></g><g fill="#ffffff" fill-opacity="1"><g transform="translate(1078.576086, 315.768755)"><g><path d="M 4.65625 -14.796875 L 4.65625 0 L 1.234375 0 L 1.234375 -14.796875 Z M 4.65625 -14.796875 "/></g></g></g><g fill="#ffffff" fill-opacity="1"><g transform="translate(1084.473764, 315.768755)"><g><path d="M 11.765625 -5.765625 C 11.765625 -5.441406 11.742188 -5.109375 11.703125 -4.765625 L 3.953125 -4.765625 C 4.015625 -4.066406 4.238281 -3.535156 4.625 -3.171875 C 5.019531 -2.804688 5.503906 -2.625 6.078125 -2.625 C 6.929688 -2.625 7.523438 -2.984375 7.859375 -3.703125 L 11.5 -3.703125 C 11.3125 -2.960938 10.972656 -2.300781 10.484375 -1.71875 C 10.003906 -1.132812 9.394531 -0.675781 8.65625 -0.34375 C 7.925781 -0.0078125 7.109375 0.15625 6.203125 0.15625 C 5.109375 0.15625 4.132812 -0.0703125 3.28125 -0.53125 C 2.425781 -1 1.757812 -1.664062 1.28125 -2.53125 C 0.800781 -3.40625 0.5625 -4.421875 0.5625 -5.578125 C 0.5625 -6.734375 0.796875 -7.742188 1.265625 -8.609375 C 1.742188 -9.484375 2.410156 -10.148438 3.265625 -10.609375 C 4.117188 -11.078125 5.097656 -11.3125 6.203125 -11.3125 C 7.273438 -11.3125 8.234375 -11.082031 9.078125 -10.625 C 9.921875 -10.175781 10.578125 -9.53125 11.046875 -8.6875 C 11.523438 -7.851562 11.765625 -6.878906 11.765625 -5.765625 Z M 8.265625 -6.65625 C 8.265625 -7.25 8.0625 -7.71875 7.65625 -8.0625 C 7.257812 -8.40625 6.757812 -8.578125 6.15625 -8.578125 C 5.582031 -8.578125 5.097656 -8.410156 4.703125 -8.078125 C 4.316406 -7.742188 4.078125 -7.269531 3.984375 -6.65625 Z M 8.265625 -6.65625 "/></g></g></g><g fill="#ffffff" fill-opacity="1"><g transform="translate(1096.788911, 315.768755)"><g><path d="M 7.453125 -2.90625 L 7.453125 0 L 5.71875 0 C 4.476562 0 3.507812 -0.300781 2.8125 -0.90625 C 2.125 -1.507812 1.78125 -2.5 1.78125 -3.875 L 1.78125 -8.3125 L 0.421875 -8.3125 L 0.421875 -11.15625 L 1.78125 -11.15625 L 1.78125 -13.875 L 5.203125 -13.875 L 5.203125 -11.15625 L 7.4375 -11.15625 L 7.4375 -8.3125 L 5.203125 -8.3125 L 5.203125 -3.84375 C 5.203125 -3.507812 5.28125 -3.269531 5.4375 -3.125 C 5.601562 -2.976562 5.867188 -2.90625 6.234375 -2.90625 Z M 7.453125 -2.90625 "/></g></g></g><g clip-path="url(#a4bd2e5c82)"><g clip-path="url(#0e103285c1)"><path fill="#ffffff" d="M 1046.4375 563.914062 C 1041.117188 566.015625 1036.261719 568.914062 1031.863281 572.613281 L 1028.003906 568.023438 C 1032.898438 563.90625 1038.308594 560.679688 1044.230469 558.335938 Z M 1029.738281 574.496094 C 1025.550781 578.417969 1022.089844 582.894531 1019.363281 587.921875 L 1014.089844 585.058594 C 1017.128906 579.464844 1020.980469 574.484375 1025.640625 570.121094 Z M 1018.074219 590.457031 C 1015.617188 595.632812 1014.046875 601.066406 1013.367188 606.765625 L 1007.414062 606.054688 C 1008.171875 599.707031 1009.917969 593.652344 1012.65625 587.886719 Z M 1013.105469 609.585938 C 1013.03125 610.757812 1012.992188 611.929688 1012.992188 613.105469 C 1012.992188 617.671875 1013.5625 622.144531 1014.707031 626.519531 L 1008.90625 628.035156 C 1007.632812 623.164062 1006.996094 618.1875 1006.996094 613.105469 C 1006.996094 611.796875 1007.039062 610.492188 1007.121094 609.195312 Z M 1015.5 629.25 C 1017.242188 634.691406 1019.8125 639.722656 1023.203125 644.351562 L 1018.371094 647.898438 C 1014.589844 642.746094 1011.730469 637.140625 1009.789062 631.078125 Z M 1024.949219 646.597656 C 1028.582031 651.03125 1032.820312 654.78125 1037.664062 657.839844 L 1034.457031 662.910156 C 1029.070312 659.503906 1024.355469 655.335938 1020.308594 650.398438 Z M 1040.097656 659.289062 C 1045.109375 662.089844 1050.429688 664.019531 1056.0625 665.074219 L 1054.957031 670.96875 C 1048.679688 669.792969 1042.753906 667.644531 1037.171875 664.523438 Z M 1058.863281 665.523438 C 1061.179688 665.828125 1063.515625 665.984375 1065.867188 665.984375 C 1069.238281 665.984375 1072.5625 665.667969 1075.839844 665.042969 L 1076.964844 670.9375 C 1073.3125 671.632812 1069.613281 671.980469 1065.867188 671.980469 C 1063.25 671.980469 1060.652344 671.808594 1058.074219 671.46875 Z M 1078.628906 664.433594 C 1084.179688 663.058594 1089.375 660.828125 1094.21875 657.75 L 1097.4375 662.808594 C 1092.046875 666.242188 1086.257812 668.722656 1080.070312 670.253906 Z M 1096.570312 656.160156 C 1101.234375 652.828125 1105.253906 648.847656 1108.632812 644.210938 L 1113.480469 647.742188 C 1109.722656 652.902344 1105.246094 657.332031 1100.054688 661.042969 Z M 1110.242188 641.871094 C 1113.367188 637.0625 1115.644531 631.886719 1117.074219 626.351562 L 1122.878906 627.851562 C 1121.289062 634.019531 1118.753906 639.78125 1115.273438 645.140625 Z M 1117.710938 623.5625 C 1118.398438 620.128906 1118.746094 616.640625 1118.746094 613.105469 C 1118.746094 610.921875 1118.613281 608.75 1118.347656 606.59375 L 1124.300781 605.863281 C 1124.59375 608.261719 1124.742188 610.675781 1124.742188 613.105469 C 1124.742188 617.039062 1124.359375 620.917969 1123.59375 624.742188 Z M 1117.925781 603.789062 C 1116.921875 598.144531 1115.046875 592.804688 1112.292969 587.773438 L 1117.554688 584.894531 C 1120.621094 590.503906 1122.714844 596.449219 1123.832031 602.738281 Z M 1110.863281 585.320312 C 1107.851562 580.453125 1104.144531 576.179688 1099.742188 572.503906 L 1103.585938 567.898438 C 1108.484375 571.992188 1112.613281 576.746094 1115.964844 582.164062 Z M 1097.511719 570.738281 C 1092.917969 567.300781 1087.90625 564.6875 1082.484375 562.894531 L 1084.367188 557.199219 C 1090.410156 559.195312 1095.988281 562.109375 1101.105469 565.9375 Z M 1079.761719 562.074219 C 1075.238281 560.84375 1070.605469 560.230469 1065.867188 560.230469 C 1060.101562 560.230469 1054.507812 561.136719 1049.089844 562.945312 L 1047.1875 557.257812 C 1053.222656 555.242188 1059.449219 554.234375 1065.867188 554.234375 C 1071.136719 554.234375 1076.292969 554.917969 1081.335938 556.285156 Z M 1079.761719 562.074219 " fill-opacity="1" fill-rule="nonzero"/></g></g><g fill="#ffffff" fill-opacity="1"><g transform="translate(1026.856484, 619.481245)"><g><path d="M 8.0625 0 L 4.65625 -4.6875 L 4.65625 0 L 1.234375 0 L 1.234375 -14.796875 L 4.65625 -14.796875 L 4.65625 -6.625 L 8.046875 -11.15625 L 12.265625 -11.15625 L 7.625 -5.5625 L 12.296875 0 Z M 8.0625 0 "/></g></g></g><g fill="#ffffff" fill-opacity="1"><g transform="translate(1039.211605, 619.481245)"><g><path d="M 12.265625 -11.15625 L 12.265625 0 L 8.84375 0 L 8.84375 -1.515625 C 8.488281 -1.023438 8.015625 -0.628906 7.421875 -0.328125 C 6.835938 -0.0234375 6.179688 0.125 5.453125 0.125 C 4.609375 0.125 3.859375 -0.0625 3.203125 -0.4375 C 2.546875 -0.820312 2.035156 -1.375 1.671875 -2.09375 C 1.316406 -2.820312 1.140625 -3.671875 1.140625 -4.640625 L 1.140625 -11.15625 L 4.546875 -11.15625 L 4.546875 -5.09375 C 4.546875 -4.351562 4.738281 -3.773438 5.125 -3.359375 C 5.507812 -2.941406 6.03125 -2.734375 6.6875 -2.734375 C 7.351562 -2.734375 7.878906 -2.941406 8.265625 -3.359375 C 8.648438 -3.773438 8.84375 -4.351562 8.84375 -5.09375 L 8.84375 -11.15625 Z M 12.265625 -11.15625 "/></g></g></g><g fill="#ffffff" fill-opacity="1"><g transform="translate(1052.68629, 619.481245)"><g><path d="M 4.65625 -9.578125 C 4.976562 -10.097656 5.4375 -10.515625 6.03125 -10.828125 C 6.632812 -11.148438 7.320312 -11.3125 8.09375 -11.3125 C 9.019531 -11.3125 9.851562 -11.078125 10.59375 -10.609375 C 11.34375 -10.148438 11.929688 -9.484375 12.359375 -8.609375 C 12.796875 -7.742188 13.015625 -6.738281 13.015625 -5.59375 C 13.015625 -4.445312 12.796875 -3.4375 12.359375 -2.5625 C 11.929688 -1.695312 11.34375 -1.023438 10.59375 -0.546875 C 9.851562 -0.078125 9.019531 0.15625 8.09375 0.15625 C 7.3125 0.15625 6.625 0 6.03125 -0.3125 C 5.445312 -0.625 4.988281 -1.039062 4.65625 -1.5625 L 4.65625 0 L 1.234375 0 L 1.234375 -14.796875 L 4.65625 -14.796875 Z M 9.546875 -5.59375 C 9.546875 -6.445312 9.304688 -7.117188 8.828125 -7.609375 C 8.359375 -8.097656 7.773438 -8.34375 7.078125 -8.34375 C 6.398438 -8.34375 5.820312 -8.09375 5.34375 -7.59375 C 4.875 -7.101562 4.640625 -6.429688 4.640625 -5.578125 C 4.640625 -4.722656 4.875 -4.046875 5.34375 -3.546875 C 5.820312 -3.054688 6.398438 -2.8125 7.078125 -2.8125 C 7.753906 -2.8125 8.332031 -3.0625 8.8125 -3.5625 C 9.300781 -4.0625 9.546875 -4.738281 9.546875 -5.59375 Z M 9.546875 -5.59375 "/></g></g></g><g fill="#ffffff" fill-opacity="1"><g transform="translate(1066.260939, 619.481245)"><g><path d="M 11.765625 -5.765625 C 11.765625 -5.441406 11.742188 -5.109375 11.703125 -4.765625 L 3.953125 -4.765625 C 4.015625 -4.066406 4.238281 -3.535156 4.625 -3.171875 C 5.019531 -2.804688 5.503906 -2.625 6.078125 -2.625 C 6.929688 -2.625 7.523438 -2.984375 7.859375 -3.703125 L 11.5 -3.703125 C 11.3125 -2.960938 10.972656 -2.300781 10.484375 -1.71875 C 10.003906 -1.132812 9.394531 -0.675781 8.65625 -0.34375 C 7.925781 -0.0078125 7.109375 0.15625 6.203125 0.15625 C 5.109375 0.15625 4.132812 -0.0703125 3.28125 -0.53125 C 2.425781 -1 1.757812 -1.664062 1.28125 -2.53125 C 0.800781 -3.40625 0.5625 -4.421875 0.5625 -5.578125 C 0.5625 -6.734375 0.796875 -7.742188 1.265625 -8.609375 C 1.742188 -9.484375 2.410156 -10.148438 3.265625 -10.609375 C 4.117188 -11.078125 5.097656 -11.3125 6.203125 -11.3125 C 7.273438 -11.3125 8.234375 -11.082031 9.078125 -10.625 C 9.921875 -10.175781 10.578125 -9.53125 11.046875 -8.6875 C 11.523438 -7.851562 11.765625 -6.878906 11.765625 -5.765625 Z M 8.265625 -6.65625 C 8.265625 -7.25 8.0625 -7.71875 7.65625 -8.0625 C 7.257812 -8.40625 6.757812 -8.578125 6.15625 -8.578125 C 5.582031 -8.578125 5.097656 -8.410156 4.703125 -8.078125 C 4.316406 -7.742188 4.078125 -7.269531 3.984375 -6.65625 Z M 8.265625 -6.65625 "/></g></g></g><g fill="#ffffff" fill-opacity="1"><g transform="translate(1078.576086, 619.481245)"><g><path d="M 4.65625 -14.796875 L 4.65625 0 L 1.234375 0 L 1.234375 -14.796875 Z M 4.65625 -14.796875 "/></g></g></g><g fill="#ffffff" fill-opacity="1"><g transform="translate(1084.473764, 619.481245)"><g><path d="M 11.765625 -5.765625 C 11.765625 -5.441406 11.742188 -5.109375 11.703125 -4.765625 L 3.953125 -4.765625 C 4.015625 -4.066406 4.238281 -3.535156 4.625 -3.171875 C 5.019531 -2.804688 5.503906 -2.625 6.078125 -2.625 C 6.929688 -2.625 7.523438 -2.984375 7.859375 -3.703125 L 11.5 -3.703125 C 11.3125 -2.960938 10.972656 -2.300781 10.484375 -1.71875 C 10.003906 -1.132812 9.394531 -0.675781 8.65625 -0.34375 C 7.925781 -0.0078125 7.109375 0.15625 6.203125 0.15625 C 5.109375 0.15625 4.132812 -0.0703125 3.28125 -0.53125 C 2.425781 -1 1.757812 -1.664062 1.28125 -2.53125 C 0.800781 -3.40625 0.5625 -4.421875 0.5625 -5.578125 C 0.5625 -6.734375 0.796875 -7.742188 1.265625 -8.609375 C 1.742188 -9.484375 2.410156 -10.148438 3.265625 -10.609375 C 4.117188 -11.078125 5.097656 -11.3125 6.203125 -11.3125 C 7.273438 -11.3125 8.234375 -11.082031 9.078125 -10.625 C 9.921875 -10.175781 10.578125 -9.53125 11.046875 -8.6875 C 11.523438 -7.851562 11.765625 -6.878906 11.765625 -5.765625 Z M 8.265625 -6.65625 C 8.265625 -7.25 8.0625 -7.71875 7.65625 -8.0625 C 7.257812 -8.40625 6.757812 -8.578125 6.15625 -8.578125 C 5.582031 -8.578125 5.097656 -8.410156 4.703125 -8.078125 C 4.316406 -7.742188 4.078125 -7.269531 3.984375 -6.65625 Z M 8.265625 -6.65625 "/></g></g></g><g fill="#ffffff" fill-opacity="1"><g transform="translate(1096.788911, 619.481245)"><g><path d="M 7.453125 -2.90625 L 7.453125 0 L 5.71875 0 C 4.476562 0 3.507812 -0.300781 2.8125 -0.90625 C 2.125 -1.507812 1.78125 -2.5 1.78125 -3.875 L 1.78125 -8.3125 L 0.421875 -8.3125 L 0.421875 -11.15625 L 1.78125 -11.15625 L 1.78125 -13.875 L 5.203125 -13.875 L 5.203125 -11.15625 L 7.4375 -11.15625 L 7.4375 -8.3125 L 5.203125 -8.3125 L 5.203125 -3.84375 C 5.203125 -3.507812 5.28125 -3.269531 5.4375 -3.125 C 5.601562 -2.976562 5.867188 -2.90625 6.234375 -2.90625 Z M 7.453125 -2.90625 "/></g></g></g><g clip-path="url(#2444e4465d)"><g clip-path="url(#fb0556654c)"><path fill="#326ce5" d="M 898.191406 189.339844 L 1009.992188 189.339844 L 1009.992188 301.140625 L 898.191406 301.140625 Z M 898.191406 189.339844 " fill-opacity="1" fill-rule="nonzero"/></g></g><g clip-path="url(#14687480d0)"><g clip-path="url(#13951f19e9)"><path stroke-linecap="butt" transform="matrix(0.749685, 0, 0, 0.749685, 898.190769, 189.339385)" fill="none" stroke-linejoin="miter" d="M 74.532104 0.000612091 C 33.369009 0.000612091 0.000849976 33.368772 0.000849976 74.531866 C 0.000849976 115.694961 33.369009 149.063121 74.532104 149.063121 C 115.695199 149.063121 149.063359 115.694961 149.063359 74.531866 C 149.063359 33.368772 115.695199 0.000612091 74.532104 0.000612091 Z M 74.532104 0.000612091 " stroke="#ffffff" stroke-width="8" stroke-opacity="1" stroke-miterlimit="4"/></g></g><g fill="#ffffff" fill-opacity="1"><g transform="translate(911.537603, 251.589382)"><g><path d="M 8.40625 0 L 5.484375 -5.296875 L 4.65625 -5.296875 L 4.65625 0 L 1.234375 0 L 1.234375 -14.046875 L 6.984375 -14.046875 C 8.085938 -14.046875 9.03125 -13.847656 9.8125 -13.453125 C 10.59375 -13.066406 11.175781 -12.535156 11.5625 -11.859375 C 11.945312 -11.191406 12.140625 -10.445312 12.140625 -9.625 C 12.140625 -8.6875 11.875 -7.847656 11.34375 -7.109375 C 10.820312 -6.378906 10.046875 -5.863281 9.015625 -5.5625 L 12.265625 0 Z M 4.65625 -7.71875 L 6.78125 -7.71875 C 7.40625 -7.71875 7.875 -7.867188 8.1875 -8.171875 C 8.5 -8.484375 8.65625 -8.921875 8.65625 -9.484375 C 8.65625 -10.015625 8.5 -10.429688 8.1875 -10.734375 C 7.875 -11.046875 7.40625 -11.203125 6.78125 -11.203125 L 4.65625 -11.203125 Z M 4.65625 -7.71875 "/></g></g></g><g fill="#ffffff" fill-opacity="1"><g transform="translate(924.172455, 251.589382)"><g><path d="M 12.265625 -11.15625 L 12.265625 0 L 8.84375 0 L 8.84375 -1.515625 C 8.488281 -1.023438 8.015625 -0.628906 7.421875 -0.328125 C 6.835938 -0.0234375 6.179688 0.125 5.453125 0.125 C 4.609375 0.125 3.859375 -0.0625 3.203125 -0.4375 C 2.546875 -0.820312 2.035156 -1.375 1.671875 -2.09375 C 1.316406 -2.820312 1.140625 -3.671875 1.140625 -4.640625 L 1.140625 -11.15625 L 4.546875 -11.15625 L 4.546875 -5.09375 C 4.546875 -4.351562 4.738281 -3.773438 5.125 -3.359375 C 5.507812 -2.941406 6.03125 -2.734375 6.6875 -2.734375 C 7.351562 -2.734375 7.878906 -2.941406 8.265625 -3.359375 C 8.648438 -3.773438 8.84375 -4.351562 8.84375 -5.09375 L 8.84375 -11.15625 Z M 12.265625 -11.15625 "/></g></g></g><g fill="#ffffff" fill-opacity="1"><g transform="translate(937.247138, 251.589382)"><g><path d="M 8.046875 -11.28125 C 9.347656 -11.28125 10.390625 -10.851562 11.171875 -10 C 11.953125 -9.15625 12.34375 -7.992188 12.34375 -6.515625 L 12.34375 0 L 8.9375 0 L 8.9375 -6.0625 C 8.9375 -6.8125 8.742188 -7.390625 8.359375 -7.796875 C 7.972656 -8.210938 7.453125 -8.421875 6.796875 -8.421875 C 6.140625 -8.421875 5.617188 -8.210938 5.234375 -7.796875 C 4.847656 -7.390625 4.65625 -6.8125 4.65625 -6.0625 L 4.65625 0 L 1.234375 0 L 1.234375 -11.15625 L 4.65625 -11.15625 L 4.65625 -9.6875 C 5.007812 -10.175781 5.476562 -10.5625 6.0625 -10.84375 C 6.644531 -11.132812 7.304688 -11.28125 8.046875 -11.28125 Z M 8.046875 -11.28125 "/></g></g></g><g fill="#ffffff" fill-opacity="1"><g transform="translate(950.32182, 251.589382)"><g><path d="M 7.453125 -2.90625 L 7.453125 0 L 5.71875 0 C 4.476562 0 3.507812 -0.300781 2.8125 -0.90625 C 2.125 -1.507812 1.78125 -2.5 1.78125 -3.875 L 1.78125 -8.3125 L 0.421875 -8.3125 L 0.421875 -11.15625 L 1.78125 -11.15625 L 1.78125 -13.875 L 5.203125 -13.875 L 5.203125 -11.15625 L 7.4375 -11.15625 L 7.4375 -8.3125 L 5.203125 -8.3125 L 5.203125 -3.84375 C 5.203125 -3.507812 5.28125 -3.269531 5.4375 -3.125 C 5.601562 -2.976562 5.867188 -2.90625 6.234375 -2.90625 Z M 7.453125 -2.90625 "/></g></g></g><g fill="#ffffff" fill-opacity="1"><g transform="translate(958.03862, 251.589382)"><g><path d="M 2.953125 -12.3125 C 2.359375 -12.3125 1.867188 -12.488281 1.484375 -12.84375 C 1.109375 -13.195312 0.921875 -13.632812 0.921875 -14.15625 C 0.921875 -14.6875 1.109375 -15.128906 1.484375 -15.484375 C 1.867188 -15.835938 2.359375 -16.015625 2.953125 -16.015625 C 3.546875 -16.015625 4.03125 -15.835938 4.40625 -15.484375 C 4.789062 -15.128906 4.984375 -14.6875 4.984375 -14.15625 C 4.984375 -13.632812 4.789062 -13.195312 4.40625 -12.84375 C 4.03125 -12.488281 3.546875 -12.3125 2.953125 -12.3125 Z M 4.65625 -11.15625 L 4.65625 0 L 1.234375 0 L 1.234375 -11.15625 Z M 4.65625 -11.15625 "/></g></g></g><g fill="#ffffff" fill-opacity="1"><g transform="translate(963.536298, 251.589382)"><g><path d="M 15.484375 -11.28125 C 16.867188 -11.28125 17.96875 -10.859375 18.78125 -10.015625 C 19.601562 -9.179688 20.015625 -8.015625 20.015625 -6.515625 L 20.015625 0 L 16.625 0 L 16.625 -6.0625 C 16.625 -6.78125 16.429688 -7.332031 16.046875 -7.71875 C 15.671875 -8.113281 15.148438 -8.3125 14.484375 -8.3125 C 13.816406 -8.3125 13.289062 -8.113281 12.90625 -7.71875 C 12.53125 -7.332031 12.34375 -6.78125 12.34375 -6.0625 L 12.34375 0 L 8.9375 0 L 8.9375 -6.0625 C 8.9375 -6.78125 8.742188 -7.332031 8.359375 -7.71875 C 7.984375 -8.113281 7.460938 -8.3125 6.796875 -8.3125 C 6.128906 -8.3125 5.601562 -8.113281 5.21875 -7.71875 C 4.84375 -7.332031 4.65625 -6.78125 4.65625 -6.0625 L 4.65625 0 L 1.234375 0 L 1.234375 -11.15625 L 4.65625 -11.15625 L 4.65625 -9.765625 C 5.007812 -10.222656 5.460938 -10.585938 6.015625 -10.859375 C 6.578125 -11.140625 7.210938 -11.28125 7.921875 -11.28125 C 8.765625 -11.28125 9.515625 -11.097656 10.171875 -10.734375 C 10.828125 -10.378906 11.34375 -9.867188 11.71875 -9.203125 C 12.101562 -9.816406 12.628906 -10.316406 13.296875 -10.703125 C 13.960938 -11.085938 14.691406 -11.28125 15.484375 -11.28125 Z M 15.484375 -11.28125 "/></g></g></g><g fill="#ffffff" fill-opacity="1"><g transform="translate(984.307948, 251.589382)"><g><path d="M 11.765625 -5.765625 C 11.765625 -5.441406 11.742188 -5.109375 11.703125 -4.765625 L 3.953125 -4.765625 C 4.015625 -4.066406 4.238281 -3.535156 4.625 -3.171875 C 5.019531 -2.804688 5.503906 -2.625 6.078125 -2.625 C 6.929688 -2.625 7.523438 -2.984375 7.859375 -3.703125 L 11.5 -3.703125 C 11.3125 -2.960938 10.972656 -2.300781 10.484375 -1.71875 C 10.003906 -1.132812 9.394531 -0.675781 8.65625 -0.34375 C 7.925781 -0.0078125 7.109375 0.15625 6.203125 0.15625 C 5.109375 0.15625 4.132812 -0.0703125 3.28125 -0.53125 C 2.425781 -1 1.757812 -1.664062 1.28125 -2.53125 C 0.800781 -3.40625 0.5625 -4.421875 0.5625 -5.578125 C 0.5625 -6.734375 0.796875 -7.742188 1.265625 -8.609375 C 1.742188 -9.484375 2.410156 -10.148438 3.265625 -10.609375 C 4.117188 -11.078125 5.097656 -11.3125 6.203125 -11.3125 C 7.273438 -11.3125 8.234375 -11.082031 9.078125 -10.625 C 9.921875 -10.175781 10.578125 -9.53125 11.046875 -8.6875 C 11.523438 -7.851562 11.765625 -6.878906 11.765625 -5.765625 Z M 8.265625 -6.65625 C 8.265625 -7.25 8.0625 -7.71875 7.65625 -8.0625 C 7.257812 -8.40625 6.757812 -8.578125 6.15625 -8.578125 C 5.582031 -8.578125 5.097656 -8.410156 4.703125 -8.078125 C 4.316406 -7.742188 4.078125 -7.269531 3.984375 -6.65625 Z M 8.265625 -6.65625 "/></g></g></g><g clip-path="url(#b711070b7e)"><g clip-path="url(#dc65ff9ba1)"><path fill="#ffffff" d="M 934.632812 499.734375 C 929.316406 501.835938 924.457031 504.738281 920.0625 508.433594 L 916.203125 503.84375 C 921.097656 499.726562 926.507812 496.5 932.429688 494.15625 Z M 917.9375 510.320312 C 913.746094 514.238281 910.289062 518.714844 907.558594 523.742188 L 902.289062 520.882812 C 905.328125 515.285156 909.175781 510.304688 913.839844 505.941406 Z M 906.269531 526.277344 C 903.816406 531.453125 902.246094 536.890625 901.566406 542.585938 L 895.609375 541.875 C 896.367188 535.527344 898.117188 529.472656 900.851562 523.707031 Z M 901.304688 545.40625 C 901.226562 546.578125 901.191406 547.75 901.191406 548.925781 C 901.191406 553.492188 901.761719 557.964844 902.90625 562.339844 L 897.101562 563.855469 C 895.828125 558.984375 895.191406 554.007812 895.191406 548.925781 C 895.191406 547.617188 895.234375 546.316406 895.320312 545.015625 Z M 903.699219 565.070312 C 905.441406 570.511719 908.007812 575.542969 911.402344 580.171875 L 906.566406 583.71875 C 902.789062 578.566406 899.929688 572.960938 897.988281 566.898438 Z M 913.144531 582.417969 C 916.78125 586.855469 921.019531 590.601562 925.859375 593.660156 L 922.65625 598.730469 C 917.269531 595.328125 912.550781 591.15625 908.507812 586.21875 Z M 928.296875 595.109375 C 933.304688 597.910156 938.628906 599.839844 944.261719 600.898438 L 943.15625 606.792969 C 936.878906 605.613281 930.949219 603.464844 925.367188 600.34375 Z M 947.058594 601.34375 C 949.375 601.648438 951.710938 601.804688 954.066406 601.804688 C 957.433594 601.804688 960.757812 601.492188 964.035156 600.863281 L 965.160156 606.757812 C 961.511719 607.453125 957.8125 607.800781 954.066406 607.800781 C 951.449219 607.800781 948.851562 607.628906 946.273438 607.289062 Z M 966.828125 600.253906 C 972.378906 598.878906 977.574219 596.652344 982.414062 593.570312 L 985.636719 598.628906 C 980.242188 602.0625 974.453125 604.542969 968.269531 606.074219 Z M 984.765625 591.984375 C 989.433594 588.648438 993.453125 584.667969 996.828125 580.03125 L 1001.675781 583.566406 C 997.917969 588.722656 993.445312 593.152344 988.253906 596.863281 Z M 998.441406 577.691406 C 1001.566406 572.882812 1003.84375 567.707031 1005.269531 562.171875 L 1011.078125 563.671875 C 1009.488281 569.839844 1006.949219 575.601562 1003.46875 580.960938 Z M 1005.910156 559.382812 C 1006.597656 555.949219 1006.941406 552.464844 1006.941406 548.925781 C 1006.941406 546.742188 1006.808594 544.570312 1006.546875 542.417969 L 1012.5 541.6875 C 1012.792969 544.082031 1012.941406 546.496094 1012.941406 548.925781 C 1012.941406 552.859375 1012.554688 556.738281 1011.789062 560.5625 Z M 1006.125 539.609375 C 1005.121094 533.964844 1003.242188 528.625 1000.488281 523.59375 L 1005.75 520.714844 C 1008.820312 526.324219 1010.910156 532.269531 1012.027344 538.558594 Z M 999.0625 521.140625 C 996.050781 516.273438 992.34375 512 987.9375 508.324219 L 991.785156 503.722656 C 996.683594 507.8125 1000.808594 512.566406 1004.164062 517.984375 Z M 985.710938 506.558594 C 981.113281 503.121094 976.105469 500.507812 970.683594 498.714844 L 972.566406 493.019531 C 978.605469 495.019531 984.1875 497.929688 989.300781 501.757812 Z M 967.960938 497.894531 C 963.433594 496.664062 958.804688 496.050781 954.066406 496.050781 C 948.296875 496.050781 942.703125 496.957031 937.289062 498.765625 L 935.386719 493.078125 C 941.421875 491.0625 947.648438 490.054688 954.066406 490.054688 C 959.335938 490.054688 964.492188 490.738281 969.53125 492.105469 Z M 967.960938 497.894531 " fill-opacity="1" fill-rule="nonzero"/></g></g><g fill="#ffffff" fill-opacity="1"><g transform="translate(911.537603, 555.302104)"><g><path d="M 8.40625 0 L 5.484375 -5.296875 L 4.65625 -5.296875 L 4.65625 0 L 1.234375 0 L 1.234375 -14.046875 L 6.984375 -14.046875 C 8.085938 -14.046875 9.03125 -13.847656 9.8125 -13.453125 C 10.59375 -13.066406 11.175781 -12.535156 11.5625 -11.859375 C 11.945312 -11.191406 12.140625 -10.445312 12.140625 -9.625 C 12.140625 -8.6875 11.875 -7.847656 11.34375 -7.109375 C 10.820312 -6.378906 10.046875 -5.863281 9.015625 -5.5625 L 12.265625 0 Z M 4.65625 -7.71875 L 6.78125 -7.71875 C 7.40625 -7.71875 7.875 -7.867188 8.1875 -8.171875 C 8.5 -8.484375 8.65625 -8.921875 8.65625 -9.484375 C 8.65625 -10.015625 8.5 -10.429688 8.1875 -10.734375 C 7.875 -11.046875 7.40625 -11.203125 6.78125 -11.203125 L 4.65625 -11.203125 Z M 4.65625 -7.71875 "/></g></g></g><g fill="#ffffff" fill-opacity="1"><g transform="translate(924.172455, 555.302104)"><g><path d="M 12.265625 -11.15625 L 12.265625 0 L 8.84375 0 L 8.84375 -1.515625 C 8.488281 -1.023438 8.015625 -0.628906 7.421875 -0.328125 C 6.835938 -0.0234375 6.179688 0.125 5.453125 0.125 C 4.609375 0.125 3.859375 -0.0625 3.203125 -0.4375 C 2.546875 -0.820312 2.035156 -1.375 1.671875 -2.09375 C 1.316406 -2.820312 1.140625 -3.671875 1.140625 -4.640625 L 1.140625 -11.15625 L 4.546875 -11.15625 L 4.546875 -5.09375 C 4.546875 -4.351562 4.738281 -3.773438 5.125 -3.359375 C 5.507812 -2.941406 6.03125 -2.734375 6.6875 -2.734375 C 7.351562 -2.734375 7.878906 -2.941406 8.265625 -3.359375 C 8.648438 -3.773438 8.84375 -4.351562 8.84375 -5.09375 L 8.84375 -11.15625 Z M 12.265625 -11.15625 "/></g></g></g><g fill="#ffffff" fill-opacity="1"><g transform="translate(937.247138, 555.302104)"><g><path d="M 8.046875 -11.28125 C 9.347656 -11.28125 10.390625 -10.851562 11.171875 -10 C 11.953125 -9.15625 12.34375 -7.992188 12.34375 -6.515625 L 12.34375 0 L 8.9375 0 L 8.9375 -6.0625 C 8.9375 -6.8125 8.742188 -7.390625 8.359375 -7.796875 C 7.972656 -8.210938 7.453125 -8.421875 6.796875 -8.421875 C 6.140625 -8.421875 5.617188 -8.210938 5.234375 -7.796875 C 4.847656 -7.390625 4.65625 -6.8125 4.65625 -6.0625 L 4.65625 0 L 1.234375 0 L 1.234375 -11.15625 L 4.65625 -11.15625 L 4.65625 -9.6875 C 5.007812 -10.175781 5.476562 -10.5625 6.0625 -10.84375 C 6.644531 -11.132812 7.304688 -11.28125 8.046875 -11.28125 Z M 8.046875 -11.28125 "/></g></g></g><g fill="#ffffff" fill-opacity="1"><g transform="translate(950.32182, 555.302104)"><g><path d="M 7.453125 -2.90625 L 7.453125 0 L 5.71875 0 C 4.476562 0 3.507812 -0.300781 2.8125 -0.90625 C 2.125 -1.507812 1.78125 -2.5 1.78125 -3.875 L 1.78125 -8.3125 L 0.421875 -8.3125 L 0.421875 -11.15625 L 1.78125 -11.15625 L 1.78125 -13.875 L 5.203125 -13.875 L 5.203125 -11.15625 L 7.4375 -11.15625 L 7.4375 -8.3125 L 5.203125 -8.3125 L 5.203125 -3.84375 C 5.203125 -3.507812 5.28125 -3.269531 5.4375 -3.125 C 5.601562 -2.976562 5.867188 -2.90625 6.234375 -2.90625 Z M 7.453125 -2.90625 "/></g></g></g><g fill="#ffffff" fill-opacity="1"><g transform="translate(958.03862, 555.302104)"><g><path d="M 2.953125 -12.3125 C 2.359375 -12.3125 1.867188 -12.488281 1.484375 -12.84375 C 1.109375 -13.195312 0.921875 -13.632812 0.921875 -14.15625 C 0.921875 -14.6875 1.109375 -15.128906 1.484375 -15.484375 C 1.867188 -15.835938 2.359375 -16.015625 2.953125 -16.015625 C 3.546875 -16.015625 4.03125 -15.835938 4.40625 -15.484375 C 4.789062 -15.128906 4.984375 -14.6875 4.984375 -14.15625 C 4.984375 -13.632812 4.789062 -13.195312 4.40625 -12.84375 C 4.03125 -12.488281 3.546875 -12.3125 2.953125 -12.3125 Z M 4.65625 -11.15625 L 4.65625 0 L 1.234375 0 L 1.234375 -11.15625 Z M 4.65625 -11.15625 "/></g></g></g><g fill="#ffffff" fill-opacity="1"><g transform="translate(963.536298, 555.302104)"><g><path d="M 15.484375 -11.28125 C 16.867188 -11.28125 17.96875 -10.859375 18.78125 -10.015625 C 19.601562 -9.179688 20.015625 -8.015625 20.015625 -6.515625 L 20.015625 0 L 16.625 0 L 16.625 -6.0625 C 16.625 -6.78125 16.429688 -7.332031 16.046875 -7.71875 C 15.671875 -8.113281 15.148438 -8.3125 14.484375 -8.3125 C 13.816406 -8.3125 13.289062 -8.113281 12.90625 -7.71875 C 12.53125 -7.332031 12.34375 -6.78125 12.34375 -6.0625 L 12.34375 0 L 8.9375 0 L 8.9375 -6.0625 C 8.9375 -6.78125 8.742188 -7.332031 8.359375 -7.71875 C 7.984375 -8.113281 7.460938 -8.3125 6.796875 -8.3125 C 6.128906 -8.3125 5.601562 -8.113281 5.21875 -7.71875 C 4.84375 -7.332031 4.65625 -6.78125 4.65625 -6.0625 L 4.65625 0 L 1.234375 0 L 1.234375 -11.15625 L 4.65625 -11.15625 L 4.65625 -9.765625 C 5.007812 -10.222656 5.460938 -10.585938 6.015625 -10.859375 C 6.578125 -11.140625 7.210938 -11.28125 7.921875 -11.28125 C 8.765625 -11.28125 9.515625 -11.097656 10.171875 -10.734375 C 10.828125 -10.378906 11.34375 -9.867188 11.71875 -9.203125 C 12.101562 -9.816406 12.628906 -10.316406 13.296875 -10.703125 C 13.960938 -11.085938 14.691406 -11.28125 15.484375 -11.28125 Z M 15.484375 -11.28125 "/></g></g></g><g fill="#ffffff" fill-opacity="1"><g transform="translate(984.307948, 555.302104)"><g><path d="M 11.765625 -5.765625 C 11.765625 -5.441406 11.742188 -5.109375 11.703125 -4.765625 L 3.953125 -4.765625 C 4.015625 -4.066406 4.238281 -3.535156 4.625 -3.171875 C 5.019531 -2.804688 5.503906 -2.625 6.078125 -2.625 C 6.929688 -2.625 7.523438 -2.984375 7.859375 -3.703125 L 11.5 -3.703125 C 11.3125 -2.960938 10.972656 -2.300781 10.484375 -1.71875 C 10.003906 -1.132812 9.394531 -0.675781 8.65625 -0.34375 C 7.925781 -0.0078125 7.109375 0.15625 6.203125 0.15625 C 5.109375 0.15625 4.132812 -0.0703125 3.28125 -0.53125 C 2.425781 -1 1.757812 -1.664062 1.28125 -2.53125 C 0.800781 -3.40625 0.5625 -4.421875 0.5625 -5.578125 C 0.5625 -6.734375 0.796875 -7.742188 1.265625 -8.609375 C 1.742188 -9.484375 2.410156 -10.148438 3.265625 -10.609375 C 4.117188 -11.078125 5.097656 -11.3125 6.203125 -11.3125 C 7.273438 -11.3125 8.234375 -11.082031 9.078125 -10.625 C 9.921875 -10.175781 10.578125 -9.53125 11.046875 -8.6875 C 11.523438 -7.851562 11.765625 -6.878906 11.765625 -5.765625 Z M 8.265625 -6.65625 C 8.265625 -7.25 8.0625 -7.71875 7.65625 -8.0625 C 7.257812 -8.40625 6.757812 -8.578125 6.15625 -8.578125 C 5.582031 -8.578125 5.097656 -8.410156 4.703125 -8.078125 C 4.316406 -7.742188 4.078125 -7.269531 3.984375 -6.65625 Z M 8.265625 -6.65625 "/></g></g></g></svg>